<?xml version="1.0" encoding="UTF-8"?>
<!DOCTYPE svg PUBLIC "-//W3C//DTD SVG 1.1//EN" "http://www.w3.org/Graphics/SVG/1.1/DTD/svg11.dtd">
<svg xmlns="http://www.w3.org/2000/svg" version="1.1" width="512px" height="512px" style="shape-rendering:geometricPrecision; text-rendering:geometricPrecision; image-rendering:optimizeQuality; fill-rule:evenodd; clip-rule:evenodd" xmlns:xlink="http://www.w3.org/1999/xlink">
<g><path style="opacity:1" fill="#91c12e" d="M 233.5,-0.5 C 248.167,-0.5 262.833,-0.5 277.5,-0.5C 303.481,1.912 328.481,8.24534 352.5,18.5C 358.178,22.6723 364.511,25.839 371.5,28C 376.583,31.2921 381.75,34.4588 387,37.5C 387.464,36.9056 387.631,36.2389 387.5,35.5C 397.063,41.1078 406.063,47.4411 414.5,54.5C 425.706,65.3689 437.039,76.3689 448.5,87.5C 453.584,92.248 457.917,97.5813 461.5,103.5C 460.176,105.558 460.676,107.225 463,108.5C 464.19,111.194 464.356,113.861 463.5,116.5C 462.614,115.675 462.281,114.675 462.5,113.5C 461.5,113.5 460.5,113.5 459.5,113.5C 459.5,114.5 459.5,115.5 459.5,116.5C 457.833,116.5 456.167,116.5 454.5,116.5C 454.5,115.5 454.5,114.5 454.5,113.5C 452.833,113.5 451.167,113.5 449.5,113.5C 449.5,114.5 449.5,115.5 449.5,116.5C 446.722,116.978 444.722,115.978 443.5,113.5C 442.278,115.978 440.278,116.978 437.5,116.5C 437.5,115.5 437.5,114.5 437.5,113.5C 431.794,113.829 426.128,113.495 420.5,112.5C 420.167,111.5 419.5,110.833 418.5,110.5C 417.833,112.5 417.167,114.5 416.5,116.5C 415.049,114.441 413.049,113.441 410.5,113.5C 409.753,117.193 408.42,117.193 406.5,113.5C 405.278,115.978 403.278,116.978 400.5,116.5C 400.5,115.5 400.5,114.5 400.5,113.5C 391.167,113.5 381.833,113.5 372.5,113.5C 372.719,114.675 372.386,115.675 371.5,116.5C 370.851,114.376 370.017,112.376 369,110.5C 368.517,111.448 368.351,112.448 368.5,113.5C 363.5,113.5 358.5,113.5 353.5,113.5C 353.5,112.5 353.5,111.5 353.5,110.5C 351.833,110.5 350.167,110.5 348.5,110.5C 348.5,111.5 348.5,112.5 348.5,113.5C 345.956,113.896 343.789,113.229 342,111.5C 338.506,113.377 334.673,114.044 330.5,113.5C 330.719,114.675 330.386,115.675 329.5,116.5C 328.833,114.5 328.167,112.5 327.5,110.5C 326.614,111.325 326.281,112.325 326.5,113.5C 324.5,113.5 322.5,113.5 320.5,113.5C 320.719,112.325 320.386,111.325 319.5,110.5C 318.534,112.396 318.201,114.396 318.5,116.5C 315.378,116.186 312.545,115.186 310,113.5C 307.455,115.186 304.622,116.186 301.5,116.5C 301.5,115.5 301.5,114.5 301.5,113.5C 293.14,113.831 284.807,113.498 276.5,112.5C 274.995,109.869 274.329,110.203 274.5,113.5C 271.833,113.5 269.167,113.5 266.5,113.5C 266.506,110.452 265.506,109.952 263.5,112C 263.833,112.333 264.167,112.667 264.5,113C 263.552,113.483 262.552,113.649 261.5,113.5C 261.5,114.5 261.5,115.5 261.5,116.5C 259.167,116.5 256.833,116.5 254.5,116.5C 254.5,115.5 254.5,114.5 254.5,113.5C 249.5,113.5 244.5,113.5 239.5,113.5C 239.719,114.675 239.386,115.675 238.5,116.5C 235.923,114.102 232.923,112.435 229.5,111.5C 228.558,111.608 227.725,111.941 227,112.5C 228.025,115.329 226.859,116.662 223.5,116.5C 220.48,115.728 218.146,113.895 216.5,111C 215.207,110.51 213.873,110.343 212.5,110.5C 212.949,112.977 212.283,114.977 210.5,116.5C 209.167,112.5 207.833,112.5 206.5,116.5C 204.742,114.262 202.408,113.262 199.5,113.5C 198.833,117.5 198.167,117.5 197.5,113.5C 196.5,113.5 195.5,113.5 194.5,113.5C 193.833,117.5 193.167,117.5 192.5,113.5C 189.833,113.5 187.167,113.5 184.5,113.5C 183.996,117.335 182.996,117.335 181.5,113.5C 180.667,114.5 179.833,115.5 179,116.5C 176.899,115.385 174.733,115.385 172.5,116.5C 170.233,116.441 169.567,115.608 170.5,114C 168.866,113.506 167.199,113.34 165.5,113.5C 165.719,112.325 165.386,111.325 164.5,110.5C 163.012,112.149 162.012,114.149 161.5,116.5C 160.614,115.675 160.281,114.675 160.5,113.5C 158.857,113.52 157.524,112.853 156.5,111.5C 155.813,113.274 154.98,114.941 154,116.5C 153.517,115.552 153.351,114.552 153.5,113.5C 152.5,113.5 151.5,113.5 150.5,113.5C 150.333,116.957 149.333,117.29 147.5,114.5C 145.955,113.548 144.288,113.215 142.5,113.5C 141.996,109.665 140.996,109.665 139.5,113.5C 138.719,112.263 137.719,111.263 136.5,110.5C 135.833,112.5 135.167,114.5 134.5,116.5C 133.614,115.675 133.281,114.675 133.5,113.5C 132.5,113.5 131.5,113.5 130.5,113.5C 129.753,117.193 128.42,117.193 126.5,113.5C 125.004,117.335 124.004,117.335 123.5,113.5C 120.833,113.5 118.167,113.5 115.5,113.5C 115.506,116.548 114.506,117.048 112.5,115C 112.833,114.667 113.167,114.333 113.5,114C 112.552,113.517 111.552,113.351 110.5,113.5C 110.5,114.5 110.5,115.5 110.5,116.5C 107.722,116.978 105.722,115.978 104.5,113.5C 103.278,115.978 101.278,116.978 98.5,116.5C 98.2343,112.921 96.901,112.587 94.5,115.5C 93.4763,114.147 92.143,113.48 90.5,113.5C 90.719,112.325 90.3857,111.325 89.5,110.5C 88.8333,112.5 88.1667,114.5 87.5,116.5C 85.7826,115.332 85.1159,113.665 85.5,111.5C 77.6278,113.386 69.6278,113.886 61.5,113C 58.902,109.906 57.2353,110.072 56.5,113.5C 53.8333,113.5 51.1667,113.5 48.5,113.5C 48.5,114.5 48.5,115.5 48.5,116.5C 47.1667,116.5 45.8333,116.5 44.5,116.5C 44.5,115.5 44.5,114.5 44.5,113.5C 47.1083,107.702 50.775,102.536 55.5,98C 54.9056,97.5357 54.2389,97.369 53.5,97.5C 80.7876,63.2091 114.454,37.2091 154.5,19.5C 155.601,20.5983 156.934,20.765 158.5,20C 176.145,12.0651 194.645,6.8984 214,4.5C 215.376,4.31577 216.209,3.64911 216.5,2.5C 222.137,1.30333 227.804,0.30333 233.5,-0.5 Z"/></g>
<g><path style="opacity:1" fill="#cedf66" d="M 216.5,2.5 C 216.209,3.64911 215.376,4.31577 214,4.5C 194.645,6.8984 176.145,12.0651 158.5,20C 156.934,20.765 155.601,20.5983 154.5,19.5C 174.296,10.7173 194.963,5.05067 216.5,2.5 Z"/></g>
<g><path style="opacity:0.937" fill="#dbde72" d="M 352.5,18.5 C 364.845,22.8396 376.512,28.5062 387.5,35.5C 387.631,36.2389 387.464,36.9056 387,37.5C 381.75,34.4588 376.583,31.2921 371.5,28C 364.511,25.839 358.178,22.6723 352.5,18.5 Z"/></g>
<g><path style="opacity:0.914" fill="#dce475" d="M 414.5,54.5 C 427.151,64.1507 438.484,75.1507 448.5,87.5C 437.039,76.3689 425.706,65.3689 414.5,54.5 Z"/></g>
<g><path style="opacity:1" fill="#93c22e" d="M 461.5,103.5 C 473.767,119.015 483.767,136.015 491.5,154.5C 490.876,154.917 490.543,155.584 490.5,156.5C 491,158.5 491.5,160.5 492,162.5C 494.575,165.726 496.075,169.393 496.5,173.5C 497.178,178.992 496.011,179.659 493,175.5C 491.278,175.611 491.112,176.111 492.5,177C 491.552,177.483 490.552,177.649 489.5,177.5C 489.5,178.5 489.5,179.5 489.5,180.5C 488.5,180.5 487.5,180.5 486.5,180.5C 485.833,176.5 485.167,176.5 484.5,180.5C 483.5,180.5 482.5,180.5 481.5,180.5C 481.5,179.5 481.5,178.5 481.5,177.5C 478.91,177.396 476.577,178.063 474.5,179.5C 472.429,178.382 470.262,177.382 468,176.5C 466.234,177.233 464.401,177.567 462.5,177.5C 462.5,178.5 462.5,179.5 462.5,180.5C 461.5,180.5 460.5,180.5 459.5,180.5C 459.5,179.5 459.5,178.5 459.5,177.5C 455.564,178.671 451.564,179.671 447.5,180.5C 447.5,179.5 447.5,178.5 447.5,177.5C 444.833,176.167 442.167,176.167 439.5,177.5C 439.719,178.675 439.386,179.675 438.5,180.5C 437.548,178.955 437.215,177.288 437.5,175.5C 435.857,175.48 434.524,176.147 433.5,177.5C 432.784,176.689 431.95,176.022 431,175.5C 429.333,176.833 427.667,176.833 426,175.5C 420.543,176.761 415.377,178.428 410.5,180.5C 410.5,179.5 410.5,178.5 410.5,177.5C 406.167,177.5 401.833,177.5 397.5,177.5C 397.719,178.675 397.386,179.675 396.5,180.5C 394.833,179.167 393.167,179.167 391.5,180.5C 390.614,179.675 390.281,178.675 390.5,177.5C 388.179,177.229 386.179,177.896 384.5,179.5C 383.476,178.147 382.143,177.48 380.5,177.5C 380.719,178.675 380.386,179.675 379.5,180.5C 377.214,179.58 374.881,179.58 372.5,180.5C 371.833,176.5 371.167,176.5 370.5,180.5C 367.417,179.934 364.417,179.934 361.5,180.5C 360.614,179.675 360.281,178.675 360.5,177.5C 358.833,177.5 357.167,177.5 355.5,177.5C 355.5,178.5 355.5,179.5 355.5,180.5C 353.167,180.5 350.833,180.5 348.5,180.5C 348.5,179.5 348.5,178.5 348.5,177.5C 347.5,177.5 346.5,177.5 345.5,177.5C 345.5,178.5 345.5,179.5 345.5,180.5C 342.143,179.373 338.809,179.373 335.5,180.5C 335.5,179.5 335.5,178.5 335.5,177.5C 328.167,177.5 320.833,177.5 313.5,177.5C 314.237,175.695 315.237,174.029 316.5,172.5C 316.023,171.522 315.357,170.689 314.5,170C 305.852,165.851 297.185,162.017 288.5,158.5C 295.667,148.833 302.833,139.167 310,129.5C 311.5,121.667 308.333,118.5 300.5,120C 291.308,131.691 282.308,143.525 273.5,155.5C 264.91,155.501 256.244,155.668 247.5,156C 244.776,156.27 242.109,156.77 239.5,157.5C 230.055,144.881 220.389,132.381 210.5,120C 203.22,118.281 200.053,121.115 201,128.5C 208.589,139.344 216.422,150.011 224.5,160.5C 214.834,163.5 205.834,167.834 197.5,173.5C 198.763,175.029 199.763,176.695 200.5,178.5C 194.516,176.999 188.516,176.665 182.5,177.5C 181.833,181.5 181.167,181.5 180.5,177.5C 179.5,177.5 178.5,177.5 177.5,177.5C 176.833,181.5 176.167,181.5 175.5,177.5C 172.833,177.5 170.167,177.5 167.5,177.5C 167.5,178.5 167.5,179.5 167.5,180.5C 165.833,180.5 164.167,180.5 162.5,180.5C 161.833,176.5 161.167,176.5 160.5,180.5C 159.5,180.5 158.5,180.5 157.5,180.5C 157.5,179.5 157.5,178.5 157.5,177.5C 152.5,177.5 147.5,177.5 142.5,177.5C 141.833,181.5 141.167,181.5 140.5,177.5C 136.927,177.041 133.927,178.041 131.5,180.5C 130.614,179.675 130.281,178.675 130.5,177.5C 126.5,177.5 122.5,177.5 118.5,177.5C 118.5,178.5 118.5,179.5 118.5,180.5C 116.25,180.819 114.25,180.319 112.5,179C 116.095,176.413 115.428,175.913 110.5,177.5C 108.367,175.136 106.367,175.136 104.5,177.5C 103.476,176.147 102.143,175.48 100.5,175.5C 100.712,180.443 99.7124,181.11 97.5,177.5C 96.7303,179.272 95.3969,180.272 93.5,180.5C 90.8879,178.518 87.8879,177.185 84.5,176.5C 76.8899,177.467 69.2233,177.8 61.5,177.5C 61.5,178.5 61.5,179.5 61.5,180.5C 60.5,180.5 59.5,180.5 58.5,180.5C 58.5,179.5 58.5,178.5 58.5,177.5C 55.3136,178.771 51.9803,179.771 48.5,180.5C 48.5,179.5 48.5,178.5 48.5,177.5C 41.1667,177.5 33.8333,177.5 26.5,177.5C 25.8333,181.5 25.1667,181.5 24.5,177.5C 21.1501,177.665 17.8168,177.498 14.5,177C 15.4107,169.363 17.744,162.196 21.5,155.5C 21.0431,154.702 20.3764,154.369 19.5,154.5C 19.5,153.833 19.8333,153.5 20.5,153.5C 21.3764,153.631 22.0431,153.298 22.5,152.5C 28.3636,138.472 35.697,125.472 44.5,113.5C 44.5,114.5 44.5,115.5 44.5,116.5C 45.8333,116.5 47.1667,116.5 48.5,116.5C 48.5,115.5 48.5,114.5 48.5,113.5C 51.1667,113.5 53.8333,113.5 56.5,113.5C 57.2353,110.072 58.902,109.906 61.5,113C 69.6278,113.886 77.6278,113.386 85.5,111.5C 85.1159,113.665 85.7826,115.332 87.5,116.5C 88.1667,114.5 88.8333,112.5 89.5,110.5C 90.3857,111.325 90.719,112.325 90.5,113.5C 92.143,113.48 93.4763,114.147 94.5,115.5C 96.901,112.587 98.2343,112.921 98.5,116.5C 101.278,116.978 103.278,115.978 104.5,113.5C 105.722,115.978 107.722,116.978 110.5,116.5C 110.5,115.5 110.5,114.5 110.5,113.5C 111.552,113.351 112.552,113.517 113.5,114C 113.167,114.333 112.833,114.667 112.5,115C 114.506,117.048 115.506,116.548 115.5,113.5C 118.167,113.5 120.833,113.5 123.5,113.5C 124.004,117.335 125.004,117.335 126.5,113.5C 128.42,117.193 129.753,117.193 130.5,113.5C 131.5,113.5 132.5,113.5 133.5,113.5C 133.281,114.675 133.614,115.675 134.5,116.5C 135.167,114.5 135.833,112.5 136.5,110.5C 137.719,111.263 138.719,112.263 139.5,113.5C 140.996,109.665 141.996,109.665 142.5,113.5C 144.288,113.215 145.955,113.548 147.5,114.5C 149.333,117.29 150.333,116.957 150.5,113.5C 151.5,113.5 152.5,113.5 153.5,113.5C 153.351,114.552 153.517,115.552 154,116.5C 154.98,114.941 155.813,113.274 156.5,111.5C 157.524,112.853 158.857,113.52 160.5,113.5C 160.281,114.675 160.614,115.675 161.5,116.5C 162.012,114.149 163.012,112.149 164.5,110.5C 165.386,111.325 165.719,112.325 165.5,113.5C 167.199,113.34 168.866,113.506 170.5,114C 169.567,115.608 170.233,116.441 172.5,116.5C 174.733,115.385 176.899,115.385 179,116.5C 179.833,115.5 180.667,114.5 181.5,113.5C 182.996,117.335 183.996,117.335 184.5,113.5C 187.167,113.5 189.833,113.5 192.5,113.5C 193.167,117.5 193.833,117.5 194.5,113.5C 195.5,113.5 196.5,113.5 197.5,113.5C 198.167,117.5 198.833,117.5 199.5,113.5C 202.408,113.262 204.742,114.262 206.5,116.5C 207.833,112.5 209.167,112.5 210.5,116.5C 212.283,114.977 212.949,112.977 212.5,110.5C 213.873,110.343 215.207,110.51 216.5,111C 218.146,113.895 220.48,115.728 223.5,116.5C 226.859,116.662 228.025,115.329 227,112.5C 227.725,111.941 228.558,111.608 229.5,111.5C 232.923,112.435 235.923,114.102 238.5,116.5C 239.386,115.675 239.719,114.675 239.5,113.5C 244.5,113.5 249.5,113.5 254.5,113.5C 254.5,114.5 254.5,115.5 254.5,116.5C 256.833,116.5 259.167,116.5 261.5,116.5C 261.5,115.5 261.5,114.5 261.5,113.5C 262.552,113.649 263.552,113.483 264.5,113C 264.167,112.667 263.833,112.333 263.5,112C 265.506,109.952 266.506,110.452 266.5,113.5C 269.167,113.5 271.833,113.5 274.5,113.5C 274.329,110.203 274.995,109.869 276.5,112.5C 284.807,113.498 293.14,113.831 301.5,113.5C 301.5,114.5 301.5,115.5 301.5,116.5C 304.622,116.186 307.455,115.186 310,113.5C 312.545,115.186 315.378,116.186 318.5,116.5C 318.201,114.396 318.534,112.396 319.5,110.5C 320.386,111.325 320.719,112.325 320.5,113.5C 322.5,113.5 324.5,113.5 326.5,113.5C 326.281,112.325 326.614,111.325 327.5,110.5C 328.167,112.5 328.833,114.5 329.5,116.5C 330.386,115.675 330.719,114.675 330.5,113.5C 334.673,114.044 338.506,113.377 342,111.5C 343.789,113.229 345.956,113.896 348.5,113.5C 348.5,112.5 348.5,111.5 348.5,110.5C 350.167,110.5 351.833,110.5 353.5,110.5C 353.5,111.5 353.5,112.5 353.5,113.5C 358.5,113.5 363.5,113.5 368.5,113.5C 368.351,112.448 368.517,111.448 369,110.5C 370.017,112.376 370.851,114.376 371.5,116.5C 372.386,115.675 372.719,114.675 372.5,113.5C 381.833,113.5 391.167,113.5 400.5,113.5C 400.5,114.5 400.5,115.5 400.5,116.5C 403.278,116.978 405.278,115.978 406.5,113.5C 408.42,117.193 409.753,117.193 410.5,113.5C 413.049,113.441 415.049,114.441 416.5,116.5C 417.167,114.5 417.833,112.5 418.5,110.5C 419.5,110.833 420.167,111.5 420.5,112.5C 426.128,113.495 431.794,113.829 437.5,113.5C 437.5,114.5 437.5,115.5 437.5,116.5C 440.278,116.978 442.278,115.978 443.5,113.5C 444.722,115.978 446.722,116.978 449.5,116.5C 449.5,115.5 449.5,114.5 449.5,113.5C 451.167,113.5 452.833,113.5 454.5,113.5C 454.5,114.5 454.5,115.5 454.5,116.5C 456.167,116.5 457.833,116.5 459.5,116.5C 459.5,115.5 459.5,114.5 459.5,113.5C 460.5,113.5 461.5,113.5 462.5,113.5C 462.281,114.675 462.614,115.675 463.5,116.5C 464.356,113.861 464.19,111.194 463,108.5C 460.676,107.225 460.176,105.558 461.5,103.5 Z"/></g>
<g><path style="opacity:1" fill="#cfdb68" d="M 53.5,97.5 C 54.2389,97.369 54.9056,97.5357 55.5,98C 50.775,102.536 47.1083,107.702 44.5,113.5C 35.697,125.472 28.3636,138.472 22.5,152.5C 22.0431,153.298 21.3764,153.631 20.5,153.5C 28.9544,133.246 39.9544,114.58 53.5,97.5 Z"/></g>
<g><path style="opacity:1" fill="#fdfefc" d="M 313.5,177.5 C 291.072,204.863 263.072,212.696 229.5,201C 218.193,195.516 208.527,188.016 200.5,178.5C 199.763,176.695 198.763,175.029 197.5,173.5C 205.834,167.834 214.834,163.5 224.5,160.5C 216.422,150.011 208.589,139.344 201,128.5C 200.053,121.115 203.22,118.281 210.5,120C 220.389,132.381 230.055,144.881 239.5,157.5C 242.109,156.77 244.776,156.27 247.5,156C 256.244,155.668 264.91,155.501 273.5,155.5C 282.308,143.525 291.308,131.691 300.5,120C 308.333,118.5 311.5,121.667 310,129.5C 302.833,139.167 295.667,148.833 288.5,158.5C 297.185,162.017 305.852,165.851 314.5,170C 315.357,170.689 316.023,171.522 316.5,172.5C 315.237,174.029 314.237,175.695 313.5,177.5 Z"/></g>
<g><path style="opacity:1" fill="#98c32f" d="M 19.5,154.5 C 20.3764,154.369 21.0431,154.702 21.5,155.5C 17.744,162.196 15.4107,169.363 14.5,177C 17.8168,177.498 21.1501,177.665 24.5,177.5C 25.1667,181.5 25.8333,181.5 26.5,177.5C 33.8333,177.5 41.1667,177.5 48.5,177.5C 48.5,178.5 48.5,179.5 48.5,180.5C 51.9803,179.771 55.3136,178.771 58.5,177.5C 58.5,178.5 58.5,179.5 58.5,180.5C 59.5,180.5 60.5,180.5 61.5,180.5C 61.5,179.5 61.5,178.5 61.5,177.5C 69.2233,177.8 76.8899,177.467 84.5,176.5C 87.8879,177.185 90.8879,178.518 93.5,180.5C 95.3969,180.272 96.7303,179.272 97.5,177.5C 99.7124,181.11 100.712,180.443 100.5,175.5C 102.143,175.48 103.476,176.147 104.5,177.5C 106.367,175.136 108.367,175.136 110.5,177.5C 115.428,175.913 116.095,176.413 112.5,179C 114.25,180.319 116.25,180.819 118.5,180.5C 118.5,179.5 118.5,178.5 118.5,177.5C 122.5,177.5 126.5,177.5 130.5,177.5C 130.281,178.675 130.614,179.675 131.5,180.5C 133.927,178.041 136.927,177.041 140.5,177.5C 141.167,181.5 141.833,181.5 142.5,177.5C 147.5,177.5 152.5,177.5 157.5,177.5C 157.5,178.5 157.5,179.5 157.5,180.5C 158.5,180.5 159.5,180.5 160.5,180.5C 161.167,176.5 161.833,176.5 162.5,180.5C 164.167,180.5 165.833,180.5 167.5,180.5C 167.5,179.5 167.5,178.5 167.5,177.5C 170.167,177.5 172.833,177.5 175.5,177.5C 176.167,181.5 176.833,181.5 177.5,177.5C 178.5,177.5 179.5,177.5 180.5,177.5C 181.167,181.5 181.833,181.5 182.5,177.5C 188.516,176.665 194.516,176.999 200.5,178.5C 208.527,188.016 218.193,195.516 229.5,201C 263.072,212.696 291.072,204.863 313.5,177.5C 320.833,177.5 328.167,177.5 335.5,177.5C 335.5,178.5 335.5,179.5 335.5,180.5C 338.809,179.373 342.143,179.373 345.5,180.5C 345.5,179.5 345.5,178.5 345.5,177.5C 346.5,177.5 347.5,177.5 348.5,177.5C 348.5,178.5 348.5,179.5 348.5,180.5C 350.833,180.5 353.167,180.5 355.5,180.5C 355.5,179.5 355.5,178.5 355.5,177.5C 357.167,177.5 358.833,177.5 360.5,177.5C 360.281,178.675 360.614,179.675 361.5,180.5C 364.417,179.934 367.417,179.934 370.5,180.5C 371.167,176.5 371.833,176.5 372.5,180.5C 374.881,179.58 377.214,179.58 379.5,180.5C 380.386,179.675 380.719,178.675 380.5,177.5C 382.143,177.48 383.476,178.147 384.5,179.5C 386.179,177.896 388.179,177.229 390.5,177.5C 390.281,178.675 390.614,179.675 391.5,180.5C 393.167,179.167 394.833,179.167 396.5,180.5C 397.386,179.675 397.719,178.675 397.5,177.5C 401.833,177.5 406.167,177.5 410.5,177.5C 410.5,178.5 410.5,179.5 410.5,180.5C 415.377,178.428 420.543,176.761 426,175.5C 427.667,176.833 429.333,176.833 431,175.5C 431.95,176.022 432.784,176.689 433.5,177.5C 434.524,176.147 435.857,175.48 437.5,175.5C 437.215,177.288 437.548,178.955 438.5,180.5C 439.386,179.675 439.719,178.675 439.5,177.5C 442.167,176.167 444.833,176.167 447.5,177.5C 447.5,178.5 447.5,179.5 447.5,180.5C 451.564,179.671 455.564,178.671 459.5,177.5C 459.5,178.5 459.5,179.5 459.5,180.5C 460.5,180.5 461.5,180.5 462.5,180.5C 462.5,179.5 462.5,178.5 462.5,177.5C 464.401,177.567 466.234,177.233 468,176.5C 470.262,177.382 472.429,178.382 474.5,179.5C 476.577,178.063 478.91,177.396 481.5,177.5C 481.5,178.5 481.5,179.5 481.5,180.5C 482.5,180.5 483.5,180.5 484.5,180.5C 485.167,176.5 485.833,176.5 486.5,180.5C 487.5,180.5 488.5,180.5 489.5,180.5C 489.5,179.5 489.5,178.5 489.5,177.5C 490.552,177.649 491.552,177.483 492.5,177C 491.112,176.111 491.278,175.611 493,175.5C 496.011,179.659 497.178,178.992 496.5,173.5C 507.444,203.098 511.61,233.764 509,265.5C 508.753,271.882 508.253,278.215 507.5,284.5C 506.215,285.785 504.881,287.119 503.5,288.5C 501.49,286.829 499.157,286.162 496.5,286.5C 495.833,290.5 495.167,290.5 494.5,286.5C 487.861,285.828 481.528,286.828 475.5,289.5C 473.668,288.752 472.001,287.752 470.5,286.5C 469.833,287.5 469.167,288.5 468.5,289.5C 465.477,286.113 462.143,285.78 458.5,288.5C 455.101,286.688 451.434,286.021 447.5,286.5C 447.5,287.5 447.5,288.5 447.5,289.5C 446.5,289.5 445.5,289.5 444.5,289.5C 444.5,288.5 444.5,287.5 444.5,286.5C 438.152,285.973 431.985,286.639 426,288.5C 419.311,286.29 412.478,285.957 405.5,287.5C 403.813,290.11 402.479,289.777 401.5,286.5C 399.58,290.193 398.247,290.193 397.5,286.5C 395.833,286.5 394.167,286.5 392.5,286.5C 391.833,290.5 391.167,290.5 390.5,286.5C 388.723,286.786 387.056,287.453 385.5,288.5C 381.589,287.002 377.589,286.002 373.5,285.5C 377.275,244.959 364.109,211.293 334,184.5C 323.56,199.608 310.06,211.108 293.5,219C 287.859,220.988 282.359,223.154 277,225.5C 267.959,247.617 264.459,270.617 266.5,294.5C 266.013,291.507 264.679,288.84 262.5,286.5C 261.004,290.335 260.004,290.335 259.5,286.5C 255.833,286.5 252.167,286.5 248.5,286.5C 248.825,278.648 248.492,270.982 247.5,263.5C 245.585,250.518 242.085,237.851 237,225.5C 213.293,219.113 194.627,205.779 181,185.5C 151.819,212.868 139.319,246.534 143.5,286.5C 141.161,286.007 138.828,286.674 136.5,288.5C 135.833,287.833 135.167,287.167 134.5,286.5C 132.535,290.215 130.202,290.382 127.5,287C 125.167,286.833 122.833,286.667 120.5,286.5C 116.743,287.037 113.076,287.037 109.5,286.5C 108.521,289.777 107.187,290.11 105.5,287.5C 103.955,286.548 102.288,286.215 100.5,286.5C 99.8333,290.5 99.1667,290.5 98.5,286.5C 91.1365,286.169 83.8032,286.503 76.5,287.5C 74.6672,290.29 73.6672,289.957 73.5,286.5C 66.1667,286.5 58.8333,286.5 51.5,286.5C 51.719,287.675 51.3857,288.675 50.5,289.5C 48.1991,286.01 45.5325,285.677 42.5,288.5C 40.1667,285.833 37.8333,285.833 35.5,288.5C 34.5,287.833 33.5,287.167 32.5,286.5C 31.0035,290.335 30.0035,290.335 29.5,286.5C 23.9333,285.954 18.6,286.621 13.5,288.5C 10.2332,287.305 7.06653,285.972 4,284.5C 3.00707,280.558 2.34041,276.558 2,272.5C 1.33333,256.5 1.33333,240.5 2,224.5C 2.84469,220.819 3.67802,217.153 4.5,213.5C 4.48916,211.955 4.15583,210.622 3.5,209.5C 6.40722,190.447 11.7405,172.113 19.5,154.5 Z"/></g>
<g><path style="opacity:1" fill="#fefefe" d="M 373.5,285.5 C 366.345,327.137 343.845,357.137 306,375.5C 289.001,359.195 277.334,339.529 271,316.5C 269.281,309.069 267.781,301.735 266.5,294.5C 264.459,270.617 267.959,247.617 277,225.5C 282.359,223.154 287.859,220.988 293.5,219C 310.06,211.108 323.56,199.608 334,184.5C 364.109,211.293 377.275,244.959 373.5,285.5 Z"/></g>
<g><path style="opacity:1" fill="#fefefd" d="M 247.5,263.5 C 250.745,300.942 241.245,334.609 219,364.5C 216.101,368.326 212.768,371.659 209,374.5C 172.441,356.11 150.607,326.777 143.5,286.5C 139.319,246.534 151.819,212.868 181,185.5C 194.627,205.779 213.293,219.113 237,225.5C 242.085,237.851 245.585,250.518 247.5,263.5 Z"/></g>
<g><path style="opacity:1" fill="#cedb65" d="M 491.5,154.5 C 502.11,179.94 508.776,206.273 511.5,233.5C 511.5,248.167 511.5,262.833 511.5,277.5C 507.396,320.145 493.729,359.479 470.5,395.5C 469.903,395.265 469.57,394.765 469.5,394C 470.414,392.594 471.08,391.094 471.5,389.5C 476.407,382.026 481.074,374.359 485.5,366.5C 487.903,361.025 489.736,355.359 491,349.5C 492.521,346.388 494.187,343.388 496,340.5C 502.106,322.344 505.94,303.677 507.5,284.5C 508.253,278.215 508.753,271.882 509,265.5C 511.61,233.764 507.444,203.098 496.5,173.5C 496.075,169.393 494.575,165.726 492,162.5C 491.5,160.5 491,158.5 490.5,156.5C 490.543,155.584 490.876,154.917 491.5,154.5 Z"/></g>
<g><path style="opacity:1" fill="#a1c531" d="M 3.5,209.5 C 4.15583,210.622 4.48916,211.955 4.5,213.5C 3.67802,217.153 2.84469,220.819 2,224.5C 1.33333,240.5 1.33333,256.5 2,272.5C 2.34041,276.558 3.00707,280.558 4,284.5C 7.06653,285.972 10.2332,287.305 13.5,288.5C 18.6,286.621 23.9333,285.954 29.5,286.5C 30.0035,290.335 31.0035,290.335 32.5,286.5C 33.5,287.167 34.5,287.833 35.5,288.5C 37.8333,285.833 40.1667,285.833 42.5,288.5C 45.5325,285.677 48.1991,286.01 50.5,289.5C 51.3857,288.675 51.719,287.675 51.5,286.5C 58.8333,286.5 66.1667,286.5 73.5,286.5C 73.6672,289.957 74.6672,290.29 76.5,287.5C 83.8032,286.503 91.1365,286.169 98.5,286.5C 99.1667,290.5 99.8333,290.5 100.5,286.5C 102.288,286.215 103.955,286.548 105.5,287.5C 107.187,290.11 108.521,289.777 109.5,286.5C 113.076,287.037 116.743,287.037 120.5,286.5C 122.833,286.667 125.167,286.833 127.5,287C 130.202,290.382 132.535,290.215 134.5,286.5C 135.167,287.167 135.833,287.833 136.5,288.5C 138.828,286.674 141.161,286.007 143.5,286.5C 150.607,326.777 172.441,356.11 209,374.5C 212.768,371.659 216.101,368.326 219,364.5C 241.245,334.609 250.745,300.942 247.5,263.5C 248.492,270.982 248.825,278.648 248.5,286.5C 252.167,286.5 255.833,286.5 259.5,286.5C 260.004,290.335 261.004,290.335 262.5,286.5C 264.679,288.84 266.013,291.507 266.5,294.5C 267.781,301.735 269.281,309.069 271,316.5C 277.334,339.529 289.001,359.195 306,375.5C 343.845,357.137 366.345,327.137 373.5,285.5C 377.589,286.002 381.589,287.002 385.5,288.5C 387.056,287.453 388.723,286.786 390.5,286.5C 391.167,290.5 391.833,290.5 392.5,286.5C 394.167,286.5 395.833,286.5 397.5,286.5C 398.247,290.193 399.58,290.193 401.5,286.5C 402.479,289.777 403.813,290.11 405.5,287.5C 412.478,285.957 419.311,286.29 426,288.5C 431.985,286.639 438.152,285.973 444.5,286.5C 444.5,287.5 444.5,288.5 444.5,289.5C 445.5,289.5 446.5,289.5 447.5,289.5C 447.5,288.5 447.5,287.5 447.5,286.5C 451.434,286.021 455.101,286.688 458.5,288.5C 462.143,285.78 465.477,286.113 468.5,289.5C 469.167,288.5 469.833,287.5 470.5,286.5C 472.001,287.752 473.668,288.752 475.5,289.5C 481.528,286.828 487.861,285.828 494.5,286.5C 495.167,290.5 495.833,290.5 496.5,286.5C 499.157,286.162 501.49,286.829 503.5,288.5C 504.881,287.119 506.215,285.785 507.5,284.5C 505.94,303.677 502.106,322.344 496,340.5C 494.187,343.388 492.521,346.388 491,349.5C 489.736,355.359 487.903,361.025 485.5,366.5C 481.074,374.359 476.407,382.026 471.5,389.5C 466.255,388.044 461.088,388.378 456,390.5C 452.39,388.958 448.556,388.292 444.5,388.5C 444.719,389.675 444.386,390.675 443.5,391.5C 440.21,390.385 436.877,389.385 433.5,388.5C 431.616,388.716 429.949,389.383 428.5,390.5C 427.784,389.689 426.95,389.022 426,388.5C 423.598,389.149 421.098,389.149 418.5,388.5C 416.616,388.716 414.949,389.383 413.5,390.5C 412.833,389.833 412.167,389.167 411.5,388.5C 409.234,392.175 406.734,392.175 404,388.5C 400.319,391.038 396.653,391.038 393,388.5C 391.333,389.167 389.667,389.833 388,390.5C 382.186,387.996 376.352,387.996 370.5,390.5C 369.259,389.963 368.092,389.296 367,388.5C 365.78,389.388 364.447,390.055 363,390.5C 355.898,389.523 348.565,388.856 341,388.5C 333.901,388.318 326.901,388.985 320,390.5C 317.22,387.913 314.72,388.247 312.5,391.5C 311.614,390.675 311.281,389.675 311.5,388.5C 307.24,388.898 303.073,388.898 299,388.5C 295.934,390.947 292.934,390.947 290,388.5C 288.441,389.029 286.941,389.696 285.5,390.5C 284.784,389.689 283.95,389.022 283,388.5C 279.255,389.894 275.422,390.894 271.5,391.5C 271.351,387.877 270.184,387.543 268,390.5C 266.089,387.977 264.255,387.977 262.5,390.5C 260.596,386.556 259.596,386.89 259.5,391.5C 258.5,391.5 257.5,391.5 256.5,391.5C 256.719,390.325 256.386,389.325 255.5,388.5C 254.532,389.489 253.365,390.156 252,390.5C 248.076,387.882 244.243,387.882 240.5,390.5C 238.833,387.833 237.167,387.833 235.5,390.5C 230.233,387.917 224.899,387.917 219.5,390.5C 217.367,388.136 215.367,388.136 213.5,390.5C 212.532,389.511 211.365,388.844 210,388.5C 206.551,389.312 203.051,389.312 199.5,388.5C 197.048,388.79 194.715,389.456 192.5,390.5C 191.259,389.963 190.092,389.296 189,388.5C 186.017,389.707 183.017,389.707 180,388.5C 178.333,389.167 176.667,389.833 175,390.5C 172.953,389.455 170.953,389.455 169,390.5C 168.05,389.978 167.216,389.311 166.5,388.5C 165.784,389.311 164.95,389.978 164,390.5C 162.079,388.997 159.912,388.331 157.5,388.5C 156.833,392.5 156.167,392.5 155.5,388.5C 149.937,388.946 144.437,388.946 139,388.5C 134,391.167 129,391.167 124,388.5C 121.667,389.167 119.333,389.833 117,390.5C 114.966,390.646 113.299,389.98 112,388.5C 107.625,389.184 103.125,389.184 98.5,388.5C 96.9446,388.722 95.6113,389.389 94.5,390.5C 92.3766,389.306 90.0432,388.64 87.5,388.5C 83.6022,389.15 79.7689,389.15 76,388.5C 74.3333,389.167 72.6667,389.833 71,390.5C 66.412,388 61.912,388 57.5,390.5C 55.8333,387.833 54.1667,387.833 52.5,390.5C 47.69,388.951 42.69,387.951 37.5,387.5C 33.5824,379.995 29.4157,372.662 25,365.5C 24.6012,365.728 24.4346,366.062 24.5,366.5C 10.7136,338.353 2.38028,308.686 -0.5,277.5C -0.5,262.833 -0.5,248.167 -0.5,233.5C 0.55352,225.46 1.88685,217.46 3.5,209.5 Z"/></g>
<g><path style="opacity:1" fill="#a6c732" d="M 471.5,389.5 C 471.08,391.094 470.414,392.594 469.5,394C 469.57,394.765 469.903,395.265 470.5,395.5C 465.219,403.448 459.552,411.115 453.5,418.5C 452.883,418.389 452.383,418.056 452,417.5C 445.634,424.697 439.134,431.697 432.5,438.5C 429.39,437.198 426.39,437.531 423.5,439.5C 420.167,436.833 416.833,436.833 413.5,439.5C 411.167,436.833 408.833,436.833 406.5,439.5C 403.788,437.74 400.788,437.073 397.5,437.5C 396.833,441.5 396.167,441.5 395.5,437.5C 382.367,437.828 369.367,437.828 356.5,437.5C 355.004,441.335 354.004,441.335 353.5,437.5C 350.833,437.5 348.167,437.5 345.5,437.5C 344.996,441.335 343.996,441.335 342.5,437.5C 329.251,437.729 315.918,437.729 302.5,437.5C 301.757,438.908 300.923,440.241 300,441.5C 297.521,438.907 295.021,438.907 292.5,441.5C 291.571,440.311 291.238,438.978 291.5,437.5C 289.723,437.786 288.056,438.453 286.5,439.5C 284.945,439.278 283.611,438.611 282.5,437.5C 281.614,438.325 281.281,439.325 281.5,440.5C 279.833,440.5 278.167,440.5 276.5,440.5C 276.5,439.5 276.5,438.5 276.5,437.5C 274.179,437.229 272.179,437.896 270.5,439.5C 267.531,438.262 264.364,437.595 261,437.5C 258.167,437.667 255.333,437.833 252.5,438C 251.975,438.692 251.308,439.192 250.5,439.5C 248.715,438.337 246.715,437.67 244.5,437.5C 237.893,437.954 231.227,437.954 224.5,437.5C 224.762,438.978 224.429,440.311 223.5,441.5C 222.5,440.167 221.5,438.833 220.5,437.5C 219.106,439.984 217.606,439.984 216,437.5C 215.05,438.022 214.216,438.689 213.5,439.5C 210.667,438.067 207.667,437.4 204.5,437.5C 203.833,442.833 203.167,442.833 202.5,437.5C 199.843,437.162 197.51,437.829 195.5,439.5C 194.672,438.585 193.672,437.919 192.5,437.5C 188.832,441.124 184.832,441.29 180.5,438C 177.5,437.833 174.5,437.667 171.5,437.5C 167.972,437.589 164.638,438.256 161.5,439.5C 159.132,437.777 156.466,437.11 153.5,437.5C 153.778,439.346 153.111,440.68 151.5,441.5C 150.571,440.311 150.238,438.978 150.5,437.5C 148.857,437.48 147.524,438.147 146.5,439.5C 142.857,436.78 139.523,437.113 136.5,440.5C 133.427,439.602 130.427,438.602 127.5,437.5C 127.671,440.797 127.005,441.131 125.5,438.5C 116.518,437.335 107.518,437.168 98.5,438C 97.1279,438.402 95.7946,438.902 94.5,439.5C 92.8211,437.896 90.8211,437.229 88.5,437.5C 88.719,438.675 88.3857,439.675 87.5,440.5C 82.2863,438.984 77.953,436.151 74.5,432C 72.913,431.138 71.2464,430.471 69.5,430C 64.9199,424.256 59.9199,419.089 54.5,414.5C 42.5009,399.854 32.5009,383.854 24.5,366.5C 24.4346,366.062 24.6012,365.728 25,365.5C 29.4157,372.662 33.5824,379.995 37.5,387.5C 42.69,387.951 47.69,388.951 52.5,390.5C 54.1667,387.833 55.8333,387.833 57.5,390.5C 61.912,388 66.412,388 71,390.5C 72.6667,389.833 74.3333,389.167 76,388.5C 79.7689,389.15 83.6022,389.15 87.5,388.5C 90.0432,388.64 92.3766,389.306 94.5,390.5C 95.6113,389.389 96.9446,388.722 98.5,388.5C 103.125,389.184 107.625,389.184 112,388.5C 113.299,389.98 114.966,390.646 117,390.5C 119.333,389.833 121.667,389.167 124,388.5C 129,391.167 134,391.167 139,388.5C 144.437,388.946 149.937,388.946 155.5,388.5C 156.167,392.5 156.833,392.5 157.5,388.5C 159.912,388.331 162.079,388.997 164,390.5C 164.95,389.978 165.784,389.311 166.5,388.5C 167.216,389.311 168.05,389.978 169,390.5C 170.953,389.455 172.953,389.455 175,390.5C 176.667,389.833 178.333,389.167 180,388.5C 183.017,389.707 186.017,389.707 189,388.5C 190.092,389.296 191.259,389.963 192.5,390.5C 194.715,389.456 197.048,388.79 199.5,388.5C 203.051,389.312 206.551,389.312 210,388.5C 211.365,388.844 212.532,389.511 213.5,390.5C 215.367,388.136 217.367,388.136 219.5,390.5C 224.899,387.917 230.233,387.917 235.5,390.5C 237.167,387.833 238.833,387.833 240.5,390.5C 244.243,387.882 248.076,387.882 252,390.5C 253.365,390.156 254.532,389.489 255.5,388.5C 256.386,389.325 256.719,390.325 256.5,391.5C 257.5,391.5 258.5,391.5 259.5,391.5C 259.596,386.89 260.596,386.556 262.5,390.5C 264.255,387.977 266.089,387.977 268,390.5C 270.184,387.543 271.351,387.877 271.5,391.5C 275.422,390.894 279.255,389.894 283,388.5C 283.95,389.022 284.784,389.689 285.5,390.5C 286.941,389.696 288.441,389.029 290,388.5C 292.934,390.947 295.934,390.947 299,388.5C 303.073,388.898 307.24,388.898 311.5,388.5C 311.281,389.675 311.614,390.675 312.5,391.5C 314.72,388.247 317.22,387.913 320,390.5C 326.901,388.985 333.901,388.318 341,388.5C 348.565,388.856 355.898,389.523 363,390.5C 364.447,390.055 365.78,389.388 367,388.5C 368.092,389.296 369.259,389.963 370.5,390.5C 376.352,387.996 382.186,387.996 388,390.5C 389.667,389.833 391.333,389.167 393,388.5C 396.653,391.038 400.319,391.038 404,388.5C 406.734,392.175 409.234,392.175 411.5,388.5C 412.167,389.167 412.833,389.833 413.5,390.5C 414.949,389.383 416.616,388.716 418.5,388.5C 421.098,389.149 423.598,389.149 426,388.5C 426.95,389.022 427.784,389.689 428.5,390.5C 429.949,389.383 431.616,388.716 433.5,388.5C 436.877,389.385 440.21,390.385 443.5,391.5C 444.386,390.675 444.719,389.675 444.5,388.5C 448.556,388.292 452.39,388.958 456,390.5C 461.088,388.378 466.255,388.044 471.5,389.5 Z"/></g>
<g><path style="opacity:1" fill="#abc834" d="M 54.5,414.5 C 59.9199,419.089 64.9199,424.256 69.5,430C 71.2464,430.471 72.913,431.138 74.5,432C 77.953,436.151 82.2863,438.984 87.5,440.5C 88.3857,439.675 88.719,438.675 88.5,437.5C 90.8211,437.229 92.8211,437.896 94.5,439.5C 95.7946,438.902 97.1279,438.402 98.5,438C 107.518,437.168 116.518,437.335 125.5,438.5C 127.005,441.131 127.671,440.797 127.5,437.5C 130.427,438.602 133.427,439.602 136.5,440.5C 139.523,437.113 142.857,436.78 146.5,439.5C 147.524,438.147 148.857,437.48 150.5,437.5C 150.238,438.978 150.571,440.311 151.5,441.5C 153.111,440.68 153.778,439.346 153.5,437.5C 156.466,437.11 159.132,437.777 161.5,439.5C 164.638,438.256 167.972,437.589 171.5,437.5C 174.5,437.667 177.5,437.833 180.5,438C 184.832,441.29 188.832,441.124 192.5,437.5C 193.672,437.919 194.672,438.585 195.5,439.5C 197.51,437.829 199.843,437.162 202.5,437.5C 203.167,442.833 203.833,442.833 204.5,437.5C 207.667,437.4 210.667,438.067 213.5,439.5C 214.216,438.689 215.05,438.022 216,437.5C 217.606,439.984 219.106,439.984 220.5,437.5C 221.5,438.833 222.5,440.167 223.5,441.5C 224.429,440.311 224.762,438.978 224.5,437.5C 231.227,437.954 237.893,437.954 244.5,437.5C 246.715,437.67 248.715,438.337 250.5,439.5C 251.308,439.192 251.975,438.692 252.5,438C 255.333,437.833 258.167,437.667 261,437.5C 264.364,437.595 267.531,438.262 270.5,439.5C 272.179,437.896 274.179,437.229 276.5,437.5C 276.5,438.5 276.5,439.5 276.5,440.5C 278.167,440.5 279.833,440.5 281.5,440.5C 281.281,439.325 281.614,438.325 282.5,437.5C 283.611,438.611 284.945,439.278 286.5,439.5C 288.056,438.453 289.723,437.786 291.5,437.5C 291.238,438.978 291.571,440.311 292.5,441.5C 295.021,438.907 297.521,438.907 300,441.5C 300.923,440.241 301.757,438.908 302.5,437.5C 315.918,437.729 329.251,437.729 342.5,437.5C 343.996,441.335 344.996,441.335 345.5,437.5C 348.167,437.5 350.833,437.5 353.5,437.5C 354.004,441.335 355.004,441.335 356.5,437.5C 369.367,437.828 382.367,437.828 395.5,437.5C 396.167,441.5 396.833,441.5 397.5,437.5C 400.788,437.073 403.788,437.74 406.5,439.5C 408.833,436.833 411.167,436.833 413.5,439.5C 416.833,436.833 420.167,436.833 423.5,439.5C 426.39,437.531 429.39,437.198 432.5,438.5C 422.224,448.94 410.89,458.106 398.5,466C 397.748,466.671 397.414,467.504 397.5,468.5C 386.861,476.16 375.527,482.827 363.5,488.5C 356.535,487.351 350.202,489.184 344.5,494C 298.892,510.957 250.892,514.29 200.5,504C 197.042,502.214 193.376,500.881 189.5,500C 180.61,499.089 171.944,497.256 163.5,494.5C 119.826,477.83 83.4925,451.163 54.5,414.5 Z"/></g>
<g><path style="opacity:0.6" fill="#dce271" d="M 453.5,418.5 C 437.57,438.441 418.903,455.108 397.5,468.5C 397.414,467.504 397.748,466.671 398.5,466C 410.89,458.106 422.224,448.94 432.5,438.5C 439.134,431.697 445.634,424.697 452,417.5C 452.383,418.056 452.883,418.389 453.5,418.5 Z"/></g>
<g><path style="opacity:1" fill="#d3de63" d="M 363.5,488.5 C 335.992,500.875 307.326,508.542 277.5,511.5C 262.833,511.5 248.167,511.5 233.5,511.5C 209.343,509.294 186.009,503.627 163.5,494.5C 171.944,497.256 180.61,499.089 189.5,500C 193.376,500.881 197.042,502.214 200.5,504C 250.892,514.29 298.892,510.957 344.5,494C 350.202,489.184 356.535,487.351 363.5,488.5 Z"/></g>
</svg>
