<?xml version="1.0" encoding="UTF-8"?>
<!DOCTYPE svg PUBLIC "-//W3C//DTD SVG 1.1//EN" "http://www.w3.org/Graphics/SVG/1.1/DTD/svg11.dtd">
<svg xmlns="http://www.w3.org/2000/svg" version="1.1" width="512px" height="512px" style="shape-rendering:geometricPrecision; text-rendering:geometricPrecision; image-rendering:optimizeQuality; fill-rule:evenodd; clip-rule:evenodd" xmlns:xlink="http://www.w3.org/1999/xlink">
<g><path style="opacity:1" fill="#137acc" d="M 233.5,-0.5 C 248.167,-0.5 262.833,-0.5 277.5,-0.5C 297.686,1.40421 317.353,5.73754 336.5,12.5C 317.604,8.5545 298.604,5.0545 279.5,2C 263.5,1.33333 247.5,1.33333 231.5,2C 193.853,7.80974 158.187,19.3097 124.5,36.5C 123.893,36.3764 123.56,36.0431 123.5,35.5C 157.521,15.2707 194.187,3.27067 233.5,-0.5 Z"/></g>
<g><path style="opacity:1" fill="#0969c1" d="M 336.5,12.5 C 370.256,23.645 400.256,40.9783 426.5,64.5C 425.402,65.6009 425.235,66.9343 426,68.5C 432.818,73.9936 439.484,79.6603 446,85.5C 446.333,87.1667 446.667,88.8333 447,90.5C 452.408,96.9859 457.575,103.653 462.5,110.5C 462.167,110.833 461.833,111.167 461.5,111.5C 460.5,110.833 459.5,110.167 458.5,109.5C 457.5,110.167 456.5,110.833 455.5,111.5C 452.979,108.907 450.479,108.907 448,111.5C 447.196,110.196 446.029,109.529 444.5,109.5C 440.556,111.552 436.889,111.552 433.5,109.5C 431.626,109.39 430.126,110.056 429,111.5C 427.149,109.219 425.482,109.219 424,111.5C 421.778,108.956 419.611,108.956 417.5,111.5C 415.389,108.956 413.222,108.956 411,111.5C 409.598,109.027 408.098,109.027 406.5,111.5C 403.961,110.145 403.961,108.645 406.5,107C 406.167,106.5 405.833,106 405.5,105.5C 403.929,106.309 402.262,106.643 400.5,106.5C 400.5,108.167 400.5,109.833 400.5,111.5C 397.899,110.72 395.899,109.054 394.5,106.5C 392.539,108.058 390.706,109.724 389,111.5C 387.324,108.84 385.657,108.84 384,111.5C 380.454,109.019 376.787,109.019 373,111.5C 371.605,111.22 370.438,110.553 369.5,109.5C 370.59,108.391 370.59,107.391 369.5,106.5C 367.473,107.693 365.973,109.36 365,111.5C 363.075,109.027 361.242,109.027 359.5,111.5C 356.812,109.977 356.978,108.643 360,107.5C 360.688,106.668 360.521,106.002 359.5,105.5C 357.443,107.269 355.61,109.269 354,111.5C 352.004,109.941 349.671,109.274 347,109.5C 343.335,109.481 339.835,110.148 336.5,111.5C 336.402,108.896 335.235,106.896 333,105.5C 332.5,105.833 332,106.167 331.5,106.5C 332.263,107.719 333.263,108.719 334.5,109.5C 333.758,110.287 332.925,110.953 332,111.5C 330.333,108.833 328.667,108.833 327,111.5C 325.256,110.351 325.089,109.017 326.5,107.5C 326,107.167 325.5,106.833 325,106.5C 323.864,107.783 322.531,108.783 321,109.5C 319.518,107.888 317.685,106.888 315.5,106.5C 315.621,109.541 314.121,111.208 311,111.5C 308.059,109.104 305.225,109.104 302.5,111.5C 301.5,111.167 300.833,110.5 300.5,109.5C 301.833,106.833 301.167,106.167 298.5,107.5C 297.719,108.729 297.219,110.062 297,111.5C 294.632,111.59 292.132,111.257 289.5,110.5C 288.201,108.858 286.701,107.524 285,106.5C 284.5,106.833 284,107.167 283.5,107.5C 284.5,108.167 285.5,108.833 286.5,109.5C 284.867,111.739 282.867,112.072 280.5,110.5C 280.663,108.143 280.497,105.81 280,103.5C 277.824,106.529 275.657,109.529 273.5,112.5C 270.275,109.045 266.775,108.711 263,111.5C 261.731,110.095 261.231,108.429 261.5,106.5C 260.178,106.67 259.011,106.337 258,105.5C 258.152,107.519 258.652,109.519 259.5,111.5C 257.173,111.753 255.173,111.086 253.5,109.5C 252.522,109.977 251.689,110.643 251,111.5C 248.504,109.047 245.671,107.38 242.5,106.5C 243.023,111.023 241.69,112.023 238.5,109.5C 237.38,110.833 236.047,111.333 234.5,111C 234.038,109.278 233.872,107.445 234,105.5C 230.029,109.913 225.195,111.579 219.5,110.5C 218.289,109.726 218.289,108.893 219.5,108C 218.892,107.13 218.059,106.63 217,106.5C 212.441,110.686 208.274,110.352 204.5,105.5C 202.198,106.999 202.531,108.332 205.5,109.5C 204.078,110.547 202.578,110.547 201,109.5C 200.055,109.905 199.388,110.572 199,111.5C 195.935,109.017 192.935,109.017 190,111.5C 185.93,110.602 182.597,108.602 180,105.5C 179.82,107.488 179.986,109.488 180.5,111.5C 179.448,111.649 178.448,111.483 177.5,111C 176.687,109.197 175.52,107.697 174,106.5C 169.768,111.063 164.935,112.063 159.5,109.5C 158.5,110.167 157.5,110.833 156.5,111.5C 153.686,108.908 150.853,108.908 148,111.5C 143.774,108.871 139.607,108.871 135.5,111.5C 133.267,110.385 131.101,110.385 129,111.5C 128.196,110.196 127.029,109.529 125.5,109.5C 123.682,110.636 121.682,111.303 119.5,111.5C 114.047,108.88 108.547,108.88 103,111.5C 100.784,110.034 98.7837,108.367 97,106.5C 95.3918,108.552 93.3918,110.218 91,111.5C 86.3333,108.833 81.6667,108.833 77,111.5C 75.7263,110.465 74.5596,109.298 73.5,108C 73.8333,107.667 74.1667,107.333 74.5,107C 73.5,106.5 72.5,106 71.5,105.5C 71.08,107.353 70.7467,109.187 70.5,111C 68.4153,111.529 66.582,111.029 65,109.5C 62.4845,112.077 59.9845,112.077 57.5,109.5C 56.5,110.167 55.5,110.833 54.5,111.5C 54.1667,109.5 53.8333,107.5 53.5,105.5C 51.5452,107.958 49.3785,110.291 47,112.5C 46.3333,111.5 46.3333,110.5 47,109.5C 49.3603,106.64 51.527,103.64 53.5,100.5C 58.9193,97.5801 62.7526,93.2467 65,87.5C 72.2806,80.4302 79.4473,73.2635 86.5,66C 90.4704,63.6882 94.137,61.0216 97.5,58C 98.13,56.108 99.13,54.4413 100.5,53C 107.558,48.0538 114.892,43.8871 122.5,40.5C 122.5,39.1667 122.5,37.8333 122.5,36.5C 122.5,35.8333 122.833,35.5 123.5,35.5C 123.56,36.0431 123.893,36.3764 124.5,36.5C 158.187,19.3097 193.853,7.80974 231.5,2C 247.5,1.33333 263.5,1.33333 279.5,2C 298.604,5.0545 317.604,8.5545 336.5,12.5 Z"/></g>
<g><path style="opacity:1" fill="#096ec0" d="M 122.5,36.5 C 122.5,37.8333 122.5,39.1667 122.5,40.5C 114.892,43.8871 107.558,48.0538 100.5,53C 99.13,54.4413 98.13,56.108 97.5,58C 94.137,61.0216 90.4704,63.6882 86.5,66C 79.4473,73.2635 72.2806,80.4302 65,87.5C 62.7526,93.2467 58.9193,97.5801 53.5,100.5C 51.527,103.64 49.3603,106.64 47,109.5C 46.3333,110.5 46.3333,111.5 47,112.5C 49.3785,110.291 51.5452,107.958 53.5,105.5C 53.8333,107.5 54.1667,109.5 54.5,111.5C 55.5,110.833 56.5,110.167 57.5,109.5C 59.9845,112.077 62.4845,112.077 65,109.5C 66.582,111.029 68.4153,111.529 70.5,111C 70.7467,109.187 71.08,107.353 71.5,105.5C 72.5,106 73.5,106.5 74.5,107C 74.1667,107.333 73.8333,107.667 73.5,108C 74.5596,109.298 75.7263,110.465 77,111.5C 81.6667,108.833 86.3333,108.833 91,111.5C 93.3918,110.218 95.3918,108.552 97,106.5C 98.7837,108.367 100.784,110.034 103,111.5C 108.547,108.88 114.047,108.88 119.5,111.5C 121.682,111.303 123.682,110.636 125.5,109.5C 127.029,109.529 128.196,110.196 129,111.5C 131.101,110.385 133.267,110.385 135.5,111.5C 139.607,108.871 143.774,108.871 148,111.5C 150.853,108.908 153.686,108.908 156.5,111.5C 157.5,110.833 158.5,110.167 159.5,109.5C 164.935,112.063 169.768,111.063 174,106.5C 175.52,107.697 176.687,109.197 177.5,111C 178.448,111.483 179.448,111.649 180.5,111.5C 179.986,109.488 179.82,107.488 180,105.5C 182.597,108.602 185.93,110.602 190,111.5C 192.935,109.017 195.935,109.017 199,111.5C 199.388,110.572 200.055,109.905 201,109.5C 202.578,110.547 204.078,110.547 205.5,109.5C 202.531,108.332 202.198,106.999 204.5,105.5C 208.274,110.352 212.441,110.686 217,106.5C 218.059,106.63 218.892,107.13 219.5,108C 218.289,108.893 218.289,109.726 219.5,110.5C 225.195,111.579 230.029,109.913 234,105.5C 233.872,107.445 234.038,109.278 234.5,111C 236.047,111.333 237.38,110.833 238.5,109.5C 241.69,112.023 243.023,111.023 242.5,106.5C 245.671,107.38 248.504,109.047 251,111.5C 251.689,110.643 252.522,109.977 253.5,109.5C 255.173,111.086 257.173,111.753 259.5,111.5C 258.652,109.519 258.152,107.519 258,105.5C 259.011,106.337 260.178,106.67 261.5,106.5C 261.231,108.429 261.731,110.095 263,111.5C 266.775,108.711 270.275,109.045 273.5,112.5C 246.107,143.851 215.107,171.017 180.5,194C 177.552,197.11 175.219,200.61 173.5,204.5C 172.448,203.47 171.114,202.803 169.5,202.5C 166.866,203.436 164.199,204.436 161.5,205.5C 160.614,204.675 160.281,203.675 160.5,202.5C 157.193,202.937 154.193,202.27 151.5,200.5C 150.571,201.689 150.238,203.022 150.5,204.5C 148.086,202.776 145.42,201.442 142.5,200.5C 142.5,201.833 142.5,203.167 142.5,204.5C 140.599,204.433 138.766,204.767 137,205.5C 134.942,204.279 132.776,203.279 130.5,202.5C 127.559,204.762 124.726,204.762 122,202.5C 121.05,203.022 120.216,203.689 119.5,204.5C 118.377,203.456 117.044,202.79 115.5,202.5C 111.892,203.769 108.225,204.769 104.5,205.5C 103.614,204.675 103.281,203.675 103.5,202.5C 98.5885,201.974 93.9218,202.641 89.5,204.5C 87.8333,201.833 86.1667,201.833 84.5,204.5C 83.6143,203.675 83.281,202.675 83.5,201.5C 79.3769,200.372 75.7102,201.372 72.5,204.5C 71.5713,203.311 71.238,201.978 71.5,200.5C 69.712,200.215 68.0453,200.548 66.5,201.5C 64.4991,202.719 62.6657,204.053 61,205.5C 58.5661,204.678 56.0661,204.344 53.5,204.5C 53.762,203.022 53.4287,201.689 52.5,200.5C 50.0602,207.362 48.3935,207.029 47.5,199.5C 46.8333,201.167 46.1667,202.833 45.5,204.5C 43.0561,201.929 40.5561,201.929 38,204.5C 34.3865,201.996 30.7198,201.996 27,204.5C 25.1999,203.622 23.3666,202.955 21.5,202.5C 21.719,203.675 21.3857,204.675 20.5,205.5C 19.7568,204.092 18.9234,202.759 18,201.5C 15.9592,202.423 13.7925,202.756 11.5,202.5C 11.719,203.675 11.3857,204.675 10.5,205.5C 9.44298,203.997 8.77631,202.33 8.5,200.5C 11.9548,185.644 16.2881,171.144 21.5,157C 21.3158,155.624 20.6491,154.791 19.5,154.5C 41.74,104.594 76.0733,65.2611 122.5,36.5 Z"/></g>
<g><path style="opacity:1" fill="#096dc0" d="M 426.5,64.5 C 449.073,84.0553 467.073,107.055 480.5,133.5C 481.067,140.301 483.567,146.301 488,151.5C 493.138,167.079 497.971,182.746 502.5,198.5C 502.558,201.057 501.891,203.39 500.5,205.5C 497.144,203.351 493.478,202.351 489.5,202.5C 489.649,203.552 489.483,204.552 489,205.5C 484.341,202.815 479.508,201.481 474.5,201.5C 478.257,202.948 478.257,203.948 474.5,204.5C 471.638,203.487 468.805,202.487 466,201.5C 463.727,205.655 462.561,205.322 462.5,200.5C 459.99,201.157 457.823,202.491 456,204.5C 451.783,203.227 447.616,201.893 443.5,200.5C 441.034,202.723 438.201,204.39 435,205.5C 433.046,203.566 430.88,203.233 428.5,204.5C 427.571,203.311 427.238,201.978 427.5,200.5C 426.5,200.5 425.5,200.5 424.5,200.5C 424.712,205.443 423.712,206.11 421.5,202.5C 420.784,203.311 419.95,203.978 419,204.5C 416.833,203.172 415,201.506 413.5,199.5C 412.749,200.376 412.249,201.376 412,202.5C 409.507,201.054 407.673,201.721 406.5,204.5C 404.124,202.36 401.457,200.694 398.5,199.5C 396.528,200.305 395.028,201.639 394,203.5C 391.106,200.539 388.606,200.873 386.5,204.5C 382.552,202.169 378.386,201.835 374,203.5C 370.577,203.184 367.41,202.184 364.5,200.5C 363.476,201.853 362.143,202.52 360.5,202.5C 360.719,203.675 360.386,204.675 359.5,205.5C 357.167,203.667 354.833,201.833 352.5,200C 351.072,199.421 349.738,199.588 348.5,200.5C 326.046,173.442 297.046,159.442 261.5,158.5C 269.434,143.012 275.767,127.012 280.5,110.5C 282.867,112.072 284.867,111.739 286.5,109.5C 285.5,108.833 284.5,108.167 283.5,107.5C 284,107.167 284.5,106.833 285,106.5C 286.701,107.524 288.201,108.858 289.5,110.5C 292.132,111.257 294.632,111.59 297,111.5C 297.219,110.062 297.719,108.729 298.5,107.5C 301.167,106.167 301.833,106.833 300.5,109.5C 300.833,110.5 301.5,111.167 302.5,111.5C 305.225,109.104 308.059,109.104 311,111.5C 314.121,111.208 315.621,109.541 315.5,106.5C 317.685,106.888 319.518,107.888 321,109.5C 322.531,108.783 323.864,107.783 325,106.5C 325.5,106.833 326,107.167 326.5,107.5C 325.089,109.017 325.256,110.351 327,111.5C 328.667,108.833 330.333,108.833 332,111.5C 332.925,110.953 333.758,110.287 334.5,109.5C 333.263,108.719 332.263,107.719 331.5,106.5C 332,106.167 332.5,105.833 333,105.5C 335.235,106.896 336.402,108.896 336.5,111.5C 339.835,110.148 343.335,109.481 347,109.5C 349.671,109.274 352.004,109.941 354,111.5C 355.61,109.269 357.443,107.269 359.5,105.5C 360.521,106.002 360.688,106.668 360,107.5C 356.978,108.643 356.812,109.977 359.5,111.5C 361.242,109.027 363.075,109.027 365,111.5C 365.973,109.36 367.473,107.693 369.5,106.5C 370.59,107.391 370.59,108.391 369.5,109.5C 370.438,110.553 371.605,111.22 373,111.5C 376.787,109.019 380.454,109.019 384,111.5C 385.657,108.84 387.324,108.84 389,111.5C 390.706,109.724 392.539,108.058 394.5,106.5C 395.899,109.054 397.899,110.72 400.5,111.5C 400.5,109.833 400.5,108.167 400.5,106.5C 402.262,106.643 403.929,106.309 405.5,105.5C 405.833,106 406.167,106.5 406.5,107C 403.961,108.645 403.961,110.145 406.5,111.5C 408.098,109.027 409.598,109.027 411,111.5C 413.222,108.956 415.389,108.956 417.5,111.5C 419.611,108.956 421.778,108.956 424,111.5C 425.482,109.219 427.149,109.219 429,111.5C 430.126,110.056 431.626,109.39 433.5,109.5C 436.889,111.552 440.556,111.552 444.5,109.5C 446.029,109.529 447.196,110.196 448,111.5C 450.479,108.907 452.979,108.907 455.5,111.5C 456.5,110.833 457.5,110.167 458.5,109.5C 459.5,110.167 460.5,110.833 461.5,111.5C 461.833,111.167 462.167,110.833 462.5,110.5C 457.575,103.653 452.408,96.9859 447,90.5C 446.667,88.8333 446.333,87.1667 446,85.5C 439.484,79.6603 432.818,73.9936 426,68.5C 425.235,66.9343 425.402,65.6009 426.5,64.5 Z"/></g>
<g><path style="opacity:1" fill="#fcfdfe" d="M 280.5,110.5 C 275.767,127.012 269.434,143.012 261.5,158.5C 297.046,159.442 326.046,173.442 348.5,200.5C 370.463,228.692 377.797,260.359 370.5,295.5C 368.707,299.667 367.374,304 366.5,308.5C 352.133,343.862 326.466,366.528 289.5,376.5C 273.565,380.049 257.565,380.383 241.5,377.5C 209.397,370.124 184.731,352.457 167.5,324.5C 162.216,313.816 158.216,302.649 155.5,291C 155.528,289.93 155.861,289.097 156.5,288.5C 156.5,289.167 156.5,289.833 156.5,290.5C 170.228,331.073 198.228,354.239 240.5,360C 214.993,353.339 194.827,339.172 180,317.5C 177.466,314.107 175.799,310.441 175,306.5C 187.995,329.165 207.495,341.665 233.5,344C 222.559,339.612 213.059,333.112 205,324.5C 202.49,321.801 200.824,318.801 200,315.5C 208.799,325.476 219.633,331.643 232.5,334C 226.084,329.603 221.25,324.103 218,317.5C 232.393,330.642 249.227,335.142 268.5,331C 292.642,325.026 306.975,309.86 311.5,285.5C 312.481,259.127 301.315,239.794 278,227.5C 277.667,222.167 277.333,216.833 277,211.5C 276.275,209.051 275.275,206.717 274,204.5C 274.505,209.782 274.505,215.116 274,220.5C 272.153,225.694 269.653,230.528 266.5,235C 224.582,244.583 182.748,254.416 141,264.5C 140.5,264.167 140,263.833 139.5,263.5C 150.592,243.643 161.926,223.976 173.5,204.5C 175.219,200.61 177.552,197.11 180.5,194C 215.107,171.017 246.107,143.851 273.5,112.5C 275.657,109.529 277.824,106.529 280,103.5C 280.497,105.81 280.663,108.143 280.5,110.5 Z"/></g>
<g><path style="opacity:1" fill="#0974bf" d="M 19.5,154.5 C 20.6491,154.791 21.3158,155.624 21.5,157C 16.2881,171.144 11.9548,185.644 8.5,200.5C 8.77631,202.33 9.44298,203.997 10.5,205.5C 11.3857,204.675 11.719,203.675 11.5,202.5C 13.7925,202.756 15.9592,202.423 18,201.5C 18.9234,202.759 19.7568,204.092 20.5,205.5C 21.3857,204.675 21.719,203.675 21.5,202.5C 23.3666,202.955 25.1999,203.622 27,204.5C 30.7198,201.996 34.3865,201.996 38,204.5C 40.5561,201.929 43.0561,201.929 45.5,204.5C 46.1667,202.833 46.8333,201.167 47.5,199.5C 48.3935,207.029 50.0602,207.362 52.5,200.5C 53.4287,201.689 53.762,203.022 53.5,204.5C 56.0661,204.344 58.5661,204.678 61,205.5C 62.6657,204.053 64.4991,202.719 66.5,201.5C 68.0453,200.548 69.712,200.215 71.5,200.5C 71.238,201.978 71.5713,203.311 72.5,204.5C 75.7102,201.372 79.3769,200.372 83.5,201.5C 83.281,202.675 83.6143,203.675 84.5,204.5C 86.1667,201.833 87.8333,201.833 89.5,204.5C 93.9218,202.641 98.5885,201.974 103.5,202.5C 103.281,203.675 103.614,204.675 104.5,205.5C 108.225,204.769 111.892,203.769 115.5,202.5C 117.044,202.79 118.377,203.456 119.5,204.5C 120.216,203.689 121.05,203.022 122,202.5C 124.726,204.762 127.559,204.762 130.5,202.5C 132.776,203.279 134.942,204.279 137,205.5C 138.766,204.767 140.599,204.433 142.5,204.5C 142.5,203.167 142.5,201.833 142.5,200.5C 145.42,201.442 148.086,202.776 150.5,204.5C 150.238,203.022 150.571,201.689 151.5,200.5C 154.193,202.27 157.193,202.937 160.5,202.5C 160.281,203.675 160.614,204.675 161.5,205.5C 164.199,204.436 166.866,203.436 169.5,202.5C 171.114,202.803 172.448,203.47 173.5,204.5C 161.926,223.976 150.592,243.643 139.5,263.5C 140,263.833 140.5,264.167 141,264.5C 182.748,254.416 224.582,244.583 266.5,235C 269.653,230.528 272.153,225.694 274,220.5C 274.505,215.116 274.505,209.782 274,204.5C 275.275,206.717 276.275,209.051 277,211.5C 277.333,216.833 277.667,222.167 278,227.5C 301.315,239.794 312.481,259.127 311.5,285.5C 310.069,285.881 309.236,286.881 309,288.5C 308.692,287.692 308.192,287.025 307.5,286.5C 306.5,287.167 305.5,287.833 304.5,288.5C 302.167,285.833 299.833,285.833 297.5,288.5C 296.784,287.689 295.95,287.022 295,286.5C 293.34,287.829 291.507,288.829 289.5,289.5C 287.356,287.849 285.022,286.515 282.5,285.5C 280.009,287.058 277.343,288.058 274.5,288.5C 274.5,287.5 274.5,286.5 274.5,285.5C 270.95,285.744 267.617,286.744 264.5,288.5C 262.945,288.278 261.611,287.611 260.5,286.5C 259.833,287.167 259.167,287.833 258.5,288.5C 254.167,285.833 249.833,285.833 245.5,288.5C 244.12,287.024 242.453,286.024 240.5,285.5C 238.833,286.833 237.167,286.833 235.5,285.5C 234.614,286.325 234.281,287.325 234.5,288.5C 232.143,288.663 229.81,288.497 227.5,288C 226.167,287.333 226.167,286.667 227.5,286C 224.812,285.452 222.645,286.285 221,288.5C 217.623,284.898 214.123,284.898 210.5,288.5C 208.425,286.936 206.092,285.936 203.5,285.5C 199.303,285.738 194.97,286.238 190.5,287C 189.975,287.692 189.308,288.192 188.5,288.5C 184.37,285.054 180.37,285.054 176.5,288.5C 175.614,287.675 175.281,286.675 175.5,285.5C 168.657,285.662 162.324,287.329 156.5,290.5C 156.5,289.833 156.5,289.167 156.5,288.5C 157.78,286.894 157.28,285.894 155,285.5C 152.152,286.783 149.318,286.783 146.5,285.5C 145.833,286.5 145.167,287.5 144.5,288.5C 143.389,287.389 142.055,286.722 140.5,286.5C 138.423,287.937 136.09,288.604 133.5,288.5C 133.785,286.712 133.452,285.045 132.5,283.5C 130.879,285.423 129.046,287.089 127,288.5C 126.167,287.5 125.333,286.5 124.5,285.5C 123.614,286.325 123.281,287.325 123.5,288.5C 120.212,288.927 117.212,288.26 114.5,286.5C 113.522,286.977 112.689,287.643 112,288.5C 110.437,285.956 108.937,285.956 107.5,288.5C 106.692,288.192 106.025,287.692 105.5,287C 98.8,286.714 92.1333,286.214 85.5,285.5C 84.9965,289.335 83.9965,289.335 82.5,285.5C 79.3317,285.962 76.665,287.296 74.5,289.5C 69.1203,287.188 63.4536,285.855 57.5,285.5C 56.8333,286.5 56.1667,287.5 55.5,288.5C 53.7145,286.078 52.0478,286.078 50.5,288.5C 49.2807,287.737 48.2807,286.737 47.5,285.5C 46.6667,286.5 45.8333,287.5 45,288.5C 44.3261,287.422 43.3261,286.755 42,286.5C 39.8369,287.641 37.5036,288.307 35,288.5C 32.2299,287.455 29.3966,286.788 26.5,286.5C 25.039,291.787 24.3723,291.453 24.5,285.5C 20.568,285.676 16.9013,286.676 13.5,288.5C 10.696,285.91 7.86266,285.91 5,288.5C 4.05456,288.095 3.38789,287.428 3,286.5C 2.76791,287.737 2.26791,288.737 1.5,289.5C 0.960323,285.358 0.293656,281.358 -0.5,277.5C -0.5,262.833 -0.5,248.167 -0.5,233.5C 2.22327,206.275 8.88994,179.941 19.5,154.5 Z"/></g>
<g><path style="opacity:1" fill="#0873bf" d="M 480.5,133.5 C 494.368,157.762 503.701,183.762 508.5,211.5C 507.883,211.611 507.383,211.944 507,212.5C 507.929,229.634 508.763,246.801 509.5,264C 508.881,271.64 507.547,279.14 505.5,286.5C 501.629,285.021 499.129,286.354 498,290.5C 496.812,289.437 496.312,288.103 496.5,286.5C 494.173,286.247 492.173,286.914 490.5,288.5C 489.12,287.024 487.453,286.024 485.5,285.5C 479.661,285.854 473.994,286.854 468.5,288.5C 466.184,287.504 464.517,285.837 463.5,283.5C 462.614,284.325 462.281,285.325 462.5,286.5C 461.07,286.579 459.736,286.246 458.5,285.5C 453.318,285.859 448.318,286.859 443.5,288.5C 442.614,287.675 442.281,286.675 442.5,285.5C 439.214,286.207 435.881,286.54 432.5,286.5C 432.688,288.103 432.188,289.437 431,290.5C 430.261,288.779 429.427,287.113 428.5,285.5C 423.318,285.859 418.318,286.859 413.5,288.5C 411.425,286.936 409.092,285.936 406.5,285.5C 405.852,287.149 404.852,288.482 403.5,289.5C 402.614,288.675 402.281,287.675 402.5,286.5C 393.682,286.469 385.016,286.135 376.5,285.5C 375.614,286.325 375.281,287.325 375.5,288.5C 374.5,288.5 373.5,288.5 372.5,288.5C 372.829,291.228 372.163,293.562 370.5,295.5C 377.797,260.359 370.463,228.692 348.5,200.5C 349.738,199.588 351.072,199.421 352.5,200C 354.833,201.833 357.167,203.667 359.5,205.5C 360.386,204.675 360.719,203.675 360.5,202.5C 362.143,202.52 363.476,201.853 364.5,200.5C 367.41,202.184 370.577,203.184 374,203.5C 378.386,201.835 382.552,202.169 386.5,204.5C 388.606,200.873 391.106,200.539 394,203.5C 395.028,201.639 396.528,200.305 398.5,199.5C 401.457,200.694 404.124,202.36 406.5,204.5C 407.673,201.721 409.507,201.054 412,202.5C 412.249,201.376 412.749,200.376 413.5,199.5C 415,201.506 416.833,203.172 419,204.5C 419.95,203.978 420.784,203.311 421.5,202.5C 423.712,206.11 424.712,205.443 424.5,200.5C 425.5,200.5 426.5,200.5 427.5,200.5C 427.238,201.978 427.571,203.311 428.5,204.5C 430.88,203.233 433.046,203.566 435,205.5C 438.201,204.39 441.034,202.723 443.5,200.5C 447.616,201.893 451.783,203.227 456,204.5C 457.823,202.491 459.99,201.157 462.5,200.5C 462.561,205.322 463.727,205.655 466,201.5C 468.805,202.487 471.638,203.487 474.5,204.5C 478.257,203.948 478.257,202.948 474.5,201.5C 479.508,201.481 484.341,202.815 489,205.5C 489.483,204.552 489.649,203.552 489.5,202.5C 493.478,202.351 497.144,203.351 500.5,205.5C 501.891,203.39 502.558,201.057 502.5,198.5C 497.971,182.746 493.138,167.079 488,151.5C 483.567,146.301 481.067,140.301 480.5,133.5 Z"/></g>
<g><path style="opacity:1" fill="#1171bf" d="M 214.5,195.5 C 217.907,196.174 219.24,198.341 218.5,202C 215.67,217.492 206.337,226.158 190.5,228C 187.833,228.667 185.167,228.667 182.5,228C 191.361,215.306 202.028,204.473 214.5,195.5 Z"/></g>
<g><path style="opacity:1" fill="#0977bf" d="M 508.5,211.5 C 509.333,218.994 510.333,226.328 511.5,233.5C 511.5,248.167 511.5,262.833 511.5,277.5C 510.706,281.358 510.04,285.358 509.5,289.5C 508.71,290.609 508.21,291.942 508,293.5C 507.667,292.5 507.333,291.5 507,290.5C 505.894,297.526 504.728,304.526 503.5,311.5C 500.603,311.319 497.77,311.652 495,312.5C 491.577,312.184 488.41,311.184 485.5,309.5C 482.362,310.744 479.028,311.411 475.5,311.5C 472.061,311.446 468.894,310.78 466,309.5C 465.5,310 465,310.5 464.5,311C 462.333,311.167 460.167,311.333 458,311.5C 455.375,311.419 453.041,310.752 451,309.5C 447.223,312.329 443.723,311.995 440.5,308.5C 439.614,309.325 439.281,310.325 439.5,311.5C 431.521,311.308 423.688,311.641 416,312.5C 414.108,312.223 412.775,311.223 412,309.5C 411.221,310.728 410.221,311.728 409,312.5C 403.857,312.357 398.69,312.357 393.5,312.5C 391.374,312.27 389.707,311.27 388.5,309.5C 387.063,312.044 385.563,312.044 384,309.5C 378.748,311.184 373.248,312.184 367.5,312.5C 367.212,311.139 366.879,309.806 366.5,308.5C 367.374,304 368.707,299.667 370.5,295.5C 372.163,293.562 372.829,291.228 372.5,288.5C 373.5,288.5 374.5,288.5 375.5,288.5C 375.281,287.325 375.614,286.325 376.5,285.5C 385.016,286.135 393.682,286.469 402.5,286.5C 402.281,287.675 402.614,288.675 403.5,289.5C 404.852,288.482 405.852,287.149 406.5,285.5C 409.092,285.936 411.425,286.936 413.5,288.5C 418.318,286.859 423.318,285.859 428.5,285.5C 429.427,287.113 430.261,288.779 431,290.5C 432.188,289.437 432.688,288.103 432.5,286.5C 435.881,286.54 439.214,286.207 442.5,285.5C 442.281,286.675 442.614,287.675 443.5,288.5C 448.318,286.859 453.318,285.859 458.5,285.5C 459.736,286.246 461.07,286.579 462.5,286.5C 462.281,285.325 462.614,284.325 463.5,283.5C 464.517,285.837 466.184,287.504 468.5,288.5C 473.994,286.854 479.661,285.854 485.5,285.5C 487.453,286.024 489.12,287.024 490.5,288.5C 492.173,286.914 494.173,286.247 496.5,286.5C 496.312,288.103 496.812,289.437 498,290.5C 499.129,286.354 501.629,285.021 505.5,286.5C 507.547,279.14 508.881,271.64 509.5,264C 508.763,246.801 507.929,229.634 507,212.5C 507.383,211.944 507.883,211.611 508.5,211.5 Z"/></g>
<g><path style="opacity:1" fill="#0877be" d="M 156.5,288.5 C 155.861,289.097 155.528,289.93 155.5,291C 158.216,302.649 162.216,313.816 167.5,324.5C 164.251,320.341 161.751,315.674 160,310.5C 158.594,311.668 157.428,311.335 156.5,309.5C 154.297,311.178 151.797,312.178 149,312.5C 145.348,311.258 141.681,311.258 138,312.5C 135.421,312.364 133.255,311.364 131.5,309.5C 120.687,311.446 109.687,312.113 98.5,311.5C 97.8333,307.5 97.1667,307.5 96.5,311.5C 89.4684,311.83 82.4684,311.497 75.5,310.5C 73.099,307.587 71.7657,307.921 71.5,311.5C 69.088,311.669 66.9214,311.003 65,309.5C 60.978,310.733 56.8113,311.4 52.5,311.5C 48.3125,311.429 44.3125,310.762 40.5,309.5C 38.8333,312.167 37.1667,312.167 35.5,309.5C 33.8208,310.782 31.9874,311.782 30,312.5C 25.5467,311.324 21.0467,311.324 16.5,312.5C 16.719,311.325 16.3857,310.325 15.5,309.5C 7.84532,313.698 4.67865,311.365 6,302.5C 5.66667,302.833 5.33333,303.167 5,303.5C 4.8413,301.657 4.3413,300.991 3.5,301.5C 2.38333,297.705 1.71667,293.705 1.5,289.5C 2.26791,288.737 2.76791,287.737 3,286.5C 3.38789,287.428 4.05456,288.095 5,288.5C 7.86266,285.91 10.696,285.91 13.5,288.5C 16.9013,286.676 20.568,285.676 24.5,285.5C 24.3723,291.453 25.039,291.787 26.5,286.5C 29.3966,286.788 32.2299,287.455 35,288.5C 37.5036,288.307 39.8369,287.641 42,286.5C 43.3261,286.755 44.3261,287.422 45,288.5C 45.8333,287.5 46.6667,286.5 47.5,285.5C 48.2807,286.737 49.2807,287.737 50.5,288.5C 52.0478,286.078 53.7145,286.078 55.5,288.5C 56.1667,287.5 56.8333,286.5 57.5,285.5C 63.4536,285.855 69.1203,287.188 74.5,289.5C 76.665,287.296 79.3317,285.962 82.5,285.5C 83.9965,289.335 84.9965,289.335 85.5,285.5C 92.1333,286.214 98.8,286.714 105.5,287C 106.025,287.692 106.692,288.192 107.5,288.5C 108.937,285.956 110.437,285.956 112,288.5C 112.689,287.643 113.522,286.977 114.5,286.5C 117.212,288.26 120.212,288.927 123.5,288.5C 123.281,287.325 123.614,286.325 124.5,285.5C 125.333,286.5 126.167,287.5 127,288.5C 129.046,287.089 130.879,285.423 132.5,283.5C 133.452,285.045 133.785,286.712 133.5,288.5C 136.09,288.604 138.423,287.937 140.5,286.5C 142.055,286.722 143.389,287.389 144.5,288.5C 145.167,287.5 145.833,286.5 146.5,285.5C 149.318,286.783 152.152,286.783 155,285.5C 157.28,285.894 157.78,286.894 156.5,288.5 Z"/></g>
<g><path style="opacity:1" fill="#0d78be" d="M 311.5,285.5 C 306.975,309.86 292.642,325.026 268.5,331C 249.227,335.142 232.393,330.642 218,317.5C 221.25,324.103 226.084,329.603 232.5,334C 219.633,331.643 208.799,325.476 200,315.5C 200.824,318.801 202.49,321.801 205,324.5C 213.059,333.112 222.559,339.612 233.5,344C 207.495,341.665 187.995,329.165 175,306.5C 175.799,310.441 177.466,314.107 180,317.5C 194.827,339.172 214.993,353.339 240.5,360C 198.228,354.239 170.228,331.073 156.5,290.5C 162.324,287.329 168.657,285.662 175.5,285.5C 175.281,286.675 175.614,287.675 176.5,288.5C 180.37,285.054 184.37,285.054 188.5,288.5C 189.308,288.192 189.975,287.692 190.5,287C 194.97,286.238 199.303,285.738 203.5,285.5C 206.092,285.936 208.425,286.936 210.5,288.5C 214.123,284.898 217.623,284.898 221,288.5C 222.645,286.285 224.812,285.452 227.5,286C 226.167,286.667 226.167,287.333 227.5,288C 229.81,288.497 232.143,288.663 234.5,288.5C 234.281,287.325 234.614,286.325 235.5,285.5C 237.167,286.833 238.833,286.833 240.5,285.5C 242.453,286.024 244.12,287.024 245.5,288.5C 249.833,285.833 254.167,285.833 258.5,288.5C 259.167,287.833 259.833,287.167 260.5,286.5C 261.611,287.611 262.945,288.278 264.5,288.5C 267.617,286.744 270.95,285.744 274.5,285.5C 274.5,286.5 274.5,287.5 274.5,288.5C 277.343,288.058 280.009,287.058 282.5,285.5C 285.022,286.515 287.356,287.849 289.5,289.5C 291.507,288.829 293.34,287.829 295,286.5C 295.95,287.022 296.784,287.689 297.5,288.5C 299.833,285.833 302.167,285.833 304.5,288.5C 305.5,287.833 306.5,287.167 307.5,286.5C 308.192,287.025 308.692,287.692 309,288.5C 309.236,286.881 310.069,285.881 311.5,285.5 Z"/></g>
<g><path style="opacity:1" fill="#067abe" d="M 167.5,324.5 C 184.731,352.457 209.397,370.124 241.5,377.5C 239.657,378.283 237.657,378.95 235.5,379.5C 234.166,377.583 232.333,376.583 230,376.5C 218.179,376.793 206.346,376.793 194.5,376.5C 194.649,377.552 194.483,378.552 194,379.5C 192.641,377.308 190.808,375.641 188.5,374.5C 187.833,375.167 187.167,375.833 186.5,376.5C 185.232,375.572 183.899,375.405 182.5,376C 181.119,377.625 179.452,378.792 177.5,379.5C 176,379.547 175,378.881 174.5,377.5C 157.901,375.557 141.401,375.557 125,377.5C 118.387,375.607 112.221,376.274 106.5,379.5C 105.614,378.675 105.281,377.675 105.5,376.5C 97.1628,375.564 88.8295,375.898 80.5,377.5C 80.719,376.325 80.3857,375.325 79.5,374.5C 73.1793,376.183 66.6793,377.183 60,377.5C 55.8463,377.639 51.6796,376.973 47.5,375.5C 43.9062,376.426 40.2396,376.759 36.5,376.5C 36.4041,371.89 35.4041,371.556 33.5,375.5C 30.0089,370.526 27.0089,365.192 24.5,359.5C 23.4231,358.295 22.0898,357.628 20.5,357.5C 12.0417,339.783 6.375,321.117 3.5,301.5C 4.3413,300.991 4.8413,301.657 5,303.5C 5.33333,303.167 5.66667,302.833 6,302.5C 4.67865,311.365 7.84532,313.698 15.5,309.5C 16.3857,310.325 16.719,311.325 16.5,312.5C 21.0467,311.324 25.5467,311.324 30,312.5C 31.9874,311.782 33.8208,310.782 35.5,309.5C 37.1667,312.167 38.8333,312.167 40.5,309.5C 44.3125,310.762 48.3125,311.429 52.5,311.5C 56.8113,311.4 60.978,310.733 65,309.5C 66.9214,311.003 69.088,311.669 71.5,311.5C 71.7657,307.921 73.099,307.587 75.5,310.5C 82.4684,311.497 89.4684,311.83 96.5,311.5C 97.1667,307.5 97.8333,307.5 98.5,311.5C 109.687,312.113 120.687,311.446 131.5,309.5C 133.255,311.364 135.421,312.364 138,312.5C 141.681,311.258 145.348,311.258 149,312.5C 151.797,312.178 154.297,311.178 156.5,309.5C 157.428,311.335 158.594,311.668 160,310.5C 161.751,315.674 164.251,320.341 167.5,324.5 Z"/></g>
<g><path style="opacity:1" fill="#077abe" d="M 509.5,289.5 C 506.881,313.32 500.548,335.987 490.5,357.5C 489.504,357.414 488.671,357.748 488,358.5C 485.767,362.487 483.433,366.487 481,370.5C 481.225,373.825 479.892,376.158 477,377.5C 476.751,376.376 476.251,375.376 475.5,374.5C 469.179,376.183 462.679,377.183 456,377.5C 454.018,377.01 452.351,376.01 451,374.5C 450.261,375.574 449.261,376.241 448,376.5C 434.651,376.468 421.151,376.468 407.5,376.5C 406.833,371.167 406.167,371.167 405.5,376.5C 399.81,377.008 394.31,376.341 389,374.5C 384.781,377.119 380.615,377.119 376.5,374.5C 369.677,376.874 362.677,377.541 355.5,376.5C 355.762,375.022 355.429,373.689 354.5,372.5C 353.526,374.743 353.192,377.076 353.5,379.5C 352.5,379.5 351.5,379.5 350.5,379.5C 350.688,377.897 350.188,376.563 349,375.5C 343.233,377.065 337.566,376.732 332,374.5C 329.485,377.077 326.985,377.077 324.5,374.5C 323.614,375.325 323.281,376.325 323.5,377.5C 313.868,376.412 304.201,376.245 294.5,377C 293.874,377.75 293.374,378.584 293,379.5C 292.015,378.186 290.848,377.186 289.5,376.5C 326.466,366.528 352.133,343.862 366.5,308.5C 366.879,309.806 367.212,311.139 367.5,312.5C 373.248,312.184 378.748,311.184 384,309.5C 385.563,312.044 387.063,312.044 388.5,309.5C 389.707,311.27 391.374,312.27 393.5,312.5C 398.69,312.357 403.857,312.357 409,312.5C 410.221,311.728 411.221,310.728 412,309.5C 412.775,311.223 414.108,312.223 416,312.5C 423.688,311.641 431.521,311.308 439.5,311.5C 439.281,310.325 439.614,309.325 440.5,308.5C 443.723,311.995 447.223,312.329 451,309.5C 453.041,310.752 455.375,311.419 458,311.5C 460.167,311.333 462.333,311.167 464.5,311C 465,310.5 465.5,310 466,309.5C 468.894,310.78 472.061,311.446 475.5,311.5C 479.028,311.411 482.362,310.744 485.5,309.5C 488.41,311.184 491.577,312.184 495,312.5C 497.77,311.652 500.603,311.319 503.5,311.5C 504.728,304.526 505.894,297.526 507,290.5C 507.333,291.5 507.667,292.5 508,293.5C 508.21,291.942 508.71,290.609 509.5,289.5 Z"/></g>
<g><path style="opacity:1" fill="#067fbc" d="M 20.5,357.5 C 22.0898,357.628 23.4231,358.295 24.5,359.5C 27.0089,365.192 30.0089,370.526 33.5,375.5C 35.4041,371.556 36.4041,371.89 36.5,376.5C 40.2396,376.759 43.9062,376.426 47.5,375.5C 51.6796,376.973 55.8463,377.639 60,377.5C 66.6793,377.183 73.1793,376.183 79.5,374.5C 80.3857,375.325 80.719,376.325 80.5,377.5C 88.8295,375.898 97.1628,375.564 105.5,376.5C 105.281,377.675 105.614,378.675 106.5,379.5C 112.221,376.274 118.387,375.607 125,377.5C 141.401,375.557 157.901,375.557 174.5,377.5C 175,378.881 176,379.547 177.5,379.5C 179.452,378.792 181.119,377.625 182.5,376C 183.899,375.405 185.232,375.572 186.5,376.5C 187.167,375.833 187.833,375.167 188.5,374.5C 190.808,375.641 192.641,377.308 194,379.5C 194.483,378.552 194.649,377.552 194.5,376.5C 206.346,376.793 218.179,376.793 230,376.5C 232.333,376.583 234.166,377.583 235.5,379.5C 237.657,378.95 239.657,378.283 241.5,377.5C 257.565,380.383 273.565,380.049 289.5,376.5C 290.848,377.186 292.015,378.186 293,379.5C 293.374,378.584 293.874,377.75 294.5,377C 304.201,376.245 313.868,376.412 323.5,377.5C 323.281,376.325 323.614,375.325 324.5,374.5C 326.985,377.077 329.485,377.077 332,374.5C 337.566,376.732 343.233,377.065 349,375.5C 350.188,376.563 350.688,377.897 350.5,379.5C 351.5,379.5 352.5,379.5 353.5,379.5C 353.192,377.076 353.526,374.743 354.5,372.5C 355.429,373.689 355.762,375.022 355.5,376.5C 362.677,377.541 369.677,376.874 376.5,374.5C 380.615,377.119 384.781,377.119 389,374.5C 394.31,376.341 399.81,377.008 405.5,376.5C 406.167,371.167 406.833,371.167 407.5,376.5C 421.151,376.468 434.651,376.468 448,376.5C 449.261,376.241 450.261,375.574 451,374.5C 452.351,376.01 454.018,377.01 456,377.5C 462.679,377.183 469.179,376.183 475.5,374.5C 476.251,375.376 476.751,376.376 477,377.5C 479.892,376.158 481.225,373.825 481,370.5C 483.433,366.487 485.767,362.487 488,358.5C 488.671,357.748 489.504,357.414 490.5,357.5C 472.471,399.862 444.804,434.529 407.5,461.5C 406.417,461.461 405.417,461.127 404.5,460.5C 334.49,508.292 258.49,520.125 176.5,496C 150.461,487.316 126.461,474.982 104.5,459C 102.104,457.446 99.7705,456.946 97.5,457.5C 63.5136,430.521 37.8469,397.188 20.5,357.5 Z"/></g>
<g><path style="opacity:1" fill="#118dc3" d="M 97.5,457.5 C 99.7705,456.946 102.104,457.446 104.5,459C 126.461,474.982 150.461,487.316 176.5,496C 258.49,520.125 334.49,508.292 404.5,460.5C 405.417,461.127 406.417,461.461 407.5,461.5C 368.892,490.152 325.559,506.819 277.5,511.5C 262.833,511.5 248.167,511.5 233.5,511.5C 183.023,506.255 137.689,488.255 97.5,457.5 Z"/></g>
</svg>
