<?xml version="1.0" encoding="UTF-8"?>
<!DOCTYPE svg PUBLIC "-//W3C//DTD SVG 1.1//EN" "http://www.w3.org/Graphics/SVG/1.1/DTD/svg11.dtd">
<svg xmlns="http://www.w3.org/2000/svg" version="1.1" width="997px" height="997px" style="shape-rendering:geometricPrecision; text-rendering:geometricPrecision; image-rendering:optimizeQuality; fill-rule:evenodd; clip-rule:evenodd" xmlns:xlink="http://www.w3.org/1999/xlink">
<g><path style="opacity:1" fill="#ff9f52" d="M 640.5,24.5 C 663.618,31.8812 686.284,40.7146 708.5,51C 715.975,53.2452 723.308,55.7452 730.5,58.5C 734.611,62.7559 739.278,66.5892 744.5,70C 754.702,76.2662 765.035,82.2662 775.5,88C 784.889,95.3358 794.222,102.669 803.5,110C 805.167,110.333 806.833,110.667 808.5,111C 809.77,114.203 811.77,116.87 814.5,119C 861.174,157.822 899.174,203.656 928.5,256.5C 929.242,257.287 930.075,257.953 931,258.5C 934.725,268.28 939.225,277.614 944.5,286.5C 963.706,329.318 976.706,373.985 983.5,420.5C 979.833,420.5 976.167,420.5 972.5,420.5C 972.5,421.5 972.5,422.5 972.5,423.5C 969.482,423.665 966.482,423.498 963.5,423C 963.043,422.586 962.709,422.086 962.5,421.5C 958.167,420.167 953.833,420.167 949.5,421.5C 950.504,423.677 949.838,424.011 947.5,422.5C 945.547,423.024 943.88,424.024 942.5,425.5C 941.476,424.147 940.143,423.48 938.5,423.5C 938.5,422.5 938.5,421.5 938.5,420.5C 932.167,420.5 925.833,420.5 919.5,420.5C 919.5,421.5 919.5,422.5 919.5,423.5C 914.833,423.5 910.167,423.5 905.5,423.5C 905.5,422.5 905.5,421.5 905.5,420.5C 904.167,420.5 902.833,420.5 901.5,420.5C 901.709,422.714 900.876,424.381 899,425.5C 897.403,424.115 895.57,423.449 893.5,423.5C 893.5,422.5 893.5,421.5 893.5,420.5C 892.5,420.5 891.5,420.5 890.5,420.5C 890.343,422.818 889.176,424.484 887,425.5C 883.724,423.773 880.224,423.106 876.5,423.5C 876.5,422.5 876.5,421.5 876.5,420.5C 871.5,420.5 866.5,420.5 861.5,420.5C 861.5,421.5 861.5,422.5 861.5,423.5C 859.833,423.5 858.167,423.5 856.5,423.5C 856.5,422.5 856.5,421.5 856.5,420.5C 855.5,420.5 854.5,420.5 853.5,420.5C 853.5,421.5 853.5,422.5 853.5,423.5C 850.833,423.5 848.167,423.5 845.5,423.5C 845.5,422.5 845.5,421.5 845.5,420.5C 841.833,420.5 838.167,420.5 834.5,420.5C 834.343,422.818 833.176,424.484 831,425.5C 829.7,424.293 828.2,423.626 826.5,423.5C 826.5,422.5 826.5,421.5 826.5,420.5C 825.5,420.5 824.5,420.5 823.5,420.5C 822.762,424.66 820.429,425.994 816.5,424.5C 815.754,423.264 815.421,421.93 815.5,420.5C 813.833,420.5 812.167,420.5 810.5,420.5C 810.719,421.675 810.386,422.675 809.5,423.5C 804.621,423.313 799.621,423.313 794.5,423.5C 794.5,422.5 794.5,421.5 794.5,420.5C 791.167,420.5 787.833,420.5 784.5,420.5C 784.5,421.5 784.5,422.5 784.5,423.5C 781.167,423.5 777.833,423.5 774.5,423.5C 774.5,422.5 774.5,421.5 774.5,420.5C 768.833,420.5 763.167,420.5 757.5,420.5C 757.719,421.675 757.386,422.675 756.5,423.5C 751.621,423.313 746.621,423.313 741.5,423.5C 741.5,422.5 741.5,421.5 741.5,420.5C 739.833,420.5 738.167,420.5 736.5,420.5C 736.5,421.5 736.5,422.5 736.5,423.5C 731.731,423.387 727.064,424.053 722.5,425.5C 720.076,424.979 717.743,424.312 715.5,423.5C 715.5,422.5 715.5,421.5 715.5,420.5C 714.5,420.5 713.5,420.5 712.5,420.5C 712.5,421.5 712.5,422.5 712.5,423.5C 707.578,423.45 702.745,424.117 698,425.5C 695.113,424.896 692.28,424.229 689.5,423.5C 689.5,422.5 689.5,421.5 689.5,420.5C 687.712,420.215 686.045,420.548 684.5,421.5C 684.709,422.086 685.043,422.586 685.5,423C 682.854,423.497 680.187,423.664 677.5,423.5C 677.5,422.5 677.5,421.5 677.5,420.5C 676.167,420.5 674.833,420.5 673.5,420.5C 673.5,421.5 673.5,422.5 673.5,423.5C 671.833,423.5 670.167,423.5 668.5,423.5C 668.5,422.5 668.5,421.5 668.5,420.5C 667.167,420.5 665.833,420.5 664.5,420.5C 664.5,421.5 664.5,422.5 664.5,423.5C 662.833,423.5 661.167,423.5 659.5,423.5C 640.192,396.744 614.692,378.411 583,368.5C 582.5,368.667 582,368.833 581.5,369C 596.67,382.838 604.003,400.005 603.5,420.5C 600.167,420.5 596.833,420.5 593.5,420.5C 593.5,421.5 593.5,422.5 593.5,423.5C 591.633,423.955 589.8,424.622 588,425.5C 586.2,424.622 584.367,423.955 582.5,423.5C 582.5,422.5 582.5,421.5 582.5,420.5C 577.394,420.523 572.394,421.189 567.5,422.5C 567.5,423.5 567.5,424.5 567.5,425.5C 564.436,425.072 561.436,424.406 558.5,423.5C 558.5,422.5 558.5,421.5 558.5,420.5C 555.833,420.5 553.167,420.5 550.5,420.5C 550.263,423.24 548.763,424.907 546,425.5C 544.107,424.992 542.607,423.992 541.5,422.5C 540.408,407.461 542.242,392.795 547,378.5C 552.984,320.118 535.318,270.118 494,228.5C 511.906,267.052 508.906,304.052 485,339.5C 470.29,359.214 453.79,377.381 435.5,394C 424.335,403.001 413.335,412.168 402.5,421.5C 400.307,420.203 397.973,420.203 395.5,421.5C 393.329,425.535 390.496,426.201 387,423.5C 383.933,424.582 380.766,425.248 377.5,425.5C 370.224,424.13 362.89,423.463 355.5,423.5C 355.5,422.5 355.5,421.5 355.5,420.5C 351.167,420.5 346.833,420.5 342.5,420.5C 342.5,421.5 342.5,422.5 342.5,423.5C 340.8,423.626 339.3,424.293 338,425.5C 335.066,423.053 332.066,423.053 329,425.5C 326.941,424.382 324.774,423.715 322.5,423.5C 322.5,422.5 322.5,421.5 322.5,420.5C 319.02,421.229 315.686,422.229 312.5,423.5C 312.5,422.5 312.5,421.5 312.5,420.5C 311.5,420.5 310.5,420.5 309.5,420.5C 308.762,424.66 306.429,425.994 302.5,424.5C 301.754,423.264 301.421,421.93 301.5,420.5C 298.833,420.5 296.167,420.5 293.5,420.5C 293.5,421.5 293.5,422.5 293.5,423.5C 291.833,423.5 290.167,423.5 288.5,423.5C 288.5,422.5 288.5,421.5 288.5,420.5C 286.833,420.5 285.167,420.5 283.5,420.5C 283.5,421.5 283.5,422.5 283.5,423.5C 281.833,423.5 280.167,423.5 278.5,423.5C 278.5,422.5 278.5,421.5 278.5,420.5C 277.5,420.5 276.5,420.5 275.5,420.5C 274.543,425.152 272.21,426.152 268.5,423.5C 267.614,422.675 267.281,421.675 267.5,420.5C 264.833,420.5 262.167,420.5 259.5,420.5C 259.5,421.5 259.5,422.5 259.5,423.5C 256.167,424.167 252.833,424.833 249.5,425.5C 249.5,424.5 249.5,423.5 249.5,422.5C 248.167,422.5 246.833,422.5 245.5,422.5C 245.5,423.5 245.5,424.5 245.5,425.5C 243.071,425.116 240.737,424.449 238.5,423.5C 238.5,422.5 238.5,421.5 238.5,420.5C 237.5,420.5 236.5,420.5 235.5,420.5C 235.5,421.5 235.5,422.5 235.5,423.5C 232.167,423.5 228.833,423.5 225.5,423.5C 225.5,422.5 225.5,421.5 225.5,420.5C 224.5,420.5 223.5,420.5 222.5,420.5C 222.343,422.818 221.176,424.484 219,425.5C 217.7,424.293 216.2,423.626 214.5,423.5C 213.947,419.544 213.114,419.544 212,423.5C 209.903,423.306 207.737,423.306 205.5,423.5C 205.331,422.603 204.998,421.603 204.5,420.5C 203.614,421.325 203.281,422.325 203.5,423.5C 201.723,423.786 200.056,424.453 198.5,425.5C 196.233,424.638 195.233,422.971 195.5,420.5C 183.5,420.5 171.5,420.5 159.5,420.5C 159.5,421.5 159.5,422.5 159.5,423.5C 156.785,424.451 153.951,425.117 151,425.5C 148.049,425.117 145.215,424.451 142.5,423.5C 142.5,422.5 142.5,421.5 142.5,420.5C 138.445,420.176 134.445,420.509 130.5,421.5C 131.804,423.016 131.304,423.682 129,423.5C 127.089,422.593 125.256,422.593 123.5,423.5C 122.494,423.062 122.494,422.396 123.5,421.5C 122.311,420.571 120.978,420.238 119.5,420.5C 119.8,423.244 118.633,424.911 116,425.5C 114.2,424.622 112.367,423.955 110.5,423.5C 110.5,422.5 110.5,421.5 110.5,420.5C 102.98,419.701 96.147,421.368 90,425.5C 88.5619,424.1 87.7286,422.433 87.5,420.5C 85.712,420.215 84.0453,420.548 82.5,421.5C 79.1521,425.947 75.1521,426.613 70.5,423.5C 70.5,422.5 70.5,421.5 70.5,420.5C 67.5,420.5 64.5,420.5 61.5,420.5C 61.5,421.5 61.5,422.5 61.5,423.5C 60.1667,423.5 58.8333,423.5 57.5,423.5C 57.5,422.5 57.5,421.5 57.5,420.5C 56.1667,420.5 54.8333,420.5 53.5,420.5C 52.4637,425.943 49.797,426.776 45.5,423C 45.9574,422.586 46.2907,422.086 46.5,421.5C 44.9547,420.548 43.288,420.215 41.5,420.5C 41.5,421.5 41.5,422.5 41.5,423.5C 35.6401,425.098 29.6401,425.765 23.5,425.5C 23.5,424.5 23.5,423.5 23.5,422.5C 19.5354,421.631 15.5354,420.798 11.5,420C 18.1221,381.363 28.4554,343.53 42.5,306.5C 47.58,296.672 52.4133,286.672 57,276.5C 57.3333,274.833 57.6667,273.167 58,271.5C 67.1355,254.979 77.1355,238.979 88,223.5C 88.5399,220.639 89.5399,217.972 91,215.5C 98.4622,206.551 105.296,197.218 111.5,187.5C 116.758,179.905 122.758,172.905 129.5,166.5C 131.01,165.164 132.677,163.997 134.5,163C 144.114,153.717 153.448,144.05 162.5,134C 163.5,133.667 164.5,133.333 165.5,133C 168.88,127.953 173.214,123.953 178.5,121C 179.386,119.385 180.386,117.885 181.5,116.5C 198.027,101.893 215.694,88.726 234.5,77C 243.932,72.2935 252.932,67.1268 261.5,61.5C 265.899,58.6339 270.566,56.3006 275.5,54.5C 288.926,48.6214 302.26,42.4547 315.5,36C 327.602,32.7987 339.602,29.2987 351.5,25.5C 432.368,1.85946 514.368,-1.97388 597.5,14C 611.962,17.0582 626.296,20.5582 640.5,24.5 Z"/></g>
<g><path style="opacity:1" fill="#fe9c53" d="M 486.5,5.5 C 618.845,5.20558 733.845,49.0389 831.5,137C 842.53,147.696 853.197,158.696 863.5,170C 861.866,170.494 860.199,170.66 858.5,170.5C 858.5,171.5 858.5,172.5 858.5,173.5C 856.5,173.833 854.5,174.167 852.5,174.5C 852.5,173.5 852.5,172.5 852.5,171.5C 849.167,172.167 845.833,172.833 842.5,173.5C 842.5,174.5 842.5,175.5 842.5,176.5C 840.833,176.5 839.167,176.5 837.5,176.5C 837.5,175.5 837.5,174.5 837.5,173.5C 835.833,173.5 834.167,173.5 832.5,173.5C 832.5,172.5 832.5,171.5 832.5,170.5C 829.5,170.5 826.5,170.5 823.5,170.5C 823.5,171.5 823.5,172.5 823.5,173.5C 821.833,173.5 820.167,173.5 818.5,173.5C 818.5,172.5 818.5,171.5 818.5,170.5C 813.394,170.477 808.394,169.811 803.5,168.5C 803.058,172.154 802.724,175.821 802.5,179.5C 801.5,179.5 800.5,179.5 799.5,179.5C 799.5,178.5 799.5,177.5 799.5,176.5C 796.02,175.771 792.686,174.771 789.5,173.5C 789.5,174.5 789.5,175.5 789.5,176.5C 787.833,176.5 786.167,176.5 784.5,176.5C 784.5,175.5 784.5,174.5 784.5,173.5C 781.167,173.5 777.833,173.5 774.5,173.5C 774.5,172.5 774.5,171.5 774.5,170.5C 770.582,170.729 766.915,171.729 763.5,173.5C 763.5,174.5 763.5,175.5 763.5,176.5C 761.857,176.48 760.524,177.147 759.5,178.5C 759.167,177.667 758.833,176.833 758.5,176C 759.378,174.2 760.045,172.367 760.5,170.5C 757.32,171.326 754.32,172.659 751.5,174.5C 749.889,173.68 749.222,172.346 749.5,170.5C 744.167,170.5 738.833,170.5 733.5,170.5C 732.833,172.5 732.167,174.5 731.5,176.5C 727.211,175.387 722.878,174.387 718.5,173.5C 718.5,172.5 718.5,171.5 718.5,170.5C 716.833,170.5 715.167,170.5 713.5,170.5C 713.5,171.5 713.5,172.5 713.5,173.5C 709.077,175.518 705.411,174.685 702.5,171C 700.866,170.506 699.199,170.34 697.5,170.5C 697.5,171.5 697.5,172.5 697.5,173.5C 696.5,173.5 695.5,173.5 694.5,173.5C 694.817,177.172 693.151,178.838 689.5,178.5C 689.5,176.833 689.5,175.167 689.5,173.5C 690.833,173.5 692.167,173.5 693.5,173.5C 693.5,172.5 693.5,171.5 693.5,170.5C 691.833,170.5 690.167,170.5 688.5,170.5C 688.719,171.675 688.386,172.675 687.5,173.5C 686.476,172.147 685.143,171.48 683.5,171.5C 683.5,170.5 683.5,169.5 683.5,168.5C 682.5,168.5 681.5,168.5 680.5,168.5C 680.785,170.288 680.452,171.955 679.5,173.5C 678.833,172.833 678.167,172.167 677.5,171.5C 673.61,174.743 669.276,175.41 664.5,173.5C 664.5,174.5 664.5,175.5 664.5,176.5C 661.833,176.5 659.167,176.5 656.5,176.5C 656.5,175.5 656.5,174.5 656.5,173.5C 653.025,171.979 649.358,170.979 645.5,170.5C 642.042,169.774 640.375,171.107 640.5,174.5C 636.999,174.368 634.165,175.702 632,178.5C 630.7,177.293 629.2,176.626 627.5,176.5C 627.5,175.5 627.5,174.5 627.5,173.5C 624.509,172.096 621.343,171.096 618,170.5C 615.863,171.077 613.696,171.41 611.5,171.5C 611.5,172.5 611.5,173.5 611.5,174.5C 609.833,174.5 608.167,174.5 606.5,174.5C 606.5,173.5 606.5,172.5 606.5,171.5C 604.263,172.449 601.929,173.116 599.5,173.5C 598.5,181.5 597.5,181.5 596.5,173.5C 594.833,173.5 593.167,173.5 591.5,173.5C 591.5,174.5 591.5,175.5 591.5,176.5C 590.167,176.5 588.833,176.5 587.5,176.5C 587.5,175.5 587.5,174.5 587.5,173.5C 585.833,173.5 584.167,173.5 582.5,173.5C 582.5,172.5 582.5,171.5 582.5,170.5C 579.167,170.5 575.833,170.5 572.5,170.5C 572.5,171.5 572.5,172.5 572.5,173.5C 570.833,173.5 569.167,173.5 567.5,173.5C 567.5,172.5 567.5,171.5 567.5,170.5C 565.833,170.5 564.167,170.5 562.5,170.5C 562.5,171.5 562.5,172.5 562.5,173.5C 555.147,173.717 547.814,173.883 540.5,174C 539.773,172.601 539.273,171.101 539,169.5C 535.427,170.035 532.26,171.368 529.5,173.5C 527.956,173.21 526.623,172.544 525.5,171.5C 523.633,174.229 522.633,173.896 522.5,170.5C 518.759,169.599 516.759,170.932 516.5,174.5C 514.5,175.167 512.5,175.833 510.5,176.5C 509.833,174.5 509.167,172.5 508.5,170.5C 507.5,170.5 506.5,170.5 505.5,170.5C 505.5,171.5 505.5,172.5 505.5,173.5C 503.833,173.5 502.167,173.5 500.5,173.5C 500.5,174.5 500.5,175.5 500.5,176.5C 498.833,176.5 497.167,176.5 495.5,176.5C 495.5,175.5 495.5,174.5 495.5,173.5C 493.833,173.5 492.167,173.5 490.5,173.5C 490.5,175.167 490.5,176.833 490.5,178.5C 488.833,178.5 487.167,178.5 485.5,178.5C 485.5,175.833 485.5,173.167 485.5,170.5C 484.167,170.5 482.833,170.5 481.5,170.5C 481.5,172.5 481.5,174.5 481.5,176.5C 478.167,176.5 474.833,176.5 471.5,176.5C 471.5,177.5 471.5,178.5 471.5,179.5C 467.092,179.938 465.425,177.938 466.5,173.5C 464.833,173.5 463.167,173.5 461.5,173.5C 461.5,172.5 461.5,171.5 461.5,170.5C 455.833,170.5 450.167,170.5 444.5,170.5C 444.5,171.5 444.5,172.5 444.5,173.5C 439.742,174.865 435.242,174.199 431,171.5C 430.05,172.022 429.216,172.689 428.5,173.5C 427.904,172.284 427.737,170.951 428,169.5C 426.644,170.38 425.144,170.714 423.5,170.5C 423.5,171.5 423.5,172.5 423.5,173.5C 421.833,173.5 420.167,173.5 418.5,173.5C 418.5,174.5 418.5,175.5 418.5,176.5C 416.833,176.5 415.167,176.5 413.5,176.5C 413.5,174.5 413.5,172.5 413.5,170.5C 412.5,170.5 411.5,170.5 410.5,170.5C 410.5,171.5 410.5,172.5 410.5,173.5C 405.015,173.356 400.348,175.022 396.5,178.5C 394.354,177.106 392.021,176.44 389.5,176.5C 389.5,175.5 389.5,174.5 389.5,173.5C 387.833,173.5 386.167,173.5 384.5,173.5C 384.5,172.5 384.5,171.5 384.5,170.5C 382.833,170.5 381.167,170.5 379.5,170.5C 379.5,173.5 379.5,176.5 379.5,179.5C 378.5,179.5 377.5,179.5 376.5,179.5C 376.708,177.08 376.374,174.747 375.5,172.5C 372.294,171.192 368.96,170.525 365.5,170.5C 365.5,171.5 365.5,172.5 365.5,173.5C 363.833,173.5 362.167,173.5 360.5,173.5C 360.5,172.5 360.5,171.5 360.5,170.5C 357.833,170.5 355.167,170.5 352.5,170.5C 352.671,173.797 352.005,174.131 350.5,171.5C 348.821,173.104 346.821,173.771 344.5,173.5C 344.5,174.5 344.5,175.5 344.5,176.5C 339.131,175.993 333.798,175.159 328.5,174C 327.692,173.692 327.025,173.192 326.5,172.5C 327.326,171.549 327.492,170.549 327,169.5C 325.644,170.38 324.144,170.714 322.5,170.5C 322.5,172.5 322.5,174.5 322.5,176.5C 319.167,176.5 315.833,176.5 312.5,176.5C 312.5,175.5 312.5,174.5 312.5,173.5C 309.167,173.5 305.833,173.5 302.5,173.5C 302.5,174.5 302.5,175.5 302.5,176.5C 299.5,176.5 296.5,176.5 293.5,176.5C 293.5,175.5 293.5,174.5 293.5,173.5C 286.727,173.121 280.06,172.121 273.5,170.5C 273.5,171.5 273.5,172.5 273.5,173.5C 272.167,173.5 270.833,173.5 269.5,173.5C 269.5,172.5 269.5,171.5 269.5,170.5C 266.833,170.5 264.167,170.5 261.5,170.5C 260.833,172.5 260.167,174.5 259.5,176.5C 256.02,175.771 252.686,174.771 249.5,173.5C 249.5,171.833 249.5,170.167 249.5,168.5C 245.63,169.799 241.63,170.466 237.5,170.5C 237.367,173.896 236.367,174.229 234.5,171.5C 231.909,174.31 228.909,174.977 225.5,173.5C 225.5,172.5 225.5,171.5 225.5,170.5C 223.833,170.5 222.167,170.5 220.5,170.5C 220.5,171.5 220.5,172.5 220.5,173.5C 219.167,173.5 217.833,173.5 216.5,173.5C 216.5,172.5 216.5,171.5 216.5,170.5C 213.167,169.833 209.833,169.167 206.5,168.5C 206.5,169.5 206.5,170.5 206.5,171.5C 204.833,171.5 203.167,171.5 201.5,171.5C 201.5,172.5 201.5,173.5 201.5,174.5C 197.074,175.547 192.741,176.88 188.5,178.5C 188.5,177.167 188.5,175.833 188.5,174.5C 181.543,173.614 174.543,173.28 167.5,173.5C 167.5,172.5 167.5,171.5 167.5,170.5C 166.167,170.5 164.833,170.5 163.5,170.5C 163.664,173.187 163.497,175.854 163,178.5C 161.989,179.337 160.822,179.67 159.5,179.5C 159.261,177.533 159.594,175.699 160.5,174C 157.503,174.727 154.837,173.893 152.5,171.5C 151.476,172.853 150.143,173.52 148.5,173.5C 148.5,174.5 148.5,175.5 148.5,176.5C 142.268,175.094 135.935,173.928 129.5,173C 225.157,68.1797 344.157,12.3464 486.5,5.5 Z"/></g>
<g><path style="opacity:0.32" fill="#ffcd6d" d="M 466.5,-0.5 C 487.5,-0.5 508.5,-0.5 529.5,-0.5C 604.65,4.82472 675.317,25.6581 741.5,62C 747.734,65.6082 753.734,69.4415 759.5,73.5C 756.332,72.1362 752.999,71.3028 749.5,71C 745.02,67.843 740.687,64.5097 736.5,61C 734.593,59.878 732.593,59.0447 730.5,58.5C 710.834,46.841 689.834,38.1743 667.5,32.5C 667.64,30.8762 666.973,29.7096 665.5,29C 635.722,19.1272 605.389,11.4605 574.5,6C 565.228,4.44536 555.895,3.61202 546.5,3.5C 486.614,-3.34131 427.614,1.32536 369.5,17.5C 349.841,22.4977 330.508,28.4977 311.5,35.5C 361.23,15.1508 412.897,3.15076 466.5,-0.5 Z"/></g>
<g><path style="opacity:1" fill="#ffa85a" d="M 546.5,3.5 C 575.67,7.58986 604.67,13.4232 633.5,21C 636.281,21.5218 638.615,22.6885 640.5,24.5C 626.296,20.5582 611.962,17.0582 597.5,14C 514.368,-1.97388 432.368,1.85946 351.5,25.5C 357.181,22.2668 363.181,19.6001 369.5,17.5C 390.58,13.8498 411.58,10.0165 432.5,6C 470.437,2.39924 508.437,1.56591 546.5,3.5 Z"/></g>
<g><path style="opacity:1" fill="#ffb963" d="M 546.5,3.5 C 508.437,1.56591 470.437,2.39924 432.5,6C 411.58,10.0165 390.58,13.8498 369.5,17.5C 427.614,1.32536 486.614,-3.34131 546.5,3.5 Z"/></g>
<g><path style="opacity:1" fill="#ffb15e" d="M 546.5,3.5 C 555.895,3.61202 565.228,4.44536 574.5,6C 605.389,11.4605 635.722,19.1272 665.5,29C 666.973,29.7096 667.64,30.8762 667.5,32.5C 689.834,38.1743 710.834,46.841 730.5,58.5C 723.308,55.7452 715.975,53.2452 708.5,51C 686.284,40.7146 663.618,31.8812 640.5,24.5C 638.615,22.6885 636.281,21.5218 633.5,21C 604.67,13.4232 575.67,7.58986 546.5,3.5 Z"/></g>
<g><path style="opacity:1" fill="#ffb762" d="M 369.5,17.5 C 363.181,19.6001 357.181,22.2668 351.5,25.5C 339.602,29.2987 327.602,32.7987 315.5,36C 302.26,42.4547 288.926,48.6214 275.5,54.5C 276.716,52.5491 278.382,51.0491 280.5,50C 291.196,45.6485 301.529,40.8152 311.5,35.5C 330.508,28.4977 349.841,22.4977 369.5,17.5 Z"/></g>
<g><path style="opacity:1" fill="#ffcb6c" d="M 311.5,35.5 C 301.529,40.8152 291.196,45.6485 280.5,50C 278.382,51.0491 276.716,52.5491 275.5,54.5C 270.566,56.3006 265.899,58.6339 261.5,61.5C 257.952,61.9493 254.619,62.9493 251.5,64.5C 270.403,52.7164 290.403,43.0497 311.5,35.5 Z"/></g>
<g><path style="opacity:0.308" fill="#ffce6e" d="M 251.5,64.5 C 206.224,91.5687 165.391,124.569 129,163.5C 120.884,172.438 113.384,181.771 106.5,191.5C 100.5,198.833 94.5,206.167 88.5,213.5C 131.152,150.839 185.486,101.172 251.5,64.5 Z"/></g>
<g><path style="opacity:0.843" fill="#ffcc6d" d="M 759.5,73.5 C 800.573,97.9099 836.907,128.243 868.5,164.5C 856.368,152.869 844.368,141.035 832.5,129C 829.271,126.259 825.938,123.759 822.5,121.5C 815.05,114.894 807.383,108.394 799.5,102C 785.847,92.6987 772.514,83.1987 759.5,73.5 Z"/></g>
<g><path style="opacity:1" fill="#ffbc64" d="M 261.5,61.5 C 252.932,67.1268 243.932,72.2935 234.5,77C 215.694,88.726 198.027,101.893 181.5,116.5C 162.57,131.429 145.236,148.095 129.5,166.5C 122.758,172.905 116.758,179.905 111.5,187.5C 109.833,188.5 108.5,189.833 107.5,191.5C 107.167,191.5 106.833,191.5 106.5,191.5C 113.384,181.771 120.884,172.438 129,163.5C 165.391,124.569 206.224,91.5687 251.5,64.5C 254.619,62.9493 257.952,61.9493 261.5,61.5 Z"/></g>
<g><path style="opacity:1" fill="#ffab5b" d="M 181.5,116.5 C 180.386,117.885 179.386,119.385 178.5,121C 173.214,123.953 168.88,127.953 165.5,133C 164.5,133.333 163.5,133.667 162.5,134C 153.448,144.05 144.114,153.717 134.5,163C 132.677,163.997 131.01,165.164 129.5,166.5C 145.236,148.095 162.57,131.429 181.5,116.5 Z"/></g>
<g><path style="opacity:1" fill="#ffac5b" d="M 730.5,58.5 C 732.593,59.0447 734.593,59.878 736.5,61C 740.687,64.5097 745.02,67.843 749.5,71C 752.999,71.3028 756.332,72.1362 759.5,73.5C 772.514,83.1987 785.847,92.6987 799.5,102C 807.383,108.394 815.05,114.894 822.5,121.5C 844.317,141.824 865.15,163.491 885,186.5C 886.439,188.275 887.439,190.275 888,192.5C 895.428,200.425 902.594,208.425 909.5,216.5C 910.698,220.572 912.198,224.572 914,228.5C 918.567,234.826 923.4,240.826 928.5,246.5C 931.777,255.663 936.277,264.33 942,272.5C 943.956,280.748 947.29,288.415 952,295.5C 952.49,296.793 952.657,298.127 952.5,299.5C 949.583,295.334 946.916,291.001 944.5,286.5C 939.225,277.614 934.725,268.28 931,258.5C 930.075,257.953 929.242,257.287 928.5,256.5C 899.174,203.656 861.174,157.822 814.5,119C 811.77,116.87 809.77,114.203 808.5,111C 806.833,110.667 805.167,110.333 803.5,110C 794.222,102.669 784.889,95.3358 775.5,88C 765.035,82.2662 754.702,76.2662 744.5,70C 739.278,66.5892 734.611,62.7559 730.5,58.5 Z"/></g>
<g><path style="opacity:1" fill="#ffc368" d="M 822.5,121.5 C 825.938,123.759 829.271,126.259 832.5,129C 844.368,141.035 856.368,152.869 868.5,164.5C 884.092,180.371 897.759,197.704 909.5,216.5C 902.594,208.425 895.428,200.425 888,192.5C 887.439,190.275 886.439,188.275 885,186.5C 865.15,163.491 844.317,141.824 822.5,121.5 Z"/></g>
<g><path style="opacity:1" fill="#ffc367" d="M 106.5,191.5 C 106.833,191.5 107.167,191.5 107.5,191.5C 97.2633,203.566 88.4299,216.566 81,230.5C 73.2315,240.366 66.7315,251.033 61.5,262.5C 57.4312,266.323 54.0979,270.656 51.5,275.5C 61.823,253.502 74.1564,232.835 88.5,213.5C 94.5,206.167 100.5,198.833 106.5,191.5 Z"/></g>
<g><path style="opacity:1" fill="#fffefe" d="M 541.5,422.5 C 546.355,444.841 560.021,453.674 582.5,449C 594.631,443.357 601.631,433.857 603.5,420.5C 604.003,400.005 596.67,382.838 581.5,369C 582,368.833 582.5,368.667 583,368.5C 614.692,378.411 640.192,396.744 659.5,423.5C 693.088,474.671 698.921,529.004 677,586.5C 657.741,631.936 624.574,661.603 577.5,675.5C 572.773,675.779 568.107,676.446 563.5,677.5C 592.601,656.219 605.434,626.886 602,589.5C 599.743,575.389 594.743,562.389 587,550.5C 587.968,591.443 569.134,618.277 530.5,631C 526.534,631.828 522.534,632.328 518.5,632.5C 516.585,632.784 514.919,632.451 513.5,631.5C 542.955,622.848 555.789,603.181 552,572.5C 541.651,544.397 521.485,532.23 491.5,536C 465.081,544.082 452.247,561.916 453,589.5C 453.539,592.529 454.206,595.529 455,598.5C 457.486,604.462 460.153,610.129 463,615.5C 444.396,598.707 435.729,577.707 437,552.5C 418.863,591.479 420.863,629.479 443,666.5C 446.32,671.647 450.153,676.314 454.5,680.5C 468.034,695.171 484.367,705.671 503.5,712C 531.289,719.837 559.289,720.503 587.5,714C 598.534,710.135 609.201,705.802 619.5,701C 568.273,744.517 509.94,757.85 444.5,741C 407.163,729.804 376.496,708.971 352.5,678.5C 316.929,629.889 302.762,575.555 310,515.5C 313.05,496.412 319.717,478.745 330,462.5C 329.389,477.66 333.056,491.66 341,504.5C 343.333,506.833 345.667,509.167 348,511.5C 347.888,495.835 352.221,481.501 361,468.5C 373.24,451.427 387.073,435.76 402.5,421.5C 413.335,412.168 424.335,403.001 435.5,394C 453.79,377.381 470.29,359.214 485,339.5C 508.906,304.052 511.906,267.052 494,228.5C 535.318,270.118 552.984,320.118 547,378.5C 542.242,392.795 540.408,407.461 541.5,422.5 Z"/></g>
<g><path style="opacity:1" fill="#ffc869" d="M 909.5,216.5 C 916.83,225.816 923.163,235.816 928.5,246.5C 923.4,240.826 918.567,234.826 914,228.5C 912.198,224.572 910.698,220.572 909.5,216.5 Z"/></g>
<g><path style="opacity:1" fill="#ffae5b" d="M 111.5,187.5 C 105.296,197.218 98.4622,206.551 91,215.5C 89.5399,217.972 88.5399,220.639 88,223.5C 77.1355,238.979 67.1355,254.979 58,271.5C 57.6667,273.167 57.3333,274.833 57,276.5C 52.4133,286.672 47.58,296.672 42.5,306.5C 37.2445,317.14 32.9111,328.306 29.5,340C 26.8229,343.571 24.8229,347.404 23.5,351.5C 25.2288,343.343 27.3955,335.343 30,327.5C 37.4154,310.257 44.582,292.924 51.5,275.5C 54.0979,270.656 57.4312,266.323 61.5,262.5C 66.7315,251.033 73.2315,240.366 81,230.5C 88.4299,216.566 97.2633,203.566 107.5,191.5C 108.5,189.833 109.833,188.5 111.5,187.5 Z"/></g>
<g><path style="opacity:0.425" fill="#ffca68" d="M 928.5,246.5 C 957.451,294.827 977.284,346.827 988,402.5C 991.832,423.852 994.666,445.186 996.5,466.5C 996.5,487.5 996.5,508.5 996.5,529.5C 996.167,529.5 995.833,529.5 995.5,529.5C 994.833,531.5 994.167,533.5 993.5,535.5C 995.915,488.455 993.082,441.789 985,395.5C 983.631,390.336 982.131,385.336 980.5,380.5C 979.178,374.208 978.011,367.875 977,361.5C 973.997,355.49 971.997,349.157 971,342.5C 967.83,333.656 964.663,324.822 961.5,316C 961.164,314.97 960.497,314.47 959.5,314.5C 957.362,309.423 955.028,304.423 952.5,299.5C 952.657,298.127 952.49,296.793 952,295.5C 947.29,288.415 943.956,280.748 942,272.5C 936.277,264.33 931.777,255.663 928.5,246.5 Z"/></g>
<g><path style="opacity:0.99" fill="#ffcc6a" d="M 51.5,275.5 C 44.582,292.924 37.4154,310.257 30,327.5C 27.3955,335.343 25.2288,343.343 23.5,351.5C 22.5902,353.019 21.7568,354.685 21,356.5C 17.6687,371.159 14.3353,385.826 11,400.5C 10.0575,403.374 8.89085,406.04 7.5,408.5C 15.3954,361.815 30.0621,317.481 51.5,275.5 Z"/></g>
<g><path style="opacity:1" fill="#ffb55d" d="M 959.5,314.5 C 960.497,314.47 961.164,314.97 961.5,316C 964.663,324.822 967.83,333.656 971,342.5C 971.997,349.157 973.997,355.49 977,361.5C 978.011,367.875 979.178,374.208 980.5,380.5C 978.903,379.263 977.737,377.596 977,375.5C 975.939,370.896 975.273,366.229 975,361.5C 970.565,353.858 967.899,345.525 967,336.5C 962.551,329.913 960.051,322.579 959.5,314.5 Z"/></g>
<g><path style="opacity:1" fill="#ffb859" d="M 980.5,380.5 C 982.131,385.336 983.631,390.336 985,395.5C 993.082,441.789 995.915,488.455 993.5,535.5C 993.065,554.379 990.898,573.046 987,591.5C 978.929,630.37 966.929,667.703 951,703.5C 939.273,724.966 927.607,746.299 916,767.5C 910.546,773.108 905.713,779.108 901.5,785.5C 903.213,782.14 904.88,778.807 906.5,775.5C 934.152,734.194 955.985,689.861 972,642.5C 977.599,618.497 982.933,594.497 988,570.5C 989.813,558.555 991.147,546.555 992,534.5C 992.667,511.167 992.667,487.833 992,464.5C 991.71,457.62 990.877,450.954 989.5,444.5C 989.666,439.489 989.499,434.489 989,429.5C 985.624,413.433 982.791,397.099 980.5,380.5 Z"/></g>
<g><path style="opacity:1" fill="#ffa54f" d="M 42.5,306.5 C 28.4554,343.53 18.1221,381.363 11.5,420C 15.5354,420.798 19.5354,421.631 23.5,422.5C 23.5,423.5 23.5,424.5 23.5,425.5C 29.6401,425.765 35.6401,425.098 41.5,423.5C 41.5,422.5 41.5,421.5 41.5,420.5C 43.288,420.215 44.9547,420.548 46.5,421.5C 46.2907,422.086 45.9574,422.586 45.5,423C 49.797,426.776 52.4637,425.943 53.5,420.5C 54.8333,420.5 56.1667,420.5 57.5,420.5C 57.5,421.5 57.5,422.5 57.5,423.5C 58.8333,423.5 60.1667,423.5 61.5,423.5C 61.5,422.5 61.5,421.5 61.5,420.5C 64.5,420.5 67.5,420.5 70.5,420.5C 70.5,421.5 70.5,422.5 70.5,423.5C 75.1521,426.613 79.1521,425.947 82.5,421.5C 84.0453,420.548 85.712,420.215 87.5,420.5C 87.7286,422.433 88.5619,424.1 90,425.5C 96.147,421.368 102.98,419.701 110.5,420.5C 110.5,421.5 110.5,422.5 110.5,423.5C 112.367,423.955 114.2,424.622 116,425.5C 118.633,424.911 119.8,423.244 119.5,420.5C 120.978,420.238 122.311,420.571 123.5,421.5C 122.494,422.396 122.494,423.062 123.5,423.5C 125.256,422.593 127.089,422.593 129,423.5C 131.304,423.682 131.804,423.016 130.5,421.5C 134.445,420.509 138.445,420.176 142.5,420.5C 142.5,421.5 142.5,422.5 142.5,423.5C 145.215,424.451 148.049,425.117 151,425.5C 153.951,425.117 156.785,424.451 159.5,423.5C 159.5,422.5 159.5,421.5 159.5,420.5C 171.5,420.5 183.5,420.5 195.5,420.5C 195.233,422.971 196.233,424.638 198.5,425.5C 200.056,424.453 201.723,423.786 203.5,423.5C 203.281,422.325 203.614,421.325 204.5,420.5C 204.998,421.603 205.331,422.603 205.5,423.5C 207.737,423.306 209.903,423.306 212,423.5C 213.114,419.544 213.947,419.544 214.5,423.5C 216.2,423.626 217.7,424.293 219,425.5C 221.176,424.484 222.343,422.818 222.5,420.5C 223.5,420.5 224.5,420.5 225.5,420.5C 225.5,421.5 225.5,422.5 225.5,423.5C 228.833,423.5 232.167,423.5 235.5,423.5C 235.5,422.5 235.5,421.5 235.5,420.5C 236.5,420.5 237.5,420.5 238.5,420.5C 238.5,421.5 238.5,422.5 238.5,423.5C 240.737,424.449 243.071,425.116 245.5,425.5C 245.5,424.5 245.5,423.5 245.5,422.5C 246.833,422.5 248.167,422.5 249.5,422.5C 249.5,423.5 249.5,424.5 249.5,425.5C 252.833,424.833 256.167,424.167 259.5,423.5C 259.5,422.5 259.5,421.5 259.5,420.5C 262.167,420.5 264.833,420.5 267.5,420.5C 267.281,421.675 267.614,422.675 268.5,423.5C 272.21,426.152 274.543,425.152 275.5,420.5C 276.5,420.5 277.5,420.5 278.5,420.5C 278.5,421.5 278.5,422.5 278.5,423.5C 280.167,423.5 281.833,423.5 283.5,423.5C 283.5,422.5 283.5,421.5 283.5,420.5C 285.167,420.5 286.833,420.5 288.5,420.5C 288.5,421.5 288.5,422.5 288.5,423.5C 290.167,423.5 291.833,423.5 293.5,423.5C 293.5,422.5 293.5,421.5 293.5,420.5C 296.167,420.5 298.833,420.5 301.5,420.5C 301.421,421.93 301.754,423.264 302.5,424.5C 306.429,425.994 308.762,424.66 309.5,420.5C 310.5,420.5 311.5,420.5 312.5,420.5C 312.5,421.5 312.5,422.5 312.5,423.5C 315.686,422.229 319.02,421.229 322.5,420.5C 322.5,421.5 322.5,422.5 322.5,423.5C 324.774,423.715 326.941,424.382 329,425.5C 332.066,423.053 335.066,423.053 338,425.5C 339.3,424.293 340.8,423.626 342.5,423.5C 342.5,422.5 342.5,421.5 342.5,420.5C 346.833,420.5 351.167,420.5 355.5,420.5C 355.5,421.5 355.5,422.5 355.5,423.5C 362.89,423.463 370.224,424.13 377.5,425.5C 380.766,425.248 383.933,424.582 387,423.5C 390.496,426.201 393.329,425.535 395.5,421.5C 397.973,420.203 400.307,420.203 402.5,421.5C 387.073,435.76 373.24,451.427 361,468.5C 352.221,481.501 347.888,495.835 348,511.5C 345.667,509.167 343.333,506.833 341,504.5C 333.056,491.66 329.389,477.66 330,462.5C 319.717,478.745 313.05,496.412 310,515.5C 302.762,575.555 316.929,629.889 352.5,678.5C 340.895,679.81 329.228,679.81 317.5,678.5C 314.316,676.89 310.983,675.89 307.5,675.5C 307.5,676.833 307.5,678.167 307.5,679.5C 301.856,679.908 296.356,679.241 291,677.5C 284.929,679.723 278.763,680.39 272.5,679.5C 272.5,678.167 272.5,676.833 272.5,675.5C 271.5,675.5 270.5,675.5 269.5,675.5C 269.5,676.833 269.5,678.167 269.5,679.5C 264.5,679.5 259.5,679.5 254.5,679.5C 254.5,678.167 254.5,676.833 254.5,675.5C 252.833,675.5 251.167,675.5 249.5,675.5C 249.5,676.833 249.5,678.167 249.5,679.5C 245.833,680.833 242.167,680.833 238.5,679.5C 238.5,678.167 238.5,676.833 238.5,675.5C 237.5,675.5 236.5,675.5 235.5,675.5C 235.5,676.833 235.5,678.167 235.5,679.5C 232.483,677.57 229.149,676.237 225.5,675.5C 225.5,676.833 225.5,678.167 225.5,679.5C 212.814,679.72 200.148,679.72 187.5,679.5C 187.5,678.167 187.5,676.833 187.5,675.5C 184.017,675.89 180.684,676.89 177.5,678.5C 171.202,679.496 164.868,679.83 158.5,679.5C 158.5,678.167 158.5,676.833 158.5,675.5C 157.5,675.5 156.5,675.5 155.5,675.5C 155.5,676.833 155.5,678.167 155.5,679.5C 150.035,680.671 144.868,680.005 140,677.5C 139.692,678.308 139.192,678.975 138.5,679.5C 137.571,678.311 137.238,676.978 137.5,675.5C 125.892,674.944 114.392,675.611 103,677.5C 98.99,675.865 94.8233,675.198 90.5,675.5C 90.5,676.833 90.5,678.167 90.5,679.5C 82.5074,680.703 74.5074,680.703 66.5,679.5C 66.5,678.167 66.5,676.833 66.5,675.5C 64.8333,675.5 63.1667,675.5 61.5,675.5C 61.5,676.833 61.5,678.167 61.5,679.5C 60.1667,679.5 58.8333,679.5 57.5,679.5C 57.5,678.167 57.5,676.833 57.5,675.5C 55.8333,675.5 54.1667,675.5 52.5,675.5C 52.5,676.833 52.5,678.167 52.5,679.5C 50.8333,679.5 49.1667,679.5 47.5,679.5C 47.5,677.833 47.5,676.167 47.5,674.5C 46.5,674.5 45.5,674.5 44.5,674.5C 43.4664,681.619 41.6331,681.952 39,675.5C 29.8163,650.79 21.983,625.79 15.5,600.5C -0.336102,523.642 1.1639,447.309 20,371.5C 20.8583,364.678 22.025,358.012 23.5,351.5C 24.8229,347.404 26.8229,343.571 29.5,340C 32.9111,328.306 37.2445,317.14 42.5,306.5 Z"/></g>
<g><path style="opacity:1" fill="#ffa351" d="M 603.5,420.5 C 601.631,433.857 594.631,443.357 582.5,449C 560.021,453.674 546.355,444.841 541.5,422.5C 542.607,423.992 544.107,424.992 546,425.5C 548.763,424.907 550.263,423.24 550.5,420.5C 553.167,420.5 555.833,420.5 558.5,420.5C 558.5,421.5 558.5,422.5 558.5,423.5C 561.436,424.406 564.436,425.072 567.5,425.5C 567.5,424.5 567.5,423.5 567.5,422.5C 572.394,421.189 577.394,420.523 582.5,420.5C 582.5,421.5 582.5,422.5 582.5,423.5C 584.367,423.955 586.2,424.622 588,425.5C 589.8,424.622 591.633,423.955 593.5,423.5C 593.5,422.5 593.5,421.5 593.5,420.5C 596.833,420.5 600.167,420.5 603.5,420.5 Z"/></g>
<g><path style="opacity:1" fill="#ffa54f" d="M 944.5,286.5 C 946.916,291.001 949.583,295.334 952.5,299.5C 955.028,304.423 957.362,309.423 959.5,314.5C 960.051,322.579 962.551,329.913 967,336.5C 967.899,345.525 970.565,353.858 975,361.5C 975.273,366.229 975.939,370.896 977,375.5C 977.737,377.596 978.903,379.263 980.5,380.5C 982.791,397.099 985.624,413.433 989,429.5C 989.499,434.489 989.666,439.489 989.5,444.5C 995.136,503.724 990.303,562.058 975,619.5C 969.778,638.396 963.945,657.062 957.5,675.5C 956.167,675.5 954.833,675.5 953.5,675.5C 953.5,676.833 953.5,678.167 953.5,679.5C 951.833,679.5 950.167,679.5 948.5,679.5C 948.5,678.167 948.5,676.833 948.5,675.5C 946.833,675.5 945.167,675.5 943.5,675.5C 943.5,676.833 943.5,678.167 943.5,679.5C 932.128,680.03 920.795,680.03 909.5,679.5C 909.5,678.167 909.5,676.833 909.5,675.5C 908.167,675.5 906.833,675.5 905.5,675.5C 905.5,676.833 905.5,678.167 905.5,679.5C 902.167,679.5 898.833,679.5 895.5,679.5C 895.5,678.167 895.5,676.833 895.5,675.5C 893.833,675.5 892.167,675.5 890.5,675.5C 890.5,676.833 890.5,678.167 890.5,679.5C 888.833,679.5 887.167,679.5 885.5,679.5C 885.5,678.167 885.5,676.833 885.5,675.5C 882.5,675.5 879.5,675.5 876.5,675.5C 876.5,676.833 876.5,678.167 876.5,679.5C 871.5,679.5 866.5,679.5 861.5,679.5C 861.5,678.167 861.5,676.833 861.5,675.5C 858.5,675.5 855.5,675.5 852.5,675.5C 852.5,676.833 852.5,678.167 852.5,679.5C 849.824,680.008 847.157,680.175 844.5,680C 842.52,677.836 840.187,676.336 837.5,675.5C 837.5,676.833 837.5,678.167 837.5,679.5C 832.797,679.437 828.13,679.771 823.5,680.5C 823.5,678.833 823.5,677.167 823.5,675.5C 821.833,675.5 820.167,675.5 818.5,675.5C 818.5,676.833 818.5,678.167 818.5,679.5C 813.5,679.5 808.5,679.5 803.5,679.5C 803.5,678.167 803.5,676.833 803.5,675.5C 797.201,676.96 790.868,678.293 784.5,679.5C 784.5,678.167 784.5,676.833 784.5,675.5C 781.167,675.5 777.833,675.5 774.5,675.5C 774.5,676.833 774.5,678.167 774.5,679.5C 769.833,679.5 765.167,679.5 760.5,679.5C 760.5,678.167 760.5,676.833 760.5,675.5C 758.833,675.5 757.167,675.5 755.5,675.5C 755.5,676.833 755.5,678.167 755.5,679.5C 753.833,679.5 752.167,679.5 750.5,679.5C 750.5,678.167 750.5,676.833 750.5,675.5C 747.833,675.5 745.167,675.5 742.5,675.5C 742.5,676.833 742.5,678.167 742.5,679.5C 739.833,679.5 737.167,679.5 734.5,679.5C 734.5,678.167 734.5,676.833 734.5,675.5C 733.5,675.5 732.5,675.5 731.5,675.5C 731.5,676.833 731.5,678.167 731.5,679.5C 725.116,680.11 718.783,680.11 712.5,679.5C 712.5,678.167 712.5,676.833 712.5,675.5C 710.833,675.5 709.167,675.5 707.5,675.5C 707.5,676.833 707.5,678.167 707.5,679.5C 705.833,679.5 704.167,679.5 702.5,679.5C 702.5,678.167 702.5,676.833 702.5,675.5C 700.833,675.5 699.167,675.5 697.5,675.5C 697.5,676.833 697.5,678.167 697.5,679.5C 692.905,677.929 688.238,676.596 683.5,675.5C 683.5,674.5 683.5,673.5 683.5,672.5C 679.197,672.735 677.53,675.069 678.5,679.5C 675.479,679.097 672.979,677.764 671,675.5C 669.175,675.057 667.342,674.723 665.5,674.5C 665.167,676.5 664.833,678.5 664.5,680.5C 662.833,680.5 661.167,680.5 659.5,680.5C 659.167,677.5 657.5,675.833 654.5,675.5C 654.5,676.833 654.5,678.167 654.5,679.5C 649.833,679.5 645.167,679.5 640.5,679.5C 640.5,678.167 640.5,676.833 640.5,675.5C 637.167,675.5 633.833,675.5 630.5,675.5C 630.5,676.833 630.5,678.167 630.5,679.5C 628.833,679.5 627.167,679.5 625.5,679.5C 625.5,678.167 625.5,676.833 625.5,675.5C 623.833,675.5 622.167,675.5 620.5,675.5C 620.5,676.833 620.5,678.167 620.5,679.5C 613.426,679.844 606.426,679.844 599.5,679.5C 599.5,678.167 599.5,676.833 599.5,675.5C 593.833,675.5 588.167,675.5 582.5,675.5C 582.5,676.833 582.5,678.167 582.5,679.5C 580.833,679.5 579.167,679.5 577.5,679.5C 577.5,678.167 577.5,676.833 577.5,675.5C 624.574,661.603 657.741,631.936 677,586.5C 698.921,529.004 693.088,474.671 659.5,423.5C 661.167,423.5 662.833,423.5 664.5,423.5C 664.5,422.5 664.5,421.5 664.5,420.5C 665.833,420.5 667.167,420.5 668.5,420.5C 668.5,421.5 668.5,422.5 668.5,423.5C 670.167,423.5 671.833,423.5 673.5,423.5C 673.5,422.5 673.5,421.5 673.5,420.5C 674.833,420.5 676.167,420.5 677.5,420.5C 677.5,421.5 677.5,422.5 677.5,423.5C 680.187,423.664 682.854,423.497 685.5,423C 685.043,422.586 684.709,422.086 684.5,421.5C 686.045,420.548 687.712,420.215 689.5,420.5C 689.5,421.5 689.5,422.5 689.5,423.5C 692.28,424.229 695.113,424.896 698,425.5C 702.745,424.117 707.578,423.45 712.5,423.5C 712.5,422.5 712.5,421.5 712.5,420.5C 713.5,420.5 714.5,420.5 715.5,420.5C 715.5,421.5 715.5,422.5 715.5,423.5C 717.743,424.312 720.076,424.979 722.5,425.5C 727.064,424.053 731.731,423.387 736.5,423.5C 736.5,422.5 736.5,421.5 736.5,420.5C 738.167,420.5 739.833,420.5 741.5,420.5C 741.5,421.5 741.5,422.5 741.5,423.5C 746.621,423.313 751.621,423.313 756.5,423.5C 757.386,422.675 757.719,421.675 757.5,420.5C 763.167,420.5 768.833,420.5 774.5,420.5C 774.5,421.5 774.5,422.5 774.5,423.5C 777.833,423.5 781.167,423.5 784.5,423.5C 784.5,422.5 784.5,421.5 784.5,420.5C 787.833,420.5 791.167,420.5 794.5,420.5C 794.5,421.5 794.5,422.5 794.5,423.5C 799.621,423.313 804.621,423.313 809.5,423.5C 810.386,422.675 810.719,421.675 810.5,420.5C 812.167,420.5 813.833,420.5 815.5,420.5C 815.421,421.93 815.754,423.264 816.5,424.5C 820.429,425.994 822.762,424.66 823.5,420.5C 824.5,420.5 825.5,420.5 826.5,420.5C 826.5,421.5 826.5,422.5 826.5,423.5C 828.2,423.626 829.7,424.293 831,425.5C 833.176,424.484 834.343,422.818 834.5,420.5C 838.167,420.5 841.833,420.5 845.5,420.5C 845.5,421.5 845.5,422.5 845.5,423.5C 848.167,423.5 850.833,423.5 853.5,423.5C 853.5,422.5 853.5,421.5 853.5,420.5C 854.5,420.5 855.5,420.5 856.5,420.5C 856.5,421.5 856.5,422.5 856.5,423.5C 858.167,423.5 859.833,423.5 861.5,423.5C 861.5,422.5 861.5,421.5 861.5,420.5C 866.5,420.5 871.5,420.5 876.5,420.5C 876.5,421.5 876.5,422.5 876.5,423.5C 880.224,423.106 883.724,423.773 887,425.5C 889.176,424.484 890.343,422.818 890.5,420.5C 891.5,420.5 892.5,420.5 893.5,420.5C 893.5,421.5 893.5,422.5 893.5,423.5C 895.57,423.449 897.403,424.115 899,425.5C 900.876,424.381 901.709,422.714 901.5,420.5C 902.833,420.5 904.167,420.5 905.5,420.5C 905.5,421.5 905.5,422.5 905.5,423.5C 910.167,423.5 914.833,423.5 919.5,423.5C 919.5,422.5 919.5,421.5 919.5,420.5C 925.833,420.5 932.167,420.5 938.5,420.5C 938.5,421.5 938.5,422.5 938.5,423.5C 940.143,423.48 941.476,424.147 942.5,425.5C 943.88,424.024 945.547,423.024 947.5,422.5C 949.838,424.011 950.504,423.677 949.5,421.5C 953.833,420.167 958.167,420.167 962.5,421.5C 962.709,422.086 963.043,422.586 963.5,423C 966.482,423.498 969.482,423.665 972.5,423.5C 972.5,422.5 972.5,421.5 972.5,420.5C 976.167,420.5 979.833,420.5 983.5,420.5C 976.706,373.985 963.706,329.318 944.5,286.5 Z"/></g>
<g><path style="opacity:0.917" fill="#ffd069" d="M 7.5,408.5 C 5.68649,420.091 4.68649,431.758 4.5,443.5C 3.71003,444.609 3.21003,445.942 3,447.5C 0.885389,474.791 0.0520558,502.125 0.5,529.5C 0.166667,529.5 -0.166667,529.5 -0.5,529.5C -0.5,508.5 -0.5,487.5 -0.5,466.5C 1.01884,447.017 3.68551,427.683 7.5,408.5 Z"/></g>
<g><path style="opacity:1" fill="#ffa74f" d="M 513.5,631.5 C 511.146,631.838 508.813,632.338 506.5,633C 510.689,633.812 514.689,633.645 518.5,632.5C 522.534,632.328 526.534,631.828 530.5,631C 569.134,618.277 587.968,591.443 587,550.5C 594.743,562.389 599.743,575.389 602,589.5C 605.434,626.886 592.601,656.219 563.5,677.5C 563.389,678.117 563.056,678.617 562.5,679C 557.845,679.499 553.179,679.666 548.5,679.5C 548.5,678.167 548.5,676.833 548.5,675.5C 545.833,675.5 543.167,675.5 540.5,675.5C 540.657,676.873 540.49,678.207 540,679.5C 539.15,678.576 538.15,678.576 537,679.5C 536.055,679.095 535.388,678.428 535,677.5C 534.692,678.308 534.192,678.975 533.5,679.5C 531.942,674.306 530.942,674.306 530.5,679.5C 528.488,680.014 526.488,680.18 524.5,680C 522.893,678.951 522.227,677.451 522.5,675.5C 521.5,675.5 520.5,675.5 519.5,675.5C 519.5,676.833 519.5,678.167 519.5,679.5C 515.454,678.899 511.621,677.566 508,675.5C 506.129,675.709 504.962,676.709 504.5,678.5C 495.089,680.826 485.755,680.493 476.5,677.5C 476.5,678.5 476.5,679.5 476.5,680.5C 473.167,680.167 469.833,679.833 466.5,679.5C 466.5,678.167 466.5,676.833 466.5,675.5C 463.5,675.5 460.5,675.5 457.5,675.5C 457.5,676.833 457.5,678.167 457.5,679.5C 456.209,679.263 455.209,679.596 454.5,680.5C 450.153,676.314 446.32,671.647 443,666.5C 420.863,629.479 418.863,591.479 437,552.5C 435.729,577.707 444.396,598.707 463,615.5C 460.153,610.129 457.486,604.462 455,598.5C 454.206,595.529 453.539,592.529 453,589.5C 452.247,561.916 465.081,544.082 491.5,536C 521.485,532.23 541.651,544.397 552,572.5C 555.789,603.181 542.955,622.848 513.5,631.5 Z"/></g>
<g><path style="opacity:1" fill="#ffbe5d" d="M 4.5,443.5 C -0.006093,495.549 2.49391,547.215 12,598.5C 15.0232,609.601 18.1898,620.601 21.5,631.5C 23.8333,640.833 26.1667,650.167 28.5,659.5C 26.5197,658.152 25.353,656.152 25,653.5C 19.0228,632.922 13.6895,612.256 9,591.5C 5.17149,570.849 2.33816,550.183 0.5,529.5C 0.0520558,502.125 0.885389,474.791 3,447.5C 3.21003,445.942 3.71003,444.609 4.5,443.5 Z"/></g>
<g><path style="opacity:1" fill="#ffb056" d="M 23.5,351.5 C 22.025,358.012 20.8583,364.678 20,371.5C 1.1639,447.309 -0.336102,523.642 15.5,600.5C 17.0207,610.918 19.0207,621.251 21.5,631.5C 18.1898,620.601 15.0232,609.601 12,598.5C 2.49391,547.215 -0.006093,495.549 4.5,443.5C 4.68649,431.758 5.68649,420.091 7.5,408.5C 8.89085,406.04 10.0575,403.374 11,400.5C 14.3353,385.826 17.6687,371.159 21,356.5C 21.7568,354.685 22.5902,353.019 23.5,351.5 Z"/></g>
<g><path style="opacity:1" fill="#ffab4c" d="M 989.5,444.5 C 990.877,450.954 991.71,457.62 992,464.5C 992.667,487.833 992.667,511.167 992,534.5C 991.147,546.555 989.813,558.555 988,570.5C 982.933,594.497 977.599,618.497 972,642.5C 955.985,689.861 934.152,734.194 906.5,775.5C 867.03,831.473 818.363,877.64 760.5,914C 756.423,916.151 752.423,915.984 748.5,913.5C 743.685,916.107 738.852,916.107 734,913.5C 722.749,914.779 711.415,915.446 700,915.5C 688.736,915.456 677.57,914.79 666.5,913.5C 660.995,915.3 655.328,915.967 649.5,915.5C 649.5,913.167 649.5,910.833 649.5,908.5C 647.833,908.5 646.167,908.5 644.5,908.5C 644.5,910.833 644.5,913.167 644.5,915.5C 639.833,915.5 635.167,915.5 630.5,915.5C 630.5,914.167 630.5,912.833 630.5,911.5C 628.833,911.5 627.167,911.5 625.5,911.5C 625.5,912.833 625.5,914.167 625.5,915.5C 617.5,915.5 609.5,915.5 601.5,915.5C 601.5,913.833 601.5,912.167 601.5,910.5C 598.167,910.833 594.833,911.167 591.5,911.5C 591.5,912.833 591.5,914.167 591.5,915.5C 573.833,915.5 556.167,915.5 538.5,915.5C 538.5,914.167 538.5,912.833 538.5,911.5C 535.418,912.13 532.418,913.13 529.5,914.5C 503.842,915.5 478.175,915.833 452.5,915.5C 452.5,914.167 452.5,912.833 452.5,911.5C 450.833,911.5 449.167,911.5 447.5,911.5C 447.5,912.833 447.5,914.167 447.5,915.5C 441.132,915.83 434.798,915.496 428.5,914.5C 425.316,912.89 421.983,911.89 418.5,911.5C 418.5,912.833 418.5,914.167 418.5,915.5C 415.167,915.5 411.833,915.5 408.5,915.5C 408.5,914.167 408.5,912.833 408.5,911.5C 407.167,911.5 405.833,911.5 404.5,911.5C 404.5,912.833 404.5,914.167 404.5,915.5C 394.833,915.5 385.167,915.5 375.5,915.5C 375.5,914.167 375.5,912.833 375.5,911.5C 372.017,911.89 368.684,912.89 365.5,914.5C 344.511,915.5 323.511,915.833 302.5,915.5C 302.5,914.167 302.5,912.833 302.5,911.5C 301.167,911.5 299.833,911.5 298.5,911.5C 298.5,912.833 298.5,914.167 298.5,915.5C 287.167,915.5 275.833,915.5 264.5,915.5C 264.5,914.167 264.5,912.833 264.5,911.5C 262.833,911.5 261.167,911.5 259.5,911.5C 259.5,912.833 259.5,914.167 259.5,915.5C 251.389,915.935 243.389,915.435 235.5,914C 215.76,901.46 197.093,887.46 179.5,872C 177.404,870.234 175.071,868.901 172.5,868C 145.418,844.096 121.085,817.929 99.5,789.5C 95.1858,781.532 89.5192,774.865 82.5,769.5C 82.4431,768.391 82.1098,767.391 81.5,766.5C 61.959,731.751 44.2923,696.085 28.5,659.5C 26.1667,650.167 23.8333,640.833 21.5,631.5C 19.0207,621.251 17.0207,610.918 15.5,600.5C 21.983,625.79 29.8163,650.79 39,675.5C 41.6331,681.952 43.4664,681.619 44.5,674.5C 45.5,674.5 46.5,674.5 47.5,674.5C 47.5,676.167 47.5,677.833 47.5,679.5C 49.1667,679.5 50.8333,679.5 52.5,679.5C 52.5,678.167 52.5,676.833 52.5,675.5C 54.1667,675.5 55.8333,675.5 57.5,675.5C 57.5,676.833 57.5,678.167 57.5,679.5C 58.8333,679.5 60.1667,679.5 61.5,679.5C 61.5,678.167 61.5,676.833 61.5,675.5C 63.1667,675.5 64.8333,675.5 66.5,675.5C 66.5,676.833 66.5,678.167 66.5,679.5C 74.5074,680.703 82.5074,680.703 90.5,679.5C 90.5,678.167 90.5,676.833 90.5,675.5C 94.8233,675.198 98.99,675.865 103,677.5C 114.392,675.611 125.892,674.944 137.5,675.5C 137.238,676.978 137.571,678.311 138.5,679.5C 139.192,678.975 139.692,678.308 140,677.5C 144.868,680.005 150.035,680.671 155.5,679.5C 155.5,678.167 155.5,676.833 155.5,675.5C 156.5,675.5 157.5,675.5 158.5,675.5C 158.5,676.833 158.5,678.167 158.5,679.5C 164.868,679.83 171.202,679.496 177.5,678.5C 180.684,676.89 184.017,675.89 187.5,675.5C 187.5,676.833 187.5,678.167 187.5,679.5C 200.148,679.72 212.814,679.72 225.5,679.5C 225.5,678.167 225.5,676.833 225.5,675.5C 229.149,676.237 232.483,677.57 235.5,679.5C 235.5,678.167 235.5,676.833 235.5,675.5C 236.5,675.5 237.5,675.5 238.5,675.5C 238.5,676.833 238.5,678.167 238.5,679.5C 242.167,680.833 245.833,680.833 249.5,679.5C 249.5,678.167 249.5,676.833 249.5,675.5C 251.167,675.5 252.833,675.5 254.5,675.5C 254.5,676.833 254.5,678.167 254.5,679.5C 259.5,679.5 264.5,679.5 269.5,679.5C 269.5,678.167 269.5,676.833 269.5,675.5C 270.5,675.5 271.5,675.5 272.5,675.5C 272.5,676.833 272.5,678.167 272.5,679.5C 278.763,680.39 284.929,679.723 291,677.5C 296.356,679.241 301.856,679.908 307.5,679.5C 307.5,678.167 307.5,676.833 307.5,675.5C 310.983,675.89 314.316,676.89 317.5,678.5C 329.228,679.81 340.895,679.81 352.5,678.5C 376.496,708.971 407.163,729.804 444.5,741C 509.94,757.85 568.273,744.517 619.5,701C 609.201,705.802 598.534,710.135 587.5,714C 559.289,720.503 531.289,719.837 503.5,712C 484.367,705.671 468.034,695.171 454.5,680.5C 455.209,679.596 456.209,679.263 457.5,679.5C 457.5,678.167 457.5,676.833 457.5,675.5C 460.5,675.5 463.5,675.5 466.5,675.5C 466.5,676.833 466.5,678.167 466.5,679.5C 469.833,679.833 473.167,680.167 476.5,680.5C 476.5,679.5 476.5,678.5 476.5,677.5C 485.755,680.493 495.089,680.826 504.5,678.5C 504.962,676.709 506.129,675.709 508,675.5C 511.621,677.566 515.454,678.899 519.5,679.5C 519.5,678.167 519.5,676.833 519.5,675.5C 520.5,675.5 521.5,675.5 522.5,675.5C 522.227,677.451 522.893,678.951 524.5,680C 526.488,680.18 528.488,680.014 530.5,679.5C 530.942,674.306 531.942,674.306 533.5,679.5C 534.192,678.975 534.692,678.308 535,677.5C 535.388,678.428 536.055,679.095 537,679.5C 538.15,678.576 539.15,678.576 540,679.5C 540.49,678.207 540.657,676.873 540.5,675.5C 543.167,675.5 545.833,675.5 548.5,675.5C 548.5,676.833 548.5,678.167 548.5,679.5C 553.179,679.666 557.845,679.499 562.5,679C 563.056,678.617 563.389,678.117 563.5,677.5C 568.107,676.446 572.773,675.779 577.5,675.5C 577.5,676.833 577.5,678.167 577.5,679.5C 579.167,679.5 580.833,679.5 582.5,679.5C 582.5,678.167 582.5,676.833 582.5,675.5C 588.167,675.5 593.833,675.5 599.5,675.5C 599.5,676.833 599.5,678.167 599.5,679.5C 606.426,679.844 613.426,679.844 620.5,679.5C 620.5,678.167 620.5,676.833 620.5,675.5C 622.167,675.5 623.833,675.5 625.5,675.5C 625.5,676.833 625.5,678.167 625.5,679.5C 627.167,679.5 628.833,679.5 630.5,679.5C 630.5,678.167 630.5,676.833 630.5,675.5C 633.833,675.5 637.167,675.5 640.5,675.5C 640.5,676.833 640.5,678.167 640.5,679.5C 645.167,679.5 649.833,679.5 654.5,679.5C 654.5,678.167 654.5,676.833 654.5,675.5C 657.5,675.833 659.167,677.5 659.5,680.5C 661.167,680.5 662.833,680.5 664.5,680.5C 664.833,678.5 665.167,676.5 665.5,674.5C 667.342,674.723 669.175,675.057 671,675.5C 672.979,677.764 675.479,679.097 678.5,679.5C 677.53,675.069 679.197,672.735 683.5,672.5C 683.5,673.5 683.5,674.5 683.5,675.5C 688.238,676.596 692.905,677.929 697.5,679.5C 697.5,678.167 697.5,676.833 697.5,675.5C 699.167,675.5 700.833,675.5 702.5,675.5C 702.5,676.833 702.5,678.167 702.5,679.5C 704.167,679.5 705.833,679.5 707.5,679.5C 707.5,678.167 707.5,676.833 707.5,675.5C 709.167,675.5 710.833,675.5 712.5,675.5C 712.5,676.833 712.5,678.167 712.5,679.5C 718.783,680.11 725.116,680.11 731.5,679.5C 731.5,678.167 731.5,676.833 731.5,675.5C 732.5,675.5 733.5,675.5 734.5,675.5C 734.5,676.833 734.5,678.167 734.5,679.5C 737.167,679.5 739.833,679.5 742.5,679.5C 742.5,678.167 742.5,676.833 742.5,675.5C 745.167,675.5 747.833,675.5 750.5,675.5C 750.5,676.833 750.5,678.167 750.5,679.5C 752.167,679.5 753.833,679.5 755.5,679.5C 755.5,678.167 755.5,676.833 755.5,675.5C 757.167,675.5 758.833,675.5 760.5,675.5C 760.5,676.833 760.5,678.167 760.5,679.5C 765.167,679.5 769.833,679.5 774.5,679.5C 774.5,678.167 774.5,676.833 774.5,675.5C 777.833,675.5 781.167,675.5 784.5,675.5C 784.5,676.833 784.5,678.167 784.5,679.5C 790.868,678.293 797.201,676.96 803.5,675.5C 803.5,676.833 803.5,678.167 803.5,679.5C 808.5,679.5 813.5,679.5 818.5,679.5C 818.5,678.167 818.5,676.833 818.5,675.5C 820.167,675.5 821.833,675.5 823.5,675.5C 823.5,677.167 823.5,678.833 823.5,680.5C 828.13,679.771 832.797,679.437 837.5,679.5C 837.5,678.167 837.5,676.833 837.5,675.5C 840.187,676.336 842.52,677.836 844.5,680C 847.157,680.175 849.824,680.008 852.5,679.5C 852.5,678.167 852.5,676.833 852.5,675.5C 855.5,675.5 858.5,675.5 861.5,675.5C 861.5,676.833 861.5,678.167 861.5,679.5C 866.5,679.5 871.5,679.5 876.5,679.5C 876.5,678.167 876.5,676.833 876.5,675.5C 879.5,675.5 882.5,675.5 885.5,675.5C 885.5,676.833 885.5,678.167 885.5,679.5C 887.167,679.5 888.833,679.5 890.5,679.5C 890.5,678.167 890.5,676.833 890.5,675.5C 892.167,675.5 893.833,675.5 895.5,675.5C 895.5,676.833 895.5,678.167 895.5,679.5C 898.833,679.5 902.167,679.5 905.5,679.5C 905.5,678.167 905.5,676.833 905.5,675.5C 906.833,675.5 908.167,675.5 909.5,675.5C 909.5,676.833 909.5,678.167 909.5,679.5C 920.795,680.03 932.128,680.03 943.5,679.5C 943.5,678.167 943.5,676.833 943.5,675.5C 945.167,675.5 946.833,675.5 948.5,675.5C 948.5,676.833 948.5,678.167 948.5,679.5C 950.167,679.5 951.833,679.5 953.5,679.5C 953.5,678.167 953.5,676.833 953.5,675.5C 954.833,675.5 956.167,675.5 957.5,675.5C 963.945,657.062 969.778,638.396 975,619.5C 990.303,562.058 995.136,503.724 989.5,444.5 Z"/></g>
<g><path style="opacity:1" fill="#ffd0a1" d="M 513.5,631.5 C 514.919,632.451 516.585,632.784 518.5,632.5C 514.689,633.645 510.689,633.812 506.5,633C 508.813,632.338 511.146,631.838 513.5,631.5 Z"/></g>
<g><path style="opacity:0.537" fill="#ffd166" d="M 0.5,529.5 C 2.33816,550.183 5.17149,570.849 9,591.5C 13.6895,612.256 19.0228,632.922 25,653.5C 25.353,656.152 26.5197,658.152 28.5,659.5C 27.9805,663.756 29.1472,667.423 32,670.5C 38.4587,686.866 45.1253,703.199 52,719.5C 57.2954,728.732 62.2954,738.066 67,747.5C 71.394,754.241 76.2274,760.574 81.5,766.5C 82.1098,767.391 82.4431,768.391 82.5,769.5C 85.1022,773.653 87.9355,777.653 91,781.5C 92.1284,785.636 94.4617,788.969 98,791.5C 105.143,802.563 112.81,813.23 121,823.5C 136.471,837.971 151.638,852.804 166.5,868C 173.94,873.076 180.274,879.243 185.5,886.5C 88.5486,807.672 28.7153,706.338 6,582.5C 2.93162,564.954 1.09828,547.288 0.5,529.5 Z"/></g>
<g><path style="opacity:1" fill="#ffb957" d="M 28.5,659.5 C 44.2923,696.085 61.959,731.751 81.5,766.5C 76.2274,760.574 71.394,754.241 67,747.5C 62.2954,738.066 57.2954,728.732 52,719.5C 45.1253,703.199 38.4587,686.866 32,670.5C 29.1472,667.423 27.9805,663.756 28.5,659.5 Z"/></g>
<g><path style="opacity:1" fill="#ffaf4c" d="M 906.5,775.5 C 904.88,778.807 903.213,782.14 901.5,785.5C 901.5,785.833 901.5,786.167 901.5,786.5C 890.893,798.324 880.726,810.657 871,823.5C 839.905,857.785 805.405,887.785 767.5,913.5C 766.71,914.794 765.71,915.961 764.5,917C 759.902,919.27 755.569,921.937 751.5,925C 749.564,925.813 747.564,926.313 745.5,926.5C 640.029,985.024 527.696,1004.36 408.5,984.5C 394.048,980.908 379.382,977.741 364.5,975C 321.675,962.051 281.009,944.051 242.5,921C 240.866,920.506 239.199,920.34 237.5,920.5C 236.386,919.115 235.386,917.615 234.5,916C 180.669,883.339 135.669,841.172 99.5,789.5C 121.085,817.929 145.418,844.096 172.5,868C 175.071,868.901 177.404,870.234 179.5,872C 197.093,887.46 215.76,901.46 235.5,914C 243.389,915.435 251.389,915.935 259.5,915.5C 259.5,914.167 259.5,912.833 259.5,911.5C 261.167,911.5 262.833,911.5 264.5,911.5C 264.5,912.833 264.5,914.167 264.5,915.5C 275.833,915.5 287.167,915.5 298.5,915.5C 298.5,914.167 298.5,912.833 298.5,911.5C 299.833,911.5 301.167,911.5 302.5,911.5C 302.5,912.833 302.5,914.167 302.5,915.5C 323.511,915.833 344.511,915.5 365.5,914.5C 368.684,912.89 372.017,911.89 375.5,911.5C 375.5,912.833 375.5,914.167 375.5,915.5C 385.167,915.5 394.833,915.5 404.5,915.5C 404.5,914.167 404.5,912.833 404.5,911.5C 405.833,911.5 407.167,911.5 408.5,911.5C 408.5,912.833 408.5,914.167 408.5,915.5C 411.833,915.5 415.167,915.5 418.5,915.5C 418.5,914.167 418.5,912.833 418.5,911.5C 421.983,911.89 425.316,912.89 428.5,914.5C 434.798,915.496 441.132,915.83 447.5,915.5C 447.5,914.167 447.5,912.833 447.5,911.5C 449.167,911.5 450.833,911.5 452.5,911.5C 452.5,912.833 452.5,914.167 452.5,915.5C 478.175,915.833 503.842,915.5 529.5,914.5C 532.418,913.13 535.418,912.13 538.5,911.5C 538.5,912.833 538.5,914.167 538.5,915.5C 556.167,915.5 573.833,915.5 591.5,915.5C 591.5,914.167 591.5,912.833 591.5,911.5C 594.833,911.167 598.167,910.833 601.5,910.5C 601.5,912.167 601.5,913.833 601.5,915.5C 609.5,915.5 617.5,915.5 625.5,915.5C 625.5,914.167 625.5,912.833 625.5,911.5C 627.167,911.5 628.833,911.5 630.5,911.5C 630.5,912.833 630.5,914.167 630.5,915.5C 635.167,915.5 639.833,915.5 644.5,915.5C 644.5,913.167 644.5,910.833 644.5,908.5C 646.167,908.5 647.833,908.5 649.5,908.5C 649.5,910.833 649.5,913.167 649.5,915.5C 655.328,915.967 660.995,915.3 666.5,913.5C 677.57,914.79 688.736,915.456 700,915.5C 711.415,915.446 722.749,914.779 734,913.5C 738.852,916.107 743.685,916.107 748.5,913.5C 752.423,915.984 756.423,916.151 760.5,914C 818.363,877.64 867.03,831.473 906.5,775.5 Z"/></g>
<g><path style="opacity:1" fill="#ffbd56" d="M 901.5,786.5 C 893.75,797.005 886.25,807.672 879,818.5C 864.181,834.128 849.348,849.628 834.5,865C 829.707,867.051 825.707,870.051 822.5,874C 808.043,884.627 794.043,895.793 780.5,907.5C 776.003,909.25 771.67,911.25 767.5,913.5C 805.405,887.785 839.905,857.785 871,823.5C 880.726,810.657 890.893,798.324 901.5,786.5 Z"/></g>
<g><path style="opacity:1" fill="#ffbf57" d="M 82.5,769.5 C 89.5192,774.865 95.1858,781.532 99.5,789.5C 135.669,841.172 180.669,883.339 234.5,916C 235.386,917.615 236.386,919.115 237.5,920.5C 236.022,920.762 234.689,920.429 233.5,919.5C 231.937,916.107 229.271,914.774 225.5,915.5C 219.696,910.428 213.362,906.095 206.5,902.5C 198.926,897.927 191.926,892.594 185.5,886.5C 180.274,879.243 173.94,873.076 166.5,868C 151.638,852.804 136.471,837.971 121,823.5C 112.81,813.23 105.143,802.563 98,791.5C 94.4617,788.969 92.1284,785.636 91,781.5C 87.9355,777.653 85.1022,773.653 82.5,769.5 Z"/></g>
<g><path style="opacity:0.492" fill="#ffd767" d="M 206.5,902.5 C 213.362,906.095 219.696,910.428 225.5,915.5C 218.638,911.905 212.304,907.572 206.5,902.5 Z"/></g>
<g><path style="opacity:1" fill="#ffaf4a" d="M 553.5,927.5 C 559.719,929.006 566.052,929.673 572.5,929.5C 572.5,930.5 572.5,931.5 572.5,932.5C 575.833,933.167 579.167,933.833 582.5,934.5C 582.5,932.833 582.5,931.167 582.5,929.5C 584.167,929.5 585.833,929.5 587.5,929.5C 587.5,930.5 587.5,931.5 587.5,932.5C 593.948,932.327 600.281,932.994 606.5,934.5C 606.5,932.833 606.5,931.167 606.5,929.5C 608.167,929.5 609.833,929.5 611.5,929.5C 611.5,931.167 611.5,932.833 611.5,934.5C 613.167,934.5 614.833,934.5 616.5,934.5C 616.5,933.5 616.5,932.5 616.5,931.5C 617.833,931.5 619.167,931.5 620.5,931.5C 620.5,932.5 620.5,933.5 620.5,934.5C 623.833,935.167 627.167,935.833 630.5,936.5C 630.5,934.167 630.5,931.833 630.5,929.5C 636.948,929.327 643.281,929.994 649.5,931.5C 649.5,932.5 649.5,933.5 649.5,934.5C 654.5,934.5 659.5,934.5 664.5,934.5C 664.5,932.833 664.5,931.167 664.5,929.5C 667.5,929.5 670.5,929.5 673.5,929.5C 673.5,931.167 673.5,932.833 673.5,934.5C 675.167,934.5 676.833,934.5 678.5,934.5C 678.5,933.5 678.5,932.5 678.5,931.5C 680.167,931.5 681.833,931.5 683.5,931.5C 683.5,933.167 683.5,934.833 683.5,936.5C 686.833,935.833 690.167,935.167 693.5,934.5C 693.5,932.833 693.5,931.167 693.5,929.5C 694.833,929.5 696.167,929.5 697.5,929.5C 697.5,930.5 697.5,931.5 697.5,932.5C 700.833,933.167 704.167,933.833 707.5,934.5C 707.5,932.167 707.5,929.833 707.5,927.5C 709.167,927.5 710.833,927.5 712.5,927.5C 712.5,929.833 712.5,932.167 712.5,934.5C 714.167,934.5 715.833,934.5 717.5,934.5C 717.5,933.5 717.5,932.5 717.5,931.5C 718.833,931.5 720.167,931.5 721.5,931.5C 721.5,932.5 721.5,933.5 721.5,934.5C 722.552,934.351 723.552,934.517 724.5,935C 610.359,992.682 491.359,1005.35 367.5,973C 330.782,962.806 295.782,948.473 262.5,930C 267.823,929.501 273.156,929.334 278.5,929.5C 278.5,931.167 278.5,932.833 278.5,934.5C 281.833,934.5 285.167,934.5 288.5,934.5C 288.5,933.5 288.5,932.5 288.5,931.5C 292.547,931.305 296.547,931.638 300.5,932.5C 302.427,930.707 304.761,929.707 307.5,929.5C 307.5,931.833 307.5,934.167 307.5,936.5C 310.833,935.833 314.167,935.167 317.5,934.5C 317.5,933.5 317.5,932.5 317.5,931.5C 319.167,931.5 320.833,931.5 322.5,931.5C 322.5,932.5 322.5,933.5 322.5,934.5C 323.833,934.5 325.167,934.5 326.5,934.5C 326.5,932.833 326.5,931.167 326.5,929.5C 328.167,929.5 329.833,929.5 331.5,929.5C 331.5,931.167 331.5,932.833 331.5,934.5C 333.167,934.5 334.833,934.5 336.5,934.5C 336.5,932.833 336.5,931.167 336.5,929.5C 339.833,929.5 343.167,929.5 346.5,929.5C 346.5,931.167 346.5,932.833 346.5,934.5C 349.5,934.5 352.5,934.5 355.5,934.5C 355.5,933.5 355.5,932.5 355.5,931.5C 360.473,932.164 365.473,932.497 370.5,932.5C 370.5,931.5 370.5,930.5 370.5,929.5C 372.167,929.5 373.833,929.5 375.5,929.5C 375.5,931.167 375.5,932.833 375.5,934.5C 378.436,933.594 381.436,932.928 384.5,932.5C 384.5,931.5 384.5,930.5 384.5,929.5C 387.833,930.167 391.167,930.833 394.5,931.5C 394.5,932.5 394.5,933.5 394.5,934.5C 396.167,934.5 397.833,934.5 399.5,934.5C 399.5,932.833 399.5,931.167 399.5,929.5C 401.167,929.5 402.833,929.5 404.5,929.5C 404.5,931.167 404.5,932.833 404.5,934.5C 415.605,934.079 426.605,934.746 437.5,936.5C 437.5,934.833 437.5,933.167 437.5,931.5C 440.833,931.833 444.167,932.167 447.5,932.5C 447.5,931.5 447.5,930.5 447.5,929.5C 449.167,929.5 450.833,929.5 452.5,929.5C 452.5,931.167 452.5,932.833 452.5,934.5C 454.167,934.5 455.833,934.5 457.5,934.5C 457.5,932.833 457.5,931.167 457.5,929.5C 458.833,929.5 460.167,929.5 461.5,929.5C 461.5,930.5 461.5,931.5 461.5,932.5C 464.833,933.167 468.167,933.833 471.5,934.5C 471.5,932.833 471.5,931.167 471.5,929.5C 473.167,929.5 474.833,929.5 476.5,929.5C 476.5,931.833 476.5,934.167 476.5,936.5C 478.167,936.5 479.833,936.5 481.5,936.5C 481.5,934.833 481.5,933.167 481.5,931.5C 482.833,931.5 484.167,931.5 485.5,931.5C 485.5,932.5 485.5,933.5 485.5,934.5C 488.833,934.5 492.167,934.5 495.5,934.5C 495.5,933.5 495.5,932.5 495.5,931.5C 500.606,931.477 505.606,930.811 510.5,929.5C 510.5,930.5 510.5,931.5 510.5,932.5C 511.833,932.5 513.167,932.5 514.5,932.5C 514.5,931.5 514.5,930.5 514.5,929.5C 516.167,929.5 517.833,929.5 519.5,929.5C 519.5,930.5 519.5,931.5 519.5,932.5C 521.167,932.5 522.833,932.5 524.5,932.5C 524.5,931.5 524.5,930.5 524.5,929.5C 526.167,929.5 527.833,929.5 529.5,929.5C 529.5,930.5 529.5,931.5 529.5,932.5C 531.167,932.5 532.833,932.5 534.5,932.5C 534.5,931.5 534.5,930.5 534.5,929.5C 539.266,929.598 543.933,930.264 548.5,931.5C 548.5,932.5 548.5,933.5 548.5,934.5C 550.167,934.5 551.833,934.5 553.5,934.5C 553.5,932.167 553.5,929.833 553.5,927.5 Z"/></g>
<g><path style="opacity:0.231" fill="#ffd162" d="M 995.5,529.5 C 982.924,686.72 913.59,811.887 787.5,905C 710.258,959.473 624.258,989.64 529.5,995.5C 532.887,994.712 536.22,993.712 539.5,992.5C 558.87,990.948 578.203,988.782 597.5,986C 602.35,984.704 607.017,983.037 611.5,981C 621.095,980.022 630.095,977.355 638.5,973C 652.059,969.366 665.393,965.366 678.5,961C 680.116,960.385 681.449,959.385 682.5,958C 690.7,954.738 699.033,951.738 707.5,949C 713.399,945.106 719.732,942.106 726.5,940C 731.279,935.91 736.612,932.576 742.5,930C 743.71,928.961 744.71,927.794 745.5,926.5C 747.564,926.313 749.564,925.813 751.5,925C 755.569,921.937 759.902,919.27 764.5,917C 765.71,915.961 766.71,914.794 767.5,913.5C 771.67,911.25 776.003,909.25 780.5,907.5C 794.043,895.793 808.043,884.627 822.5,874C 825.707,870.051 829.707,867.051 834.5,865C 849.348,849.628 864.181,834.128 879,818.5C 886.25,807.672 893.75,797.005 901.5,786.5C 901.5,786.167 901.5,785.833 901.5,785.5C 905.713,779.108 910.546,773.108 916,767.5C 927.607,746.299 939.273,724.966 951,703.5C 966.929,667.703 978.929,630.37 987,591.5C 990.898,573.046 993.065,554.379 993.5,535.5C 994.167,533.5 994.833,531.5 995.5,529.5 Z"/></g>
<g><path style="opacity:1" fill="#ffd261" d="M 225.5,915.5 C 229.271,914.774 231.937,916.107 233.5,919.5C 234.689,920.429 236.022,920.762 237.5,920.5C 242.305,923.407 246.972,926.574 251.5,930C 269.87,938.518 287.87,947.518 305.5,957C 323.031,963.177 340.698,969.177 358.5,975C 371.29,978.897 384.29,981.73 397.5,983.5C 405.115,986.152 412.781,988.486 420.5,990.5C 349.606,980.196 284.606,955.196 225.5,915.5 Z"/></g>
<g><path style="opacity:1" fill="#ffbd53" d="M 237.5,920.5 C 239.199,920.34 240.866,920.506 242.5,921C 281.009,944.051 321.675,962.051 364.5,975C 379.382,977.741 394.048,980.908 408.5,984.5C 404.821,984.276 401.154,983.942 397.5,983.5C 384.29,981.73 371.29,978.897 358.5,975C 340.698,969.177 323.031,963.177 305.5,957C 287.87,947.518 269.87,938.518 251.5,930C 246.972,926.574 242.305,923.407 237.5,920.5 Z"/></g>
<g><path style="opacity:1" fill="#ffc558" d="M 397.5,983.5 C 401.154,983.942 404.821,984.276 408.5,984.5C 420.078,986.894 431.745,989.061 443.5,991C 475.405,993.694 507.405,994.194 539.5,992.5C 536.22,993.712 532.887,994.712 529.5,995.5C 512.163,995.667 494.83,995.5 477.5,995C 458.526,993.246 439.526,991.746 420.5,990.5C 412.781,988.486 405.115,986.152 397.5,983.5 Z"/></g>
<g><path style="opacity:1" fill="#ffbb51" d="M 745.5,926.5 C 744.71,927.794 743.71,928.961 742.5,930C 736.612,932.576 731.279,935.91 726.5,940C 719.732,942.106 713.399,945.106 707.5,949C 699.033,951.738 690.7,954.738 682.5,958C 681.449,959.385 680.116,960.385 678.5,961C 665.393,965.366 652.059,969.366 638.5,973C 630.095,977.355 621.095,980.022 611.5,981C 607.017,983.037 602.35,984.704 597.5,986C 578.203,988.782 558.87,990.948 539.5,992.5C 507.405,994.194 475.405,993.694 443.5,991C 431.745,989.061 420.078,986.894 408.5,984.5C 527.696,1004.36 640.029,985.024 745.5,926.5 Z"/></g>
<g><path style="opacity:0.787" fill="#ffd664" d="M 420.5,990.5 C 439.526,991.746 458.526,993.246 477.5,995C 494.83,995.5 512.163,995.667 529.5,995.5C 529.5,995.833 529.5,996.167 529.5,996.5C 508.5,996.5 487.5,996.5 466.5,996.5C 451.088,995.158 435.754,993.158 420.5,990.5 Z"/></g>
</svg>
