<?xml version="1.0" encoding="UTF-8"?>
<!DOCTYPE svg PUBLIC "-//W3C//DTD SVG 1.1//EN" "http://www.w3.org/Graphics/SVG/1.1/DTD/svg11.dtd">
<svg xmlns="http://www.w3.org/2000/svg" version="1.1" width="512px" height="512px" style="shape-rendering:geometricPrecision; text-rendering:geometricPrecision; image-rendering:optimizeQuality; fill-rule:evenodd; clip-rule:evenodd" xmlns:xlink="http://www.w3.org/1999/xlink">
<g><path style="opacity:0.985" fill="#d4dbdf" d="M 235.5,-0.5 C 249.5,-0.5 263.5,-0.5 277.5,-0.5C 282.646,0.551416 287.979,1.21808 293.5,1.5C 293.03,2.69348 292.03,3.36015 290.5,3.5C 285.153,2.83234 279.82,2.16567 274.5,1.5C 261.5,0.833333 248.5,0.166667 235.5,-0.5 Z"/></g>
<g><path style="opacity:1" fill="#b6c4da" d="M 233.5,-0.5 C 234.167,-0.5 234.833,-0.5 235.5,-0.5C 248.5,0.166667 261.5,0.833333 274.5,1.5C 249.607,0.0318275 225.107,2.03183 201,7.5C 199.014,7.43135 197.514,6.76468 196.5,5.5C 208.911,3.15312 221.244,1.15312 233.5,-0.5 Z"/></g>
<g><path style="opacity:1" fill="#8fa8dd" d="M 274.5,1.5 C 279.82,2.16567 285.153,2.83234 290.5,3.5C 292.03,3.36015 293.03,2.69348 293.5,1.5C 295.952,2.06543 298.285,2.7321 300.5,3.5C 300.62,4.58617 301.287,5.25284 302.5,5.5C 315.252,8.36237 327.918,11.529 340.5,15C 340.998,16.1581 341.831,16.9915 343,17.5C 351.802,19.9896 360.302,23.1563 368.5,27C 374.664,30.2476 380.664,33.7476 386.5,37.5C 387.298,37.0431 387.631,36.3764 387.5,35.5C 397.063,41.1078 406.063,47.4411 414.5,54.5C 418.091,58.7581 422.091,62.7581 426.5,66.5C 426.343,67.8734 426.51,69.2068 427,70.5C 431.833,75.3333 436.667,80.1667 441.5,85C 438.936,88.4998 437.269,87.9998 436.5,83.5C 434.498,85.1731 432.831,87.1731 431.5,89.5C 429.008,85.7341 425.674,84.7341 421.5,86.5C 418.609,85.9944 415.942,84.9944 413.5,83.5C 411.967,85.289 410.967,87.289 410.5,89.5C 409.5,89.5 408.5,89.5 407.5,89.5C 407.719,88.325 407.386,87.325 406.5,86.5C 404.58,90.193 403.247,90.193 402.5,86.5C 400.409,86.6816 398.409,86.3482 396.5,85.5C 394.428,87.433 392.095,87.433 389.5,85.5C 387.565,88.569 385.898,88.7357 384.5,86C 381.438,85.2585 378.438,85.4252 375.5,86.5C 374.833,87.5 374.167,88.5 373.5,89.5C 370.63,85.6977 367.297,85.0311 363.5,87.5C 360.635,85.5294 357.635,84.8627 354.5,85.5C 351.815,88.3045 350.148,87.6379 349.5,83.5C 348.571,84.6888 348.238,86.0222 348.5,87.5C 343.605,86.4863 338.771,86.4863 334,87.5C 332.165,85.0361 330.165,85.0361 328,87.5C 325.3,85.2157 322.467,85.2157 319.5,87.5C 318.784,86.689 317.95,86.0223 317,85.5C 315.635,86.4556 314.135,87.1223 312.5,87.5C 306.995,86.8632 301.495,86.1965 296,85.5C 294.635,85.1557 293.468,84.4891 292.5,83.5C 291.41,84.727 290.076,85.5604 288.5,86C 285.475,86.3607 282.475,86.8607 279.5,87.5C 277.945,87.278 276.611,86.6113 275.5,85.5C 272.833,88.1667 270.167,88.1667 267.5,85.5C 265.677,86.4909 264.177,87.8243 263,89.5C 262.585,87.7091 261.585,86.3757 260,85.5C 258.301,86.4061 256.467,86.7394 254.5,86.5C 254.5,85.5 254.5,84.5 254.5,83.5C 253.5,83.5 252.5,83.5 251.5,83.5C 251.719,84.675 251.386,85.675 250.5,86.5C 244.341,86.0037 238.175,85.6704 232,85.5C 228.121,86.3489 224.454,87.0156 221,87.5C 220.311,86.6433 219.478,85.9767 218.5,85.5C 216.167,86.8333 213.833,86.8333 211.5,85.5C 207.589,88.4981 203.589,88.8314 199.5,86.5C 199.719,85.325 199.386,84.325 198.5,83.5C 196.398,85.2041 194.065,86.5374 191.5,87.5C 190.784,86.689 189.95,86.0223 189,85.5C 182.947,86.7283 176.78,87.395 170.5,87.5C 167.81,86.126 165.143,84.7927 162.5,83.5C 162.5,84.5 162.5,85.5 162.5,86.5C 156.286,86.2283 150.119,86.5617 144,87.5C 143.05,86.9777 142.216,86.311 141.5,85.5C 139.744,86.4069 137.911,86.4069 136,85.5C 134.774,85.6448 133.607,85.9781 132.5,86.5C 132.002,87.6034 131.669,88.6034 131.5,89.5C 129.605,87.7118 127.938,85.7118 126.5,83.5C 122.787,87.4229 118.62,88.0896 114,85.5C 113.228,85.6448 112.561,85.9781 112,86.5C 109.966,85.1379 107.799,84.1379 105.5,83.5C 105.5,84.8333 105.5,86.1667 105.5,87.5C 103.179,87.2289 101.179,87.8955 99.5,89.5C 94.6635,86.8766 89.6635,85.5433 84.5,85.5C 81.0249,87.7205 77.3583,88.0539 73.5,86.5C 73.719,87.675 73.3857,88.675 72.5,89.5C 71.2813,88.3539 69.9479,87.3539 68.5,86.5C 76.8898,78.1135 84.8898,69.4469 92.5,60.5C 96.5999,57.1578 100.6,53.6578 104.5,50C 112.466,45.8693 119.799,41.0359 126.5,35.5C 134.816,31.3419 143.15,27.1752 151.5,23C 155.281,21.2199 159.281,20.0532 163.5,19.5C 163.5,18.5 163.5,17.5 163.5,16.5C 163.5,15.8333 163.833,15.5 164.5,15.5C 164.369,16.3764 164.702,17.0431 165.5,17.5C 167.833,16.3333 170.167,15.1667 172.5,14C 180.78,12.8583 188.447,10.3583 195.5,6.5C 195.5,5.83333 195.833,5.5 196.5,5.5C 197.514,6.76468 199.014,7.43135 201,7.5C 225.107,2.03183 249.607,0.0318275 274.5,1.5 Z"/></g>
<g><path style="opacity:1" fill="#c6cfdc" d="M 300.5,3.5 C 331.584,8.63756 360.584,19.3042 387.5,35.5C 387.631,36.3764 387.298,37.0431 386.5,37.5C 380.664,33.7476 374.664,30.2476 368.5,27C 360.302,23.1563 351.802,19.9896 343,17.5C 341.831,16.9915 340.998,16.1581 340.5,15C 327.918,11.529 315.252,8.36237 302.5,5.5C 301.287,5.25284 300.62,4.58617 300.5,3.5 Z"/></g>
<g><path style="opacity:1" fill="#cad2dd" d="M 195.5,6.5 C 188.447,10.3583 180.78,12.8583 172.5,14C 170.167,15.1667 167.833,16.3333 165.5,17.5C 164.702,17.0431 164.369,16.3764 164.5,15.5C 174.535,11.4886 184.868,8.48859 195.5,6.5 Z"/></g>
<g><path style="opacity:1" fill="#bcc8db" d="M 163.5,16.5 C 163.5,17.5 163.5,18.5 163.5,19.5C 159.281,20.0532 155.281,21.2199 151.5,23C 143.15,27.1752 134.816,31.3419 126.5,35.5C 119.799,41.0359 112.466,45.8693 104.5,50C 100.6,53.6578 96.5999,57.1578 92.5,60.5C 90.2843,61.2026 88.451,62.5359 87,64.5C 86.5357,63.9056 86.369,63.2389 86.5,62.5C 109.147,42.3338 134.814,27.0005 163.5,16.5 Z"/></g>
<g><path style="opacity:1" fill="#dde3e7" d="M 84.5,64.5 C 78.8918,71.6355 72.3918,78.6355 65,85.5C 63,88.1667 61,90.8333 59,93.5C 57.871,95.1412 56.371,96.1412 54.5,96.5C 63.4284,84.9025 73.4284,74.2358 84.5,64.5 Z"/></g>
<g><path style="opacity:1" fill="#92abdf" d="M 92.5,60.5 C 84.8898,69.4469 76.8898,78.1135 68.5,86.5C 69.9479,87.3539 71.2813,88.3539 72.5,89.5C 73.3857,88.675 73.719,87.675 73.5,86.5C 77.3583,88.0539 81.0249,87.7205 84.5,85.5C 89.6635,85.5433 94.6635,86.8766 99.5,89.5C 101.179,87.8955 103.179,87.2289 105.5,87.5C 105.5,86.1667 105.5,84.8333 105.5,83.5C 107.799,84.1379 109.966,85.1379 112,86.5C 112.561,85.9781 113.228,85.6448 114,85.5C 118.62,88.0896 122.787,87.4229 126.5,83.5C 127.938,85.7118 129.605,87.7118 131.5,89.5C 131.669,88.6034 132.002,87.6034 132.5,86.5C 133.607,85.9781 134.774,85.6448 136,85.5C 137.911,86.4069 139.744,86.4069 141.5,85.5C 142.216,86.311 143.05,86.9777 144,87.5C 150.119,86.5617 156.286,86.2283 162.5,86.5C 162.5,85.5 162.5,84.5 162.5,83.5C 165.143,84.7927 167.81,86.126 170.5,87.5C 176.78,87.395 182.947,86.7283 189,85.5C 189.95,86.0223 190.784,86.689 191.5,87.5C 194.065,86.5374 196.398,85.2041 198.5,83.5C 199.386,84.325 199.719,85.325 199.5,86.5C 203.589,88.8314 207.589,88.4981 211.5,85.5C 213.833,86.8333 216.167,86.8333 218.5,85.5C 219.478,85.9767 220.311,86.6433 221,87.5C 224.454,87.0156 228.121,86.3489 232,85.5C 238.175,85.6704 244.341,86.0037 250.5,86.5C 251.386,85.675 251.719,84.675 251.5,83.5C 252.5,83.5 253.5,83.5 254.5,83.5C 254.5,84.5 254.5,85.5 254.5,86.5C 256.467,86.7394 258.301,86.4061 260,85.5C 261.585,86.3757 262.585,87.7091 263,89.5C 264.177,87.8243 265.677,86.4909 267.5,85.5C 270.167,88.1667 272.833,88.1667 275.5,85.5C 276.611,86.6113 277.945,87.278 279.5,87.5C 282.475,86.8607 285.475,86.3607 288.5,86C 290.076,85.5604 291.41,84.727 292.5,83.5C 293.468,84.4891 294.635,85.1557 296,85.5C 301.495,86.1965 306.995,86.8632 312.5,87.5C 314.135,87.1223 315.635,86.4556 317,85.5C 317.95,86.0223 318.784,86.689 319.5,87.5C 322.467,85.2157 325.3,85.2157 328,87.5C 330.165,85.0361 332.165,85.0361 334,87.5C 338.771,86.4863 343.605,86.4863 348.5,87.5C 348.238,86.0222 348.571,84.6888 349.5,83.5C 350.148,87.6379 351.815,88.3045 354.5,85.5C 357.635,84.8627 360.635,85.5294 363.5,87.5C 367.297,85.0311 370.63,85.6977 373.5,89.5C 374.167,88.5 374.833,87.5 375.5,86.5C 378.438,85.4252 381.438,85.2585 384.5,86C 385.898,88.7357 387.565,88.569 389.5,85.5C 392.095,87.433 394.428,87.433 396.5,85.5C 398.409,86.3482 400.409,86.6816 402.5,86.5C 403.247,90.193 404.58,90.193 406.5,86.5C 407.386,87.325 407.719,88.325 407.5,89.5C 408.5,89.5 409.5,89.5 410.5,89.5C 410.967,87.289 411.967,85.289 413.5,83.5C 415.942,84.9944 418.609,85.9944 421.5,86.5C 425.674,84.7341 429.008,85.7341 431.5,89.5C 432.831,87.1731 434.498,85.1731 436.5,83.5C 437.269,87.9998 438.936,88.4998 441.5,85C 436.667,80.1667 431.833,75.3333 427,70.5C 426.51,69.2068 426.343,67.8734 426.5,66.5C 448.797,85.4944 465.963,108.161 478,134.5C 479.205,135.071 480.372,135.738 481.5,136.5C 483.833,141.833 486.167,147.167 488.5,152.5C 488.957,153.298 489.624,153.631 490.5,153.5C 491.167,153.5 491.5,153.833 491.5,154.5C 490.876,154.917 490.543,155.584 490.5,156.5C 494.442,169.479 498.109,182.479 501.5,195.5C 501.657,196.873 501.49,198.207 501,199.5C 500.683,197.699 500.016,197.366 499,198.5C 496.531,196.174 494.197,196.508 492,199.5C 490.072,197.576 487.738,196.576 485,196.5C 482.176,197.982 479.176,198.982 476,199.5C 473.132,198.477 470.298,198.477 467.5,199.5C 465.964,198.751 464.631,197.751 463.5,196.5C 462.281,197.263 461.281,198.263 460.5,199.5C 459.532,198.511 458.365,197.844 457,197.5C 452.412,200 447.912,200 443.5,197.5C 442.216,198.585 440.716,199.252 439,199.5C 436.104,198.795 433.271,197.795 430.5,196.5C 428.278,197.055 426.278,198.055 424.5,199.5C 422.617,198.976 420.784,198.309 419,197.5C 418.055,197.905 417.388,198.572 417,199.5C 414.628,195.527 412.294,195.527 410,199.5C 407.769,196.949 405.603,196.949 403.5,199.5C 401.239,196.906 399.072,196.906 397,199.5C 394.012,197.048 391.012,197.048 388,199.5C 385.79,198.978 383.623,198.312 381.5,197.5C 379.945,197.722 378.611,198.389 377.5,199.5C 376.579,197.244 374.912,196.244 372.5,196.5C 372.367,199.896 371.367,200.229 369.5,197.5C 366.851,200.039 364.184,200.039 361.5,197.5C 359.952,199.922 358.286,199.922 356.5,197.5C 354.633,200.229 353.633,199.896 353.5,196.5C 372.907,183.201 385.24,165.035 390.5,142C 390.333,141.167 390.167,140.333 390,139.5C 380.496,150.013 368.996,157.68 355.5,162.5C 353.648,161.911 351.815,161.244 350,160.5C 349.653,162.18 348.653,163.18 347,163.5C 345.326,162.165 343.659,160.831 342,159.5C 341.5,160 341,160.5 340.5,161C 335.216,161.282 330.05,161.449 325,161.5C 324.632,160.09 323.799,159.09 322.5,158.5C 320.302,160.523 317.802,162.19 315,163.5C 313.374,162.711 311.874,161.711 310.5,160.5C 309.672,161.415 308.672,162.081 307.5,162.5C 304.167,161.167 300.833,161.167 297.5,162.5C 295.945,160.854 294.279,160.521 292.5,161.5C 290.833,160.833 289.167,160.167 287.5,159.5C 284.167,163.5 280.833,163.5 277.5,159.5C 276.024,161.571 274.024,162.571 271.5,162.5C 271.762,161.022 271.429,159.689 270.5,158.5C 267.604,160.591 264.438,162.258 261,163.5C 257.462,162.301 253.962,160.968 250.5,159.5C 248.486,160.936 246.486,162.27 244.5,163.5C 242.971,163.471 241.804,162.804 241,161.5C 240.261,162.574 239.261,163.241 238,163.5C 236.346,162.347 234.846,161.013 233.5,159.5C 228.007,161.806 222.341,162.139 216.5,160.5C 215.158,162.005 213.492,162.672 211.5,162.5C 211.719,161.325 211.386,160.325 210.5,159.5C 208.424,160.956 206.257,162.289 204,163.5C 202.739,163.241 201.739,162.574 201,161.5C 197.773,161.94 194.606,161.94 191.5,161.5C 190.5,160.833 189.5,160.167 188.5,159.5C 184.701,161.129 180.701,162.129 176.5,162.5C 173.12,161.037 169.953,161.37 167,163.5C 165.263,162.38 163.429,161.38 161.5,160.5C 160.784,161.311 159.95,161.978 159,162.5C 154.434,161.632 149.601,160.965 144.5,160.5C 143.169,164.022 141.336,164.355 139,161.5C 137.333,164.167 135.667,164.167 134,161.5C 131.995,163.8 129.828,163.8 127.5,161.5C 122.22,162.084 116.886,162.418 111.5,162.5C 110.833,161.5 110.167,160.5 109.5,159.5C 108.852,161.149 107.852,162.482 106.5,163.5C 103.724,162.911 101.39,161.578 99.5,159.5C 97.9522,161.922 96.2855,161.922 94.5,159.5C 91.5729,160.801 88.5729,161.801 85.5,162.5C 85.5,161.5 85.5,160.5 85.5,159.5C 84.1667,159.5 82.8333,159.5 81.5,159.5C 81.5,160.5 81.5,161.5 81.5,162.5C 79.8002,162.374 78.3002,161.707 77,160.5C 75.5659,160.93 74.3992,161.764 73.5,163C 68.3627,163.246 67.6961,161.913 71.5,159C 71,158.833 70.5,158.667 70,158.5C 68.527,160.046 66.6936,161.046 64.5,161.5C 62.8651,161.122 61.3651,160.456 60,159.5C 58.7104,161.354 57.2104,161.687 55.5,160.5C 54.6143,161.325 54.281,162.325 54.5,163.5C 52.5165,163.617 50.8498,162.95 49.5,161.5C 47.8366,162.875 46.5032,162.542 45.5,160.5C 41.4246,161.423 37.4246,162.423 33.5,163.5C 33.3671,160.104 32.3671,159.771 30.5,162.5C 27.2774,161.706 24.1108,162.039 21,163.5C 20.5172,162.552 20.3505,161.552 20.5,160.5C 20.3573,158.738 20.6906,157.071 21.5,155.5C 21.0431,154.702 20.3764,154.369 19.5,154.5C 19.5,153.833 19.8333,153.5 20.5,153.5C 21.3764,153.631 22.0431,153.298 22.5,152.5C 30.5643,132.535 41.5643,114.368 55.5,98C 54.9056,97.5357 54.2389,97.369 53.5,97.5C 53.5,96.8333 53.8333,96.5 54.5,96.5C 56.371,96.1412 57.871,95.1412 59,93.5C 61,90.8333 63,88.1667 65,85.5C 72.3918,78.6355 78.8918,71.6355 84.5,64.5C 84.8333,63.5 85.5,62.8333 86.5,62.5C 86.369,63.2389 86.5357,63.9056 87,64.5C 88.451,62.5359 90.2843,61.2026 92.5,60.5 Z"/></g>
<g><path style="opacity:1" fill="#cad1d8" d="M 53.5,97.5 C 54.2389,97.369 54.9056,97.5357 55.5,98C 41.5643,114.368 30.5643,132.535 22.5,152.5C 22.0431,153.298 21.3764,153.631 20.5,153.5C 28.9544,133.246 39.9544,114.58 53.5,97.5 Z"/></g>
<g><path style="opacity:1" fill="#c6ced8" d="M 414.5,54.5 C 448.158,81.1517 473.491,114.152 490.5,153.5C 489.624,153.631 488.957,153.298 488.5,152.5C 486.167,147.167 483.833,141.833 481.5,136.5C 480.372,135.738 479.205,135.071 478,134.5C 465.963,108.161 448.797,85.4944 426.5,66.5C 422.091,62.7581 418.091,58.7581 414.5,54.5 Z"/></g>
<g><path style="opacity:1" fill="#fefefe" d="M 353.5,196.5 C 324.152,216.837 292.152,231.837 257.5,241.5C 257.5,242.833 257.5,244.167 257.5,245.5C 288.512,241.414 318.512,233.581 347.5,222C 354.169,218.997 360.002,214.831 365,209.5C 363.05,221.225 357.55,231.058 348.5,239C 333.459,251.529 316.792,261.529 298.5,269C 284.802,274.733 270.802,279.566 256.5,283.5C 256.5,284.833 256.5,286.167 256.5,287.5C 280.381,285.613 303.381,280.113 325.5,271C 328.783,269.439 331.617,267.273 334,264.5C 331.62,274.25 326.453,282.25 318.5,288.5C 300.165,302.166 279.832,311.832 257.5,317.5C 257.5,318.833 257.5,320.167 257.5,321.5C 274.139,320.616 290.139,316.949 305.5,310.5C 305.833,310.833 306.167,311.167 306.5,311.5C 288.455,345.311 260.122,361.145 221.5,359C 188.164,355.1 163.997,338.267 149,308.5C 146.832,302.469 144.999,296.469 143.5,290.5C 140.516,255.966 153.85,229.8 183.5,212C 192.797,207.402 202.464,203.902 212.5,201.5C 255.42,194.77 297.42,184.27 338.5,170C 344.393,167.768 350.059,165.268 355.5,162.5C 368.996,157.68 380.496,150.013 390,139.5C 390.167,140.333 390.333,141.167 390.5,142C 385.24,165.035 372.907,183.201 353.5,196.5 Z"/></g>
<g><path style="opacity:1" fill="#cfd8e6" d="M 19.5,154.5 C 20.3764,154.369 21.0431,154.702 21.5,155.5C 20.6906,157.071 20.3573,158.738 20.5,160.5C 16.9428,167.061 13.6095,173.727 10.5,180.5C 12.9349,171.632 15.9349,162.965 19.5,154.5 Z"/></g>
<g><path style="opacity:1" fill="#94aee1" d="M 355.5,162.5 C 350.059,165.268 344.393,167.768 338.5,170C 297.42,184.27 255.42,194.77 212.5,201.5C 214.564,200.132 216.898,199.132 219.5,198.5C 216.329,195.665 213.496,195.998 211,199.5C 210,198.5 209,197.5 208,196.5C 207.255,197.99 206.088,198.99 204.5,199.5C 202.462,198.366 200.462,198.366 198.5,199.5C 197.784,198.689 196.95,198.022 196,197.5C 189.46,199.99 182.96,199.99 176.5,197.5C 172.782,200.161 169.282,199.828 166,196.5C 162.869,197.206 159.702,197.873 156.5,198.5C 155.833,197.833 155.167,197.167 154.5,196.5C 153.667,197.5 152.833,198.5 152,199.5C 150.915,198.707 149.748,198.04 148.5,197.5C 146.132,200.014 143.799,200.014 141.5,197.5C 138.689,200.179 136.189,199.845 134,196.5C 132.672,198.669 131.006,199.002 129,197.5C 128.055,197.905 127.388,198.572 127,199.5C 125.337,196.103 123.337,195.77 121,198.5C 119.634,198.294 118.301,197.96 117,197.5C 113.667,200.167 110.333,200.167 107,197.5C 106.055,197.905 105.388,198.572 105,199.5C 104.667,198.833 104.333,198.167 104,197.5C 101.328,197.111 98.661,197.777 96,199.5C 93.474,198.936 90.974,198.269 88.5,197.5C 86.2553,198.924 83.7553,199.59 81,199.5C 71.3878,200.038 62.0545,199.372 53,197.5C 52.6121,198.428 51.9454,199.095 51,199.5C 46.9806,195.624 42.814,195.624 38.5,199.5C 34.1875,196.979 30.0208,196.979 26,199.5C 23.151,195.644 20.151,195.644 17,199.5C 15.469,198.783 14.1357,197.783 13,196.5C 11.3468,196.82 10.3468,197.82 10,199.5C 9.69659,194.116 10.1966,188.782 11.5,183.5C 11.2528,182.287 10.5862,181.62 9.5,181.5C 9.5,180.833 9.83333,180.5 10.5,180.5C 13.6095,173.727 16.9428,167.061 20.5,160.5C 20.3505,161.552 20.5172,162.552 21,163.5C 24.1108,162.039 27.2774,161.706 30.5,162.5C 32.3671,159.771 33.3671,160.104 33.5,163.5C 37.4246,162.423 41.4246,161.423 45.5,160.5C 46.5032,162.542 47.8366,162.875 49.5,161.5C 50.8498,162.95 52.5165,163.617 54.5,163.5C 54.281,162.325 54.6143,161.325 55.5,160.5C 57.2104,161.687 58.7104,161.354 60,159.5C 61.3651,160.456 62.8651,161.122 64.5,161.5C 66.6936,161.046 68.527,160.046 70,158.5C 70.5,158.667 71,158.833 71.5,159C 67.6961,161.913 68.3627,163.246 73.5,163C 74.3992,161.764 75.5659,160.93 77,160.5C 78.3002,161.707 79.8002,162.374 81.5,162.5C 81.5,161.5 81.5,160.5 81.5,159.5C 82.8333,159.5 84.1667,159.5 85.5,159.5C 85.5,160.5 85.5,161.5 85.5,162.5C 88.5729,161.801 91.5729,160.801 94.5,159.5C 96.2855,161.922 97.9522,161.922 99.5,159.5C 101.39,161.578 103.724,162.911 106.5,163.5C 107.852,162.482 108.852,161.149 109.5,159.5C 110.167,160.5 110.833,161.5 111.5,162.5C 116.886,162.418 122.22,162.084 127.5,161.5C 129.828,163.8 131.995,163.8 134,161.5C 135.667,164.167 137.333,164.167 139,161.5C 141.336,164.355 143.169,164.022 144.5,160.5C 149.601,160.965 154.434,161.632 159,162.5C 159.95,161.978 160.784,161.311 161.5,160.5C 163.429,161.38 165.263,162.38 167,163.5C 169.953,161.37 173.12,161.037 176.5,162.5C 180.701,162.129 184.701,161.129 188.5,159.5C 189.5,160.167 190.5,160.833 191.5,161.5C 194.606,161.94 197.773,161.94 201,161.5C 201.739,162.574 202.739,163.241 204,163.5C 206.257,162.289 208.424,160.956 210.5,159.5C 211.386,160.325 211.719,161.325 211.5,162.5C 213.492,162.672 215.158,162.005 216.5,160.5C 222.341,162.139 228.007,161.806 233.5,159.5C 234.846,161.013 236.346,162.347 238,163.5C 239.261,163.241 240.261,162.574 241,161.5C 241.804,162.804 242.971,163.471 244.5,163.5C 246.486,162.27 248.486,160.936 250.5,159.5C 253.962,160.968 257.462,162.301 261,163.5C 264.438,162.258 267.604,160.591 270.5,158.5C 271.429,159.689 271.762,161.022 271.5,162.5C 274.024,162.571 276.024,161.571 277.5,159.5C 280.833,163.5 284.167,163.5 287.5,159.5C 289.167,160.167 290.833,160.833 292.5,161.5C 294.279,160.521 295.945,160.854 297.5,162.5C 300.833,161.167 304.167,161.167 307.5,162.5C 308.672,162.081 309.672,161.415 310.5,160.5C 311.874,161.711 313.374,162.711 315,163.5C 317.802,162.19 320.302,160.523 322.5,158.5C 323.799,159.09 324.632,160.09 325,161.5C 330.05,161.449 335.216,161.282 340.5,161C 341,160.5 341.5,160 342,159.5C 343.659,160.831 345.326,162.165 347,163.5C 348.653,163.18 349.653,162.18 350,160.5C 351.815,161.244 353.648,161.911 355.5,162.5 Z"/></g>
<g><path style="opacity:1" fill="#98b2e3" d="M 9.5,181.5 C 10.5862,181.62 11.2528,182.287 11.5,183.5C 10.1966,188.782 9.69659,194.116 10,199.5C 10.3468,197.82 11.3468,196.82 13,196.5C 14.1357,197.783 15.469,198.783 17,199.5C 20.151,195.644 23.151,195.644 26,199.5C 30.0208,196.979 34.1875,196.979 38.5,199.5C 42.814,195.624 46.9806,195.624 51,199.5C 51.9454,199.095 52.6121,198.428 53,197.5C 62.0545,199.372 71.3878,200.038 81,199.5C 83.7553,199.59 86.2553,198.924 88.5,197.5C 90.974,198.269 93.474,198.936 96,199.5C 98.661,197.777 101.328,197.111 104,197.5C 104.333,198.167 104.667,198.833 105,199.5C 105.388,198.572 106.055,197.905 107,197.5C 110.333,200.167 113.667,200.167 117,197.5C 118.301,197.96 119.634,198.294 121,198.5C 123.337,195.77 125.337,196.103 127,199.5C 127.388,198.572 128.055,197.905 129,197.5C 131.006,199.002 132.672,198.669 134,196.5C 136.189,199.845 138.689,200.179 141.5,197.5C 143.799,200.014 146.132,200.014 148.5,197.5C 149.748,198.04 150.915,198.707 152,199.5C 152.833,198.5 153.667,197.5 154.5,196.5C 155.167,197.167 155.833,197.833 156.5,198.5C 159.702,197.873 162.869,197.206 166,196.5C 169.282,199.828 172.782,200.161 176.5,197.5C 182.96,199.99 189.46,199.99 196,197.5C 196.95,198.022 197.784,198.689 198.5,199.5C 200.462,198.366 202.462,198.366 204.5,199.5C 206.088,198.99 207.255,197.99 208,196.5C 209,197.5 210,198.5 211,199.5C 213.496,195.998 216.329,195.665 219.5,198.5C 216.898,199.132 214.564,200.132 212.5,201.5C 202.464,203.902 192.797,207.402 183.5,212C 153.85,229.8 140.516,255.966 143.5,290.5C 142.997,295.5 142.664,295.167 142.5,289.5C 138.482,290.509 134.482,290.509 130.5,289.5C 127.963,289.435 125.963,290.435 124.5,292.5C 121.242,290.815 117.742,289.815 114,289.5C 109.705,290.799 105.205,290.799 100.5,289.5C 99.8333,293.5 99.1667,293.5 98.5,289.5C 75.0299,289.53 51.8633,289.53 29,289.5C 27.6739,289.755 26.6739,290.422 26,291.5C 23.4777,290.369 20.811,289.703 18,289.5C 13.8574,289.68 9.69073,290.013 5.5,290.5C 4.82434,289.398 4.15767,288.398 3.5,287.5C 2.0569,280.383 1.22356,273.049 1,265.5C 0.767499,251.988 0.600832,238.654 0.5,225.5C 0.989556,222.345 1.65622,219.345 2.5,216.5C 3.79305,215.158 4.62638,213.491 5,211.5C 5.83352,207.165 6.66685,202.832 7.5,198.5C 7.25284,197.287 6.58617,196.62 5.5,196.5C 6.98538,191.56 8.31871,186.56 9.5,181.5 Z"/></g>
<g><path style="opacity:1" fill="#98b2e4" d="M 501.5,195.5 C 506.346,208.255 508.679,221.589 508.5,235.5C 508.667,247.505 508.5,259.505 508,271.5C 507.528,277.432 506.694,283.265 505.5,289C 502.964,289.339 500.464,289.839 498,290.5C 468.448,289.634 438.781,289.301 409,289.5C 407.187,289.827 405.52,290.493 404,291.5C 400.818,290.299 397.485,289.632 394,289.5C 386.627,290.073 379.293,290.073 372,289.5C 369.203,289.822 366.703,290.822 364.5,292.5C 363.614,291.675 363.281,290.675 363.5,289.5C 355.071,289.77 346.737,289.77 338.5,289.5C 338.5,290.5 338.5,291.5 338.5,292.5C 337.5,292.5 336.5,292.5 335.5,292.5C 335.5,291.5 335.5,290.5 335.5,289.5C 331.973,289.504 328.473,289.837 325,290.5C 322.516,290.503 320.349,289.837 318.5,288.5C 326.453,282.25 331.62,274.25 334,264.5C 331.617,267.273 328.783,269.439 325.5,271C 303.381,280.113 280.381,285.613 256.5,287.5C 256.5,286.167 256.5,284.833 256.5,283.5C 270.802,279.566 284.802,274.733 298.5,269C 316.792,261.529 333.459,251.529 348.5,239C 357.55,231.058 363.05,221.225 365,209.5C 360.002,214.831 354.169,218.997 347.5,222C 318.512,233.581 288.512,241.414 257.5,245.5C 257.5,244.167 257.5,242.833 257.5,241.5C 292.152,231.837 324.152,216.837 353.5,196.5C 353.633,199.896 354.633,200.229 356.5,197.5C 358.286,199.922 359.952,199.922 361.5,197.5C 364.184,200.039 366.851,200.039 369.5,197.5C 371.367,200.229 372.367,199.896 372.5,196.5C 374.912,196.244 376.579,197.244 377.5,199.5C 378.611,198.389 379.945,197.722 381.5,197.5C 383.623,198.312 385.79,198.978 388,199.5C 391.012,197.048 394.012,197.048 397,199.5C 399.072,196.906 401.239,196.906 403.5,199.5C 405.603,196.949 407.769,196.949 410,199.5C 412.294,195.527 414.628,195.527 417,199.5C 417.388,198.572 418.055,197.905 419,197.5C 420.784,198.309 422.617,198.976 424.5,199.5C 426.278,198.055 428.278,197.055 430.5,196.5C 433.271,197.795 436.104,198.795 439,199.5C 440.716,199.252 442.216,198.585 443.5,197.5C 447.912,200 452.412,200 457,197.5C 458.365,197.844 459.532,198.511 460.5,199.5C 461.281,198.263 462.281,197.263 463.5,196.5C 464.631,197.751 465.964,198.751 467.5,199.5C 470.298,198.477 473.132,198.477 476,199.5C 479.176,198.982 482.176,197.982 485,196.5C 487.738,196.576 490.072,197.576 492,199.5C 494.197,196.508 496.531,196.174 499,198.5C 500.016,197.366 500.683,197.699 501,199.5C 501.49,198.207 501.657,196.873 501.5,195.5 Z"/></g>
<g><path style="opacity:1" fill="#c1ccdb" d="M 5.5,196.5 C 6.58617,196.62 7.25284,197.287 7.5,198.5C 6.66685,202.832 5.83352,207.165 5,211.5C 4.62638,213.491 3.79305,215.158 2.5,216.5C 2.98269,209.754 3.98269,203.087 5.5,196.5 Z"/></g>
<g><path style="opacity:1" fill="#cdd6df" d="M 0.5,225.5 C 0.600832,238.654 0.767499,251.988 1,265.5C 1.22356,273.049 2.0569,280.383 3.5,287.5C 3.97461,290.082 3.30794,292.082 1.5,293.5C 1.21808,287.979 0.551416,282.646 -0.5,277.5C -0.5,262.833 -0.5,248.167 -0.5,233.5C 0.473067,231.052 0.8064,228.385 0.5,225.5 Z"/></g>
<g><path style="opacity:1" fill="#c4cddd" d="M 2.5,294.5 C 3.11742,294.611 3.61742,294.944 4,295.5C 6.15821,304.122 7.99154,312.789 9.5,321.5C 9.04311,322.298 8.37644,322.631 7.5,322.5C 5.06104,313.305 3.39437,303.972 2.5,294.5 Z"/></g>
<g><path style="opacity:1" fill="#9fb9e8" d="M 508.5,235.5 C 509.117,235.611 509.617,235.944 510,236.5C 510.667,249.167 510.667,261.833 510,274.5C 507.596,288.445 505.263,302.445 503,316.5C 499.742,328.853 495.742,340.853 491,352.5C 488.608,357.014 486.608,361.681 485,366.5C 481.271,369.228 479.271,372.894 479,377.5C 477.97,379.346 476.804,381.013 475.5,382.5C 474.504,382.414 473.671,382.748 473,383.5C 472.293,385.081 471.46,386.581 470.5,388C 458.967,388.198 447.467,388.698 436,389.5C 406.458,388.304 377.124,388.304 348,389.5C 343.98,388.914 339.98,388.248 336,387.5C 316.046,388.915 296.213,389.248 276.5,388.5C 275.833,392.5 275.167,392.5 274.5,388.5C 257.881,389.157 241.214,389.157 224.5,388.5C 224.719,389.675 224.386,390.675 223.5,391.5C 222.176,389.682 220.343,388.682 218,388.5C 216.342,388.675 215.009,389.342 214,390.5C 207.272,388.993 200.439,387.993 193.5,387.5C 188.23,388.451 182.897,388.785 177.5,388.5C 176.833,392.5 176.167,392.5 175.5,388.5C 170.5,388.5 165.5,388.5 160.5,388.5C 160.5,389.5 160.5,390.5 160.5,391.5C 158.833,391.5 157.167,391.5 155.5,391.5C 155.412,388.691 153.912,387.358 151,387.5C 147.821,387.543 145.488,388.876 144,391.5C 143.255,390.01 142.088,389.01 140.5,388.5C 131.304,388.475 122.138,388.809 113,389.5C 105.987,388.872 98.987,388.205 92,387.5C 80.4873,388.156 68.9873,388.823 57.5,389.5C 51.8848,388.711 46.2182,388.211 40.5,388C 39.2644,386.915 37.9311,386.082 36.5,385.5C 32.941,379.386 29.6076,373.053 26.5,366.5C 25.7435,365.227 25.0768,365.227 24.5,366.5C 21.9278,361.685 19.5944,356.685 17.5,351.5C 18.3764,351.631 19.0431,351.298 19.5,350.5C 17.0777,345.484 15.5777,340.151 15,334.5C 14.2281,329.92 12.0614,326.253 8.5,323.5C 7.83333,323.5 7.5,323.167 7.5,322.5C 8.37644,322.631 9.04311,322.298 9.5,321.5C 7.99154,312.789 6.15821,304.122 4,295.5C 3.61742,294.944 3.11742,294.611 2.5,294.5C 1.83333,294.5 1.5,294.167 1.5,293.5C 3.30794,292.082 3.97461,290.082 3.5,287.5C 4.15767,288.398 4.82434,289.398 5.5,290.5C 9.69073,290.013 13.8574,289.68 18,289.5C 20.811,289.703 23.4777,290.369 26,291.5C 26.6739,290.422 27.6739,289.755 29,289.5C 51.8633,289.53 75.0299,289.53 98.5,289.5C 99.1667,293.5 99.8333,293.5 100.5,289.5C 105.205,290.799 109.705,290.799 114,289.5C 117.742,289.815 121.242,290.815 124.5,292.5C 125.963,290.435 127.963,289.435 130.5,289.5C 134.482,290.509 138.482,290.509 142.5,289.5C 142.664,295.167 142.997,295.5 143.5,290.5C 144.999,296.469 146.832,302.469 149,308.5C 163.997,338.267 188.164,355.1 221.5,359C 260.122,361.145 288.455,345.311 306.5,311.5C 306.167,311.167 305.833,310.833 305.5,310.5C 290.139,316.949 274.139,320.616 257.5,321.5C 257.5,320.167 257.5,318.833 257.5,317.5C 279.832,311.832 300.165,302.166 318.5,288.5C 320.349,289.837 322.516,290.503 325,290.5C 328.473,289.837 331.973,289.504 335.5,289.5C 335.5,290.5 335.5,291.5 335.5,292.5C 336.5,292.5 337.5,292.5 338.5,292.5C 338.5,291.5 338.5,290.5 338.5,289.5C 346.737,289.77 355.071,289.77 363.5,289.5C 363.281,290.675 363.614,291.675 364.5,292.5C 366.703,290.822 369.203,289.822 372,289.5C 379.293,290.073 386.627,290.073 394,289.5C 397.485,289.632 400.818,290.299 404,291.5C 405.52,290.493 407.187,289.827 409,289.5C 438.781,289.301 468.448,289.634 498,290.5C 500.464,289.839 502.964,289.339 505.5,289C 506.694,283.265 507.528,277.432 508,271.5C 508.5,259.505 508.667,247.505 508.5,235.5 Z"/></g>
<g><path style="opacity:1" fill="#c5cfde" d="M 491.5,154.5 C 502.11,179.94 508.776,206.273 511.5,233.5C 511.5,248.167 511.5,262.833 511.5,277.5C 505.833,333.198 484.833,382.198 448.5,424.5C 447.427,423.749 447.26,422.749 448,421.5C 458.537,409.463 467.704,396.463 475.5,382.5C 476.804,381.013 477.97,379.346 479,377.5C 479.271,372.894 481.271,369.228 485,366.5C 486.608,361.681 488.608,357.014 491,352.5C 495.742,340.853 499.742,328.853 503,316.5C 505.263,302.445 507.596,288.445 510,274.5C 510.667,261.833 510.667,249.167 510,236.5C 509.617,235.944 509.117,235.611 508.5,235.5C 508.679,221.589 506.346,208.255 501.5,195.5C 498.109,182.479 494.442,169.479 490.5,156.5C 490.543,155.584 490.876,154.917 491.5,154.5 Z"/></g>
<g><path style="opacity:1" fill="#c8d4e9" d="M 8.5,323.5 C 12.0614,326.253 14.2281,329.92 15,334.5C 15.5777,340.151 17.0777,345.484 19.5,350.5C 19.0431,351.298 18.3764,351.631 17.5,351.5C 13.6985,342.429 10.6985,333.095 8.5,323.5 Z"/></g>
<g><path style="opacity:1" fill="#d9dde6" d="M 36.5,385.5 C 36.6716,386.492 36.3382,387.158 35.5,387.5C 31.4014,380.732 27.7347,373.732 24.5,366.5C 25.0768,365.227 25.7435,365.227 26.5,366.5C 29.6076,373.053 32.941,379.386 36.5,385.5 Z"/></g>
<g><path style="opacity:1" fill="#bdc9dd" d="M 36.5,388.5 C 37.4959,388.414 38.3292,388.748 39,389.5C 41.2135,394.317 44.5468,397.984 49,400.5C 49.3333,402.5 49.6667,404.5 50,406.5C 52.9287,408.346 54.0954,410.679 53.5,413.5C 47.0913,405.686 41.4246,397.353 36.5,388.5 Z"/></g>
<g><path style="opacity:1" fill="#a4beec" d="M 475.5,382.5 C 467.704,396.463 458.537,409.463 448,421.5C 447.26,422.749 447.427,423.749 448.5,424.5C 448.167,425.5 447.5,426.167 446.5,426.5C 446.103,425.475 445.437,425.308 444.5,426C 438.772,431.973 432.939,437.806 427,443.5C 426.517,444.448 426.351,445.448 426.5,446.5C 422.413,450.922 417.746,454.589 412.5,457.5C 410.692,457.491 409.025,457.991 407.5,459C 401.718,464.112 395.384,468.445 388.5,472C 386.234,473.426 384.568,475.26 383.5,477.5C 367.815,482.01 352.815,488.176 338.5,496C 310.909,504.764 282.576,509.597 253.5,510.5C 238.86,509.338 224.193,507.838 209.5,506C 203.1,504.907 197.1,502.907 191.5,500C 187.5,499.667 183.5,499.333 179.5,499C 169.778,492.646 159.112,488.646 147.5,487C 128.582,476.053 110.249,464.387 92.5,452C 78.927,440.429 66.7604,427.596 56,413.5C 55.6174,414.056 55.1174,414.389 54.5,414.5C 53.8333,414.5 53.5,414.167 53.5,413.5C 54.0954,410.679 52.9287,408.346 50,406.5C 49.6667,404.5 49.3333,402.5 49,400.5C 44.5468,397.984 41.2135,394.317 39,389.5C 38.3292,388.748 37.4959,388.414 36.5,388.5C 35.8333,388.5 35.5,388.167 35.5,387.5C 36.3382,387.158 36.6716,386.492 36.5,385.5C 37.9311,386.082 39.2644,386.915 40.5,388C 46.2182,388.211 51.8848,388.711 57.5,389.5C 68.9873,388.823 80.4873,388.156 92,387.5C 98.987,388.205 105.987,388.872 113,389.5C 122.138,388.809 131.304,388.475 140.5,388.5C 142.088,389.01 143.255,390.01 144,391.5C 145.488,388.876 147.821,387.543 151,387.5C 153.912,387.358 155.412,388.691 155.5,391.5C 157.167,391.5 158.833,391.5 160.5,391.5C 160.5,390.5 160.5,389.5 160.5,388.5C 165.5,388.5 170.5,388.5 175.5,388.5C 176.167,392.5 176.833,392.5 177.5,388.5C 182.897,388.785 188.23,388.451 193.5,387.5C 200.439,387.993 207.272,388.993 214,390.5C 215.009,389.342 216.342,388.675 218,388.5C 220.343,388.682 222.176,389.682 223.5,391.5C 224.386,390.675 224.719,389.675 224.5,388.5C 241.214,389.157 257.881,389.157 274.5,388.5C 275.167,392.5 275.833,392.5 276.5,388.5C 296.213,389.248 316.046,388.915 336,387.5C 339.98,388.248 343.98,388.914 348,389.5C 377.124,388.304 406.458,388.304 436,389.5C 447.467,388.698 458.967,388.198 470.5,388C 471.46,386.581 472.293,385.081 473,383.5C 473.671,382.748 474.504,382.414 475.5,382.5 Z"/></g>
<g><path style="opacity:1" fill="#dde7f4" d="M 446.5,426.5 C 440.167,433.5 433.5,440.167 426.5,446.5C 426.351,445.448 426.517,444.448 427,443.5C 432.939,437.806 438.772,431.973 444.5,426C 445.437,425.308 446.103,425.475 446.5,426.5 Z"/></g>
<g><path style="opacity:0.953" fill="#c6cfdb" d="M 412.5,457.5 C 403.741,465.388 394.074,472.055 383.5,477.5C 384.568,475.26 386.234,473.426 388.5,472C 395.384,468.445 401.718,464.112 407.5,459C 409.025,457.991 410.692,457.491 412.5,457.5 Z"/></g>
<g><path style="opacity:1" fill="#c8d4e8" d="M 383.5,477.5 C 350.68,496.662 315.347,507.996 277.5,511.5C 262.833,511.5 248.167,511.5 233.5,511.5C 160.378,503.65 100.712,471.317 54.5,414.5C 55.1174,414.389 55.6174,414.056 56,413.5C 66.7604,427.596 78.927,440.429 92.5,452C 110.249,464.387 128.582,476.053 147.5,487C 159.112,488.646 169.778,492.646 179.5,499C 183.5,499.333 187.5,499.667 191.5,500C 197.1,502.907 203.1,504.907 209.5,506C 224.193,507.838 238.86,509.338 253.5,510.5C 282.576,509.597 310.909,504.764 338.5,496C 352.815,488.176 367.815,482.01 383.5,477.5 Z"/></g>
</svg>
