<?xml version="1.0" encoding="UTF-8"?>
<!DOCTYPE svg PUBLIC "-//W3C//DTD SVG 1.1//EN" "http://www.w3.org/Graphics/SVG/1.1/DTD/svg11.dtd">
<svg xmlns="http://www.w3.org/2000/svg" version="1.1" width="512px" height="512px" style="shape-rendering:geometricPrecision; text-rendering:geometricPrecision; image-rendering:optimizeQuality; fill-rule:evenodd; clip-rule:evenodd" xmlns:xlink="http://www.w3.org/1999/xlink">
<g><path style="opacity:1" fill="#546aad" d="M 233.5,-0.5 C 248.167,-0.5 262.833,-0.5 277.5,-0.5C 368.421,10.2899 436.587,55.2899 482,134.5C 485.394,140.619 488.228,146.952 490.5,153.5C 487.512,149.538 484.512,145.538 481.5,141.5C 480.747,137.322 479.413,133.322 477.5,129.5C 469.175,118.667 461.008,107.667 453,96.5C 454.126,98.9497 453.459,100.95 451,102.5C 450.311,101.643 449.478,100.977 448.5,100.5C 445.167,103.167 441.833,103.167 438.5,100.5C 435.775,102.896 432.941,102.896 430,100.5C 428.667,101.167 427.333,101.833 426,102.5C 424.403,101.115 422.57,100.449 420.5,100.5C 420.719,99.325 420.386,98.325 419.5,97.5C 418.256,99.4374 416.756,101.104 415,102.5C 412.273,99.9745 409.607,99.9745 407,102.5C 405.915,101.707 404.748,101.04 403.5,100.5C 399.178,103.021 394.845,103.021 390.5,100.5C 388.971,100.529 387.804,101.196 387,102.5C 384.554,100.076 382.054,100.076 379.5,102.5C 374.469,99.9749 369.469,99.9749 364.5,102.5C 363.269,101.349 363.269,100.183 364.5,99C 363.833,98.8333 363.167,98.6667 362.5,98.5C 359.068,100.061 355.401,100.894 351.5,101C 349.781,102.93 347.947,104.764 346,106.5C 347.395,100.729 345.562,99.3954 340.5,102.5C 339.259,101.963 338.092,101.296 337,100.5C 335.635,101.456 334.135,102.122 332.5,102.5C 328.631,101.566 325.298,99.8994 322.5,97.5C 319.452,97.6469 319.119,99.1469 321.5,102C 321.167,102.167 320.833,102.333 320.5,102.5C 319.15,101.05 317.484,100.383 315.5,100.5C 315.923,103.288 314.923,105.288 312.5,106.5C 312.167,106.167 311.833,105.833 311.5,105.5C 314.268,103.375 314.101,101.709 311,100.5C 309.333,101.167 307.667,101.833 306,102.5C 302.069,99.9233 298.069,99.9233 294,102.5C 291.908,100.093 289.908,100.093 288,102.5C 285.327,99.5878 283.16,99.9211 281.5,103.5C 278.833,102.167 276.167,102.167 273.5,103.5C 273.991,101.679 273.991,99.6792 273.5,97.5C 271.652,100.478 269.652,100.812 267.5,98.5C 265.833,99.8333 264.167,101.167 262.5,102.5C 258.178,99.9791 253.845,99.9791 249.5,102.5C 245.379,99.3168 243.379,100.317 243.5,105.5C 241.5,105.5 239.5,105.5 237.5,105.5C 237.5,104.167 237.5,102.833 237.5,101.5C 238.5,101.5 239.5,101.5 240.5,101.5C 240.55,99.4099 239.55,98.0766 237.5,97.5C 236.321,101.808 234.987,102.141 233.5,98.5C 232.833,99.1667 232.167,99.8333 231.5,100.5C 230.031,96.8209 228.364,96.6542 226.5,100C 230.557,108.141 229.891,108.474 224.5,101C 220.556,100.01 216.889,100.51 213.5,102.5C 211.133,100.605 208.466,100.105 205.5,101C 204.169,102.999 202.335,104.833 200,106.5C 201.486,101.647 199.653,98.9802 194.5,98.5C 194.854,101.421 193.854,103.754 191.5,105.5C 189.201,103.562 186.701,101.896 184,100.5C 182.566,100.93 181.399,101.764 180.5,103C 176.484,103.186 172.484,103.186 168.5,103C 167.953,103.925 167.287,104.758 166.5,105.5C 165.01,103.874 163.51,102.208 162,100.5C 160.075,102.973 158.242,102.973 156.5,100.5C 155.28,100.887 154.613,101.72 154.5,103C 155.187,104.162 155.353,105.328 155,106.5C 154.333,105.167 153.667,105.167 153,106.5C 154.452,100.943 152.785,99.6097 148,102.5C 146.225,101.73 144.725,100.563 143.5,99C 142.207,98.51 140.873,98.3433 139.5,98.5C 139.5,99.5 139.5,100.5 139.5,101.5C 140.529,103.696 138.862,102.696 134.5,98.5C 132.889,99.3202 132.222,100.654 132.5,102.5C 129.91,102.604 127.577,101.937 125.5,100.5C 123.438,101.729 121.271,102.729 119,103.5C 118.167,103.167 117.333,102.833 116.5,102.5C 118.045,101.548 119.712,101.215 121.5,101.5C 121.5,100.167 121.5,98.8333 121.5,97.5C 119.5,97.5 117.5,97.5 115.5,97.5C 115.649,98.552 115.483,99.552 115,100.5C 113.736,98.393 111.903,97.393 109.5,97.5C 109.681,100.553 109.848,103.553 110,106.5C 108.589,103.422 106.256,101.422 103,100.5C 101.395,101.101 100.062,102.101 99,103.5C 98.0575,101.046 96.2241,100.046 93.5,100.5C 91.192,100.365 89.192,101.031 87.5,102.5C 86.7836,101.689 85.9503,101.022 85,100.5C 83.3745,101.289 81.8745,102.289 80.5,103.5C 80.1667,103.167 79.8333,102.833 79.5,102.5C 81.0049,101.158 81.6715,99.4918 81.5,97.5C 78.0951,99.8142 74.2618,101.481 70,102.5C 69.1667,102.333 68.3333,102.167 67.5,102C 68.731,100.817 68.731,99.6507 67.5,98.5C 66.7492,99.376 66.2492,100.376 66,101.5C 63.1997,100.875 60.3664,100.208 57.5,99.5C 58.8334,98.3801 59.3334,97.0468 59,95.5C 57.9609,96.7101 56.7942,97.7101 55.5,98.5C 55.1583,97.6618 54.4916,97.3284 53.5,97.5C 53.5,96.8333 53.8333,96.5 54.5,96.5C 70.9757,80.86 87.6423,65.36 104.5,50C 109.565,46.8009 114.898,44.1343 120.5,42C 121.861,40.4157 122.528,38.5824 122.5,36.5C 135.629,27.9355 149.629,20.9355 164.5,15.5C 164.369,16.3764 164.702,17.0431 165.5,17.5C 173.563,13.7569 181.897,10.9236 190.5,9C 197.011,8.93184 203.344,7.93184 209.5,6C 210.252,5.32924 210.586,4.4959 210.5,3.5C 218.11,1.79404 225.777,0.460706 233.5,-0.5 Z"/></g>
<g><path style="opacity:1" fill="#678bcc" d="M 210.5,3.5 C 210.586,4.4959 210.252,5.32924 209.5,6C 203.344,7.93184 197.011,8.93184 190.5,9C 181.897,10.9236 173.563,13.7569 165.5,17.5C 164.702,17.0431 164.369,16.3764 164.5,15.5C 179.337,9.62413 194.67,5.62413 210.5,3.5 Z"/></g>
<g><path style="opacity:1" fill="#6687ca" d="M 122.5,36.5 C 122.528,38.5824 121.861,40.4157 120.5,42C 114.898,44.1343 109.565,46.8009 104.5,50C 87.6423,65.36 70.9757,80.86 54.5,96.5C 73.2092,71.8438 95.8759,51.8438 122.5,36.5 Z"/></g>
<g><path style="opacity:1" fill="#556aaf" d="M 481.5,141.5 C 478.805,138.777 477.138,135.443 476.5,131.5C 474.892,130.682 473.225,130.015 471.5,129.5C 470.784,127.518 469.617,125.851 468,124.5C 466.814,126.677 464.981,127.677 462.5,127.5C 462.5,128.5 462.5,129.5 462.5,130.5C 461.5,130.5 460.5,130.5 459.5,130.5C 459.799,128.396 459.466,126.396 458.5,124.5C 456.844,126.46 455.177,128.46 453.5,130.5C 451.879,128.376 450.046,126.376 448,124.5C 444.026,124.809 440.026,125.809 436,127.5C 433.745,127.39 432.078,126.39 431,124.5C 429.552,127.455 427.385,129.455 424.5,130.5C 424.5,129.5 424.5,128.5 424.5,127.5C 421.79,127.119 419.457,126.286 417.5,125C 417.374,126.974 417.208,129.141 417,131.5C 415.978,130.646 415.145,129.646 414.5,128.5C 409.833,127.833 405.167,127.167 400.5,126.5C 400.192,125.692 399.692,125.025 399,124.5C 397.747,128.044 395.913,128.377 393.5,125.5C 390.689,128.179 388.189,127.845 386,124.5C 383.401,128.311 381.068,128.311 379,124.5C 377.32,125.603 375.82,125.27 374.5,123.5C 372.483,124.174 370.817,125.341 369.5,127C 372.028,128.316 372.028,129.483 369.5,130.5C 368.915,128.135 367.748,126.135 366,124.5C 363,125.833 360,125.833 357,124.5C 354.302,129.281 352.302,129.281 351,124.5C 345.486,128.361 339.986,128.361 334.5,124.5C 333.719,125.729 333.219,127.062 333,128.5C 331.167,126.833 329.333,125.167 327.5,123.5C 326.692,123.808 326.025,124.308 325.5,125C 326.731,126.183 326.731,127.349 325.5,128.5C 324.147,127.315 322.98,125.981 322,124.5C 319.667,128.5 317.333,128.5 315,124.5C 313.494,127.474 311.828,127.807 310,125.5C 307.771,128.156 305.938,127.823 304.5,124.5C 303.319,126.135 303.319,127.802 304.5,129.5C 304,129.833 303.5,130.167 303,130.5C 300.172,128.749 297.505,126.749 295,124.5C 292.667,128.5 290.333,128.5 288,124.5C 286.978,125.354 286.145,126.354 285.5,127.5C 286.693,130.473 286.027,130.973 283.5,129C 284.329,125.344 283.329,124.844 280.5,127.5C 279.186,126.687 278.019,125.687 277,124.5C 276.424,126.852 274.924,127.852 272.5,127.5C 269.718,126.381 267.218,125.381 265,124.5C 261.987,125.922 261.82,127.589 264.5,129.5C 264.192,130.308 263.692,130.975 263,131.5C 261.333,128.5 259,126.167 256,124.5C 253.307,126.516 250.64,128.516 248,130.5C 246.3,128.685 244.134,127.685 241.5,127.5C 238.866,127.685 236.7,128.685 235,130.5C 233.274,129.352 233.441,128.185 235.5,127C 234.667,126.167 233.833,125.333 233,124.5C 231.243,124.133 229.743,124.966 228.5,127C 224.848,127.499 221.182,127.665 217.5,127.5C 218.244,124.05 216.91,122.384 213.5,122.5C 213.66,124.199 213.494,125.866 213,127.5C 212.085,126.672 211.419,125.672 211,124.5C 210.411,126.863 208.911,127.863 206.5,127.5C 206.649,126.448 206.483,125.448 206,124.5C 205.333,125.833 204.667,125.833 204,124.5C 203.167,125.5 202.333,126.5 201.5,127.5C 199.608,124.956 197.775,124.956 196,127.5C 194.225,124.956 192.392,124.956 190.5,127.5C 189.749,126.624 189.249,125.624 189,124.5C 186.551,126.075 183.551,127.075 180,127.5C 177.414,127.498 175.414,126.498 174,124.5C 171.421,128.366 168.755,128.366 166,124.5C 163,128.5 160,128.5 157,124.5C 154.722,126.579 152.889,128.913 151.5,131.5C 151.167,131 150.833,130.5 150.5,130C 151.707,128.7 152.374,127.2 152.5,125.5C 150.533,125.739 148.699,125.406 147,124.5C 145,128.5 143,128.5 141,124.5C 139,125.833 137,125.833 135,124.5C 131.492,128.436 128.159,128.436 125,124.5C 123.423,127.675 121.59,128.009 119.5,125.5C 117.41,128.009 115.577,127.675 114,124.5C 113.101,126.327 111.767,127.66 110,128.5C 109.5,128.167 109,127.833 108.5,127.5C 110.756,126.579 111.756,124.912 111.5,122.5C 108.861,122.571 106.694,123.571 105,125.5C 104.228,125.355 103.561,125.022 103,124.5C 100.125,128.432 97.2915,128.432 94.5,124.5C 92.5586,126.316 91.8919,128.316 92.5,130.5C 90.8793,128.376 89.046,126.376 87,124.5C 84.782,125.381 82.282,126.381 79.5,127.5C 77.3403,127.234 75.6736,126.234 74.5,124.5C 73.6143,125.325 73.281,126.325 73.5,127.5C 70.0921,126.828 67.4255,127.828 65.5,130.5C 62.8624,127.611 60.0291,125.611 57,124.5C 55.9858,132.204 54.4858,132.371 52.5,125C 50.5826,125.027 48.916,125.861 47.5,127.5C 46.2011,126.91 45.3678,125.91 45,124.5C 42.8526,125.113 40.686,125.779 38.5,126.5C 36.8598,130.152 34.5265,133.152 31.5,135.5C 34.2098,128.414 37.7098,121.747 42,115.5C 47.1528,110.2 51.6528,104.533 55.5,98.5C 56.7942,97.7101 57.9609,96.7101 59,95.5C 59.3334,97.0468 58.8334,98.3801 57.5,99.5C 60.3664,100.208 63.1997,100.875 66,101.5C 66.2492,100.376 66.7492,99.376 67.5,98.5C 68.731,99.6507 68.731,100.817 67.5,102C 68.3333,102.167 69.1667,102.333 70,102.5C 74.2618,101.481 78.0951,99.8142 81.5,97.5C 81.6715,99.4918 81.0049,101.158 79.5,102.5C 79.8333,102.833 80.1667,103.167 80.5,103.5C 81.8745,102.289 83.3745,101.289 85,100.5C 85.9503,101.022 86.7836,101.689 87.5,102.5C 89.192,101.031 91.192,100.365 93.5,100.5C 96.2241,100.046 98.0575,101.046 99,103.5C 100.062,102.101 101.395,101.101 103,100.5C 106.256,101.422 108.589,103.422 110,106.5C 109.848,103.553 109.681,100.553 109.5,97.5C 111.903,97.393 113.736,98.393 115,100.5C 115.483,99.552 115.649,98.552 115.5,97.5C 117.5,97.5 119.5,97.5 121.5,97.5C 121.5,98.8333 121.5,100.167 121.5,101.5C 119.712,101.215 118.045,101.548 116.5,102.5C 117.333,102.833 118.167,103.167 119,103.5C 121.271,102.729 123.438,101.729 125.5,100.5C 127.577,101.937 129.91,102.604 132.5,102.5C 132.222,100.654 132.889,99.3202 134.5,98.5C 138.862,102.696 140.529,103.696 139.5,101.5C 139.5,100.5 139.5,99.5 139.5,98.5C 140.873,98.3433 142.207,98.51 143.5,99C 144.725,100.563 146.225,101.73 148,102.5C 152.785,99.6097 154.452,100.943 153,106.5C 153.667,105.167 154.333,105.167 155,106.5C 155.353,105.328 155.187,104.162 154.5,103C 154.613,101.72 155.28,100.887 156.5,100.5C 158.242,102.973 160.075,102.973 162,100.5C 163.51,102.208 165.01,103.874 166.5,105.5C 167.287,104.758 167.953,103.925 168.5,103C 172.484,103.186 176.484,103.186 180.5,103C 181.399,101.764 182.566,100.93 184,100.5C 186.701,101.896 189.201,103.562 191.5,105.5C 193.854,103.754 194.854,101.421 194.5,98.5C 199.653,98.9802 201.486,101.647 200,106.5C 202.335,104.833 204.169,102.999 205.5,101C 208.466,100.105 211.133,100.605 213.5,102.5C 216.889,100.51 220.556,100.01 224.5,101C 229.891,108.474 230.557,108.141 226.5,100C 228.364,96.6542 230.031,96.8209 231.5,100.5C 232.167,99.8333 232.833,99.1667 233.5,98.5C 234.987,102.141 236.321,101.808 237.5,97.5C 239.55,98.0766 240.55,99.4099 240.5,101.5C 239.5,101.5 238.5,101.5 237.5,101.5C 237.5,102.833 237.5,104.167 237.5,105.5C 239.5,105.5 241.5,105.5 243.5,105.5C 243.379,100.317 245.379,99.3168 249.5,102.5C 253.845,99.9791 258.178,99.9791 262.5,102.5C 264.167,101.167 265.833,99.8333 267.5,98.5C 269.652,100.812 271.652,100.478 273.5,97.5C 273.991,99.6792 273.991,101.679 273.5,103.5C 276.167,102.167 278.833,102.167 281.5,103.5C 283.16,99.9211 285.327,99.5878 288,102.5C 289.908,100.093 291.908,100.093 294,102.5C 298.069,99.9233 302.069,99.9233 306,102.5C 307.667,101.833 309.333,101.167 311,100.5C 314.101,101.709 314.268,103.375 311.5,105.5C 311.833,105.833 312.167,106.167 312.5,106.5C 314.923,105.288 315.923,103.288 315.5,100.5C 317.484,100.383 319.15,101.05 320.5,102.5C 320.833,102.333 321.167,102.167 321.5,102C 319.119,99.1469 319.452,97.6469 322.5,97.5C 325.298,99.8994 328.631,101.566 332.5,102.5C 334.135,102.122 335.635,101.456 337,100.5C 338.092,101.296 339.259,101.963 340.5,102.5C 345.562,99.3954 347.395,100.729 346,106.5C 347.947,104.764 349.781,102.93 351.5,101C 355.401,100.894 359.068,100.061 362.5,98.5C 363.167,98.6667 363.833,98.8333 364.5,99C 363.269,100.183 363.269,101.349 364.5,102.5C 369.469,99.9749 374.469,99.9749 379.5,102.5C 382.054,100.076 384.554,100.076 387,102.5C 387.804,101.196 388.971,100.529 390.5,100.5C 394.845,103.021 399.178,103.021 403.5,100.5C 404.748,101.04 405.915,101.707 407,102.5C 409.607,99.9745 412.273,99.9745 415,102.5C 416.756,101.104 418.256,99.4374 419.5,97.5C 420.386,98.325 420.719,99.325 420.5,100.5C 422.57,100.449 424.403,101.115 426,102.5C 427.333,101.833 428.667,101.167 430,100.5C 432.941,102.896 435.775,102.896 438.5,100.5C 441.833,103.167 445.167,103.167 448.5,100.5C 449.478,100.977 450.311,101.643 451,102.5C 453.459,100.95 454.126,98.9497 453,96.5C 461.008,107.667 469.175,118.667 477.5,129.5C 479.413,133.322 480.747,137.322 481.5,141.5 Z"/></g>
<g><path style="opacity:1" fill="#6b8dcd" d="M 53.5,97.5 C 54.4916,97.3284 55.1583,97.6618 55.5,98.5C 51.6528,104.533 47.1528,110.2 42,115.5C 37.7098,121.747 34.2098,128.414 31.5,135.5C 31.1129,139.303 29.1129,141.637 25.5,142.5C 33.0694,126.353 42.4027,111.353 53.5,97.5 Z"/></g>
<g><path style="opacity:1" fill="#596ab3" d="M 481.5,141.5 C 484.512,145.538 487.512,149.538 490.5,153.5C 495.866,164.259 499.866,175.592 502.5,187.5C 501.883,187.611 501.383,187.944 501,188.5C 499.623,186.408 497.79,184.742 495.5,183.5C 492.182,184.922 488.849,186.255 485.5,187.5C 481.5,186.167 477.5,184.833 473.5,183.5C 471.477,185.173 469.144,185.84 466.5,185.5C 466.281,180.371 465.614,180.371 464.5,185.5C 457.287,184.922 450.287,185.588 443.5,187.5C 440.802,186.302 438.969,184.302 438,181.5C 437.355,182.646 436.522,183.646 435.5,184.5C 437.289,185.623 437.622,186.956 436.5,188.5C 435.369,187.249 434.036,186.249 432.5,185.5C 430.964,186.249 429.631,187.249 428.5,188.5C 427.614,187.675 427.281,186.675 427.5,185.5C 426.07,185.421 424.736,185.754 423.5,186.5C 422.614,185.675 422.281,184.675 422.5,183.5C 420.088,183.331 417.921,183.997 416,185.5C 413.923,182.596 412.589,182.93 412,186.5C 411.221,185.272 410.221,184.272 409,183.5C 407.079,185.003 404.912,185.669 402.5,185.5C 402.657,184.127 402.49,182.793 402,181.5C 401.477,183.223 400.477,184.556 399,185.5C 397.85,184.576 396.85,184.576 396,185.5C 394.493,181.764 393.66,181.764 393.5,185.5C 392.5,185.5 391.5,185.5 390.5,185.5C 390.688,183.897 390.188,182.563 389,181.5C 383.93,184.796 378.43,186.796 372.5,187.5C 372.762,186.022 372.429,184.689 371.5,183.5C 370.024,185.571 368.024,186.571 365.5,186.5C 365.351,182.877 364.184,182.543 362,185.5C 361.05,184.978 360.216,184.311 359.5,183.5C 357.207,184.705 354.707,185.372 352,185.5C 349.293,185.372 346.793,184.705 344.5,183.5C 343.201,184.694 341.868,185.694 340.5,186.5C 306.221,146.928 264.221,135.761 214.5,153C 197.445,160.839 183.112,172.006 171.5,186.5C 170.548,185.548 169.548,184.548 168.5,183.5C 167.051,184.617 165.384,185.284 163.5,185.5C 160.314,184.314 157.147,184.314 154,185.5C 152.284,185.252 150.784,184.585 149.5,183.5C 147.494,188.548 146.161,188.548 145.5,183.5C 142.921,183.917 140.754,183.25 139,181.5C 137.436,183.432 135.436,184.765 133,185.5C 130.045,184.626 127.045,183.959 124,183.5C 122.187,183.827 120.52,184.493 119,185.5C 117.072,184.44 115.405,183.107 114,181.5C 113.51,182.793 113.343,184.127 113.5,185.5C 111.857,185.52 110.524,184.853 109.5,183.5C 105.112,185.016 100.612,186.349 96,187.5C 93.9911,186.828 92.1578,185.828 90.5,184.5C 85.8394,183.029 81.3394,183.362 77,185.5C 76.0497,184.978 75.2164,184.311 74.5,183.5C 73.3974,185.104 71.8974,186.104 70,186.5C 66.8948,185.633 63.7281,185.299 60.5,185.5C 60.4207,180.508 59.4207,180.508 57.5,185.5C 54.7751,183.571 51.7751,183.071 48.5,184C 49.3802,185.356 49.7135,186.856 49.5,188.5C 48.5,188.5 47.5,188.5 46.5,188.5C 46.5,187.5 46.5,186.5 46.5,185.5C 45.448,185.649 44.448,185.483 43.5,185C 44.8882,184.111 44.7215,183.611 43,183.5C 39.3677,185.285 35.701,186.952 32,188.5C 31.8603,185.957 31.1937,183.623 30,181.5C 29.4585,187.663 28.1252,187.997 26,182.5C 22.8529,185.989 19.3529,186.323 15.5,183.5C 14.3777,184.63 13.0443,185.297 11.5,185.5C 12.7104,177.033 15.0437,168.866 18.5,161C 18.4301,160.235 18.0967,159.735 17.5,159.5C 19.9278,153.648 22.5944,147.981 25.5,142.5C 29.1129,141.637 31.1129,139.303 31.5,135.5C 34.5265,133.152 36.8598,130.152 38.5,126.5C 40.686,125.779 42.8526,125.113 45,124.5C 45.3678,125.91 46.2011,126.91 47.5,127.5C 48.916,125.861 50.5826,125.027 52.5,125C 54.4858,132.371 55.9858,132.204 57,124.5C 60.0291,125.611 62.8624,127.611 65.5,130.5C 67.4255,127.828 70.0921,126.828 73.5,127.5C 73.281,126.325 73.6143,125.325 74.5,124.5C 75.6736,126.234 77.3403,127.234 79.5,127.5C 82.282,126.381 84.782,125.381 87,124.5C 89.046,126.376 90.8793,128.376 92.5,130.5C 91.8919,128.316 92.5586,126.316 94.5,124.5C 97.2915,128.432 100.125,128.432 103,124.5C 103.561,125.022 104.228,125.355 105,125.5C 106.694,123.571 108.861,122.571 111.5,122.5C 111.756,124.912 110.756,126.579 108.5,127.5C 109,127.833 109.5,128.167 110,128.5C 111.767,127.66 113.101,126.327 114,124.5C 115.577,127.675 117.41,128.009 119.5,125.5C 121.59,128.009 123.423,127.675 125,124.5C 128.159,128.436 131.492,128.436 135,124.5C 137,125.833 139,125.833 141,124.5C 143,128.5 145,128.5 147,124.5C 148.699,125.406 150.533,125.739 152.5,125.5C 152.374,127.2 151.707,128.7 150.5,130C 150.833,130.5 151.167,131 151.5,131.5C 152.889,128.913 154.722,126.579 157,124.5C 160,128.5 163,128.5 166,124.5C 168.755,128.366 171.421,128.366 174,124.5C 175.414,126.498 177.414,127.498 180,127.5C 183.551,127.075 186.551,126.075 189,124.5C 189.249,125.624 189.749,126.624 190.5,127.5C 192.392,124.956 194.225,124.956 196,127.5C 197.775,124.956 199.608,124.956 201.5,127.5C 202.333,126.5 203.167,125.5 204,124.5C 204.667,125.833 205.333,125.833 206,124.5C 206.483,125.448 206.649,126.448 206.5,127.5C 208.911,127.863 210.411,126.863 211,124.5C 211.419,125.672 212.085,126.672 213,127.5C 213.494,125.866 213.66,124.199 213.5,122.5C 216.91,122.384 218.244,124.05 217.5,127.5C 221.182,127.665 224.848,127.499 228.5,127C 229.743,124.966 231.243,124.133 233,124.5C 233.833,125.333 234.667,126.167 235.5,127C 233.441,128.185 233.274,129.352 235,130.5C 236.7,128.685 238.866,127.685 241.5,127.5C 244.134,127.685 246.3,128.685 248,130.5C 250.64,128.516 253.307,126.516 256,124.5C 259,126.167 261.333,128.5 263,131.5C 263.692,130.975 264.192,130.308 264.5,129.5C 261.82,127.589 261.987,125.922 265,124.5C 267.218,125.381 269.718,126.381 272.5,127.5C 274.924,127.852 276.424,126.852 277,124.5C 278.019,125.687 279.186,126.687 280.5,127.5C 283.329,124.844 284.329,125.344 283.5,129C 286.027,130.973 286.693,130.473 285.5,127.5C 286.145,126.354 286.978,125.354 288,124.5C 290.333,128.5 292.667,128.5 295,124.5C 297.505,126.749 300.172,128.749 303,130.5C 303.5,130.167 304,129.833 304.5,129.5C 303.319,127.802 303.319,126.135 304.5,124.5C 305.938,127.823 307.771,128.156 310,125.5C 311.828,127.807 313.494,127.474 315,124.5C 317.333,128.5 319.667,128.5 322,124.5C 322.98,125.981 324.147,127.315 325.5,128.5C 326.731,127.349 326.731,126.183 325.5,125C 326.025,124.308 326.692,123.808 327.5,123.5C 329.333,125.167 331.167,126.833 333,128.5C 333.219,127.062 333.719,125.729 334.5,124.5C 339.986,128.361 345.486,128.361 351,124.5C 352.302,129.281 354.302,129.281 357,124.5C 360,125.833 363,125.833 366,124.5C 367.748,126.135 368.915,128.135 369.5,130.5C 372.028,129.483 372.028,128.316 369.5,127C 370.817,125.341 372.483,124.174 374.5,123.5C 375.82,125.27 377.32,125.603 379,124.5C 381.068,128.311 383.401,128.311 386,124.5C 388.189,127.845 390.689,128.179 393.5,125.5C 395.913,128.377 397.747,128.044 399,124.5C 399.692,125.025 400.192,125.692 400.5,126.5C 405.167,127.167 409.833,127.833 414.5,128.5C 415.145,129.646 415.978,130.646 417,131.5C 417.208,129.141 417.374,126.974 417.5,125C 419.457,126.286 421.79,127.119 424.5,127.5C 424.5,128.5 424.5,129.5 424.5,130.5C 427.385,129.455 429.552,127.455 431,124.5C 432.078,126.39 433.745,127.39 436,127.5C 440.026,125.809 444.026,124.809 448,124.5C 450.046,126.376 451.879,128.376 453.5,130.5C 455.177,128.46 456.844,126.46 458.5,124.5C 459.466,126.396 459.799,128.396 459.5,130.5C 460.5,130.5 461.5,130.5 462.5,130.5C 462.5,129.5 462.5,128.5 462.5,127.5C 464.981,127.677 466.814,126.677 468,124.5C 469.617,125.851 470.784,127.518 471.5,129.5C 473.225,130.015 474.892,130.682 476.5,131.5C 477.138,135.443 478.805,138.777 481.5,141.5 Z"/></g>
<g><path style="opacity:1" fill="#fefefe" d="M 340.5,186.5 C 348.12,197.739 354.12,209.739 358.5,222.5C 361.998,238.451 362.332,254.451 359.5,270.5C 356.192,288.112 348.859,303.779 337.5,317.5C 329.252,326.094 329.919,334.261 339.5,342C 343.007,344.254 346.673,346.254 350.5,348C 331.69,356.896 311.857,361.062 291,360.5C 265.942,360.111 241.442,356.278 217.5,349C 200.548,341.691 185.881,331.191 173.5,317.5C 163.268,303.699 156.268,288.366 152.5,271.5C 149.673,254.815 150.006,238.149 153.5,221.5C 157.635,208.897 163.635,197.23 171.5,186.5C 183.112,172.006 197.445,160.839 214.5,153C 264.221,135.761 306.221,146.928 340.5,186.5 Z"/></g>
<g><path style="opacity:1" fill="#5f6cb9" d="M 171.5,186.5 C 163.635,197.23 157.635,208.897 153.5,221.5C 151.4,221.477 149.567,222.144 148,223.5C 146.667,222.833 145.333,222.167 144,221.5C 141.667,224.167 139.333,224.167 137,221.5C 133.747,223.238 130.58,224.904 127.5,226.5C 127.616,223.09 125.95,221.756 122.5,222.5C 122.649,223.552 122.483,224.552 122,225.5C 121.653,223.82 120.653,222.82 119,222.5C 115.15,223.131 111.317,223.798 107.5,224.5C 106.667,223.5 105.833,222.5 105,221.5C 102.295,222.337 99.6286,223.337 97,224.5C 96.4806,223.484 95.6473,222.818 94.5,222.5C 92.8333,223.833 91.1667,223.833 89.5,222.5C 86.7894,223.014 84.2894,224.014 82,225.5C 81.5172,224.552 81.3505,223.552 81.5,222.5C 76.8333,223.833 72.1667,223.833 67.5,222.5C 67.6495,223.552 67.4828,224.552 67,225.5C 65.5267,223.993 63.6934,223.326 61.5,223.5C 58.8664,223.685 56.6997,224.685 55,226.5C 53.8315,225.991 52.9981,225.158 52.5,224C 37.5,223.667 22.5,223.333 7.5,223C 6.13124,221.281 5.13124,219.448 4.5,217.5C 7.22184,208.721 8.72184,199.721 9,190.5C 9.75684,188.685 10.5902,187.019 11.5,185.5C 13.0443,185.297 14.3777,184.63 15.5,183.5C 19.3529,186.323 22.8529,185.989 26,182.5C 28.1252,187.997 29.4585,187.663 30,181.5C 31.1937,183.623 31.8603,185.957 32,188.5C 35.701,186.952 39.3677,185.285 43,183.5C 44.7215,183.611 44.8882,184.111 43.5,185C 44.448,185.483 45.448,185.649 46.5,185.5C 46.5,186.5 46.5,187.5 46.5,188.5C 47.5,188.5 48.5,188.5 49.5,188.5C 49.7135,186.856 49.3802,185.356 48.5,184C 51.7751,183.071 54.7751,183.571 57.5,185.5C 59.4207,180.508 60.4207,180.508 60.5,185.5C 63.7281,185.299 66.8948,185.633 70,186.5C 71.8974,186.104 73.3974,185.104 74.5,183.5C 75.2164,184.311 76.0497,184.978 77,185.5C 81.3394,183.362 85.8394,183.029 90.5,184.5C 92.1578,185.828 93.9911,186.828 96,187.5C 100.612,186.349 105.112,185.016 109.5,183.5C 110.524,184.853 111.857,185.52 113.5,185.5C 113.343,184.127 113.51,182.793 114,181.5C 115.405,183.107 117.072,184.44 119,185.5C 120.52,184.493 122.187,183.827 124,183.5C 127.045,183.959 130.045,184.626 133,185.5C 135.436,184.765 137.436,183.432 139,181.5C 140.754,183.25 142.921,183.917 145.5,183.5C 146.161,188.548 147.494,188.548 149.5,183.5C 150.784,184.585 152.284,185.252 154,185.5C 157.147,184.314 160.314,184.314 163.5,185.5C 165.384,185.284 167.051,184.617 168.5,183.5C 169.548,184.548 170.548,185.548 171.5,186.5 Z"/></g>
<g><path style="opacity:1" fill="#5f6cb9" d="M 502.5,187.5 C 504.461,193.334 506.127,199.334 507.5,205.5C 506.883,205.611 506.383,205.944 506,206.5C 505.501,210.486 505.334,214.486 505.5,218.5C 505.785,220.288 505.452,221.955 504.5,223.5C 503.784,222.689 502.95,222.022 502,221.5C 499.522,222.888 496.855,223.554 494,223.5C 487.837,223.415 481.67,223.415 475.5,223.5C 472.946,221.076 470.446,221.076 468,223.5C 466.518,221.219 464.851,221.219 463,223.5C 462.311,222.643 461.478,221.977 460.5,221.5C 455.624,223.99 450.791,223.99 446,221.5C 444.941,221.63 444.108,222.13 443.5,223C 444.711,223.893 444.711,224.726 443.5,225.5C 440.997,224.241 438.497,222.908 436,221.5C 431.158,222.746 426.324,224.079 421.5,225.5C 420.852,221.362 419.185,220.695 416.5,223.5C 413.873,221.042 412.04,221.708 411,225.5C 410.751,224.376 410.251,223.376 409.5,222.5C 401.326,223.273 392.993,223.273 384.5,222.5C 384.741,225.999 383.908,226.332 382,223.5C 379.761,226.813 377.261,227.147 374.5,224.5C 370.204,223.672 365.871,223.172 361.5,223C 360.648,221.272 359.648,221.105 358.5,222.5C 354.12,209.739 348.12,197.739 340.5,186.5C 341.868,185.694 343.201,184.694 344.5,183.5C 346.793,184.705 349.293,185.372 352,185.5C 354.707,185.372 357.207,184.705 359.5,183.5C 360.216,184.311 361.05,184.978 362,185.5C 364.184,182.543 365.351,182.877 365.5,186.5C 368.024,186.571 370.024,185.571 371.5,183.5C 372.429,184.689 372.762,186.022 372.5,187.5C 378.43,186.796 383.93,184.796 389,181.5C 390.188,182.563 390.688,183.897 390.5,185.5C 391.5,185.5 392.5,185.5 393.5,185.5C 393.66,181.764 394.493,181.764 396,185.5C 396.85,184.576 397.85,184.576 399,185.5C 400.477,184.556 401.477,183.223 402,181.5C 402.49,182.793 402.657,184.127 402.5,185.5C 404.912,185.669 407.079,185.003 409,183.5C 410.221,184.272 411.221,185.272 412,186.5C 412.589,182.93 413.923,182.596 416,185.5C 417.921,183.997 420.088,183.331 422.5,183.5C 422.281,184.675 422.614,185.675 423.5,186.5C 424.736,185.754 426.07,185.421 427.5,185.5C 427.281,186.675 427.614,187.675 428.5,188.5C 429.631,187.249 430.964,186.249 432.5,185.5C 434.036,186.249 435.369,187.249 436.5,188.5C 437.622,186.956 437.289,185.623 435.5,184.5C 436.522,183.646 437.355,182.646 438,181.5C 438.969,184.302 440.802,186.302 443.5,187.5C 450.287,185.588 457.287,184.922 464.5,185.5C 465.614,180.371 466.281,180.371 466.5,185.5C 469.144,185.84 471.477,185.173 473.5,183.5C 477.5,184.833 481.5,186.167 485.5,187.5C 488.849,186.255 492.182,184.922 495.5,183.5C 497.79,184.742 499.623,186.408 501,188.5C 501.383,187.944 501.883,187.611 502.5,187.5 Z"/></g>
<g><path style="opacity:1" fill="#636dbe" d="M 212.5,219.5 C 217.047,232.276 226.047,237.609 239.5,235.5C 239.359,246.976 233.359,252.976 221.5,253.5C 208.779,251.752 202.946,244.419 204,231.5C 205.629,226.55 208.462,222.55 212.5,219.5 Z"/></g>
<g><path style="opacity:1" fill="#626dbd" d="M 294.5,219.5 C 303.757,226.284 305.924,234.95 301,245.5C 293.895,253.696 285.395,255.529 275.5,251C 269.69,247.226 267.357,242.06 268.5,235.5C 281.824,237.834 290.49,232.501 294.5,219.5 Z"/></g>
<g><path style="opacity:1" fill="#646dbf" d="M 4.5,217.5 C 5.13124,219.448 6.13124,221.281 7.5,223C 22.5,223.333 37.5,223.667 52.5,224C 52.9981,225.158 53.8315,225.991 55,226.5C 56.6997,224.685 58.8664,223.685 61.5,223.5C 63.6934,223.326 65.5267,223.993 67,225.5C 67.4828,224.552 67.6495,223.552 67.5,222.5C 72.1667,223.833 76.8333,223.833 81.5,222.5C 81.3505,223.552 81.5172,224.552 82,225.5C 84.2894,224.014 86.7894,223.014 89.5,222.5C 91.1667,223.833 92.8333,223.833 94.5,222.5C 95.6473,222.818 96.4806,223.484 97,224.5C 99.6286,223.337 102.295,222.337 105,221.5C 105.833,222.5 106.667,223.5 107.5,224.5C 111.317,223.798 115.15,223.131 119,222.5C 120.653,222.82 121.653,223.82 122,225.5C 122.483,224.552 122.649,223.552 122.5,222.5C 125.95,221.756 127.616,223.09 127.5,226.5C 130.58,224.904 133.747,223.238 137,221.5C 139.333,224.167 141.667,224.167 144,221.5C 145.333,222.167 146.667,222.833 148,223.5C 149.567,222.144 151.4,221.477 153.5,221.5C 150.006,238.149 149.673,254.815 152.5,271.5C 151.71,272.609 151.21,273.942 151,275.5C 149.18,273.115 146.847,271.449 144,270.5C 137.958,271.877 131.958,273.21 126,274.5C 122.118,271.886 118.285,271.886 114.5,274.5C 113.522,274.023 112.689,273.357 112,272.5C 111.167,273.5 110.333,274.5 109.5,275.5C 108.614,274.675 108.281,273.675 108.5,272.5C 105.699,273.698 102.866,273.698 100,272.5C 97.7207,272.439 95.7207,273.105 94,274.5C 92.9079,273.704 91.7412,273.037 90.5,272.5C 85.8983,272.72 81.2316,272.887 76.5,273C 74.8495,274.63 73.1828,274.463 71.5,272.5C 69.9446,272.722 68.6113,273.389 67.5,274.5C 66.6919,274.192 66.0253,273.692 65.5,273C 55.1667,272.333 44.8333,272.333 34.5,273C 33.1667,275 31.8333,275 30.5,273C 23.3443,272.759 16.3443,272.092 9.5,271C 10.3366,272.011 10.67,273.178 10.5,274.5C 8.07063,274.116 5.73729,273.449 3.5,272.5C 3.76781,270.901 3.43448,269.568 2.5,268.5C 1.54795,253.198 1.71461,237.865 3,222.5C 3.35186,220.753 3.85186,219.086 4.5,217.5 Z"/></g>
<g><path style="opacity:1" fill="#646dbf" d="M 505.5,218.5 C 507.617,224.177 508.783,230.177 509,236.5C 509.169,253.005 509.669,269.338 510.5,285.5C 510.672,286.492 510.338,287.158 509.5,287.5C 509.565,287.062 509.399,286.728 509,286.5C 508.722,287.416 508.222,288.082 507.5,288.5C 507.666,283.821 507.499,279.155 507,274.5C 504.159,272.496 500.993,271.996 497.5,273C 496.874,273.75 496.374,274.584 496,275.5C 494.386,272.398 492.553,272.064 490.5,274.5C 488.955,275.452 487.288,275.785 485.5,275.5C 485.286,273.856 485.62,272.356 486.5,271C 483.398,271.927 480.232,273.094 477,274.5C 475.605,274.22 474.438,273.553 473.5,272.5C 474.847,268.89 474.18,268.557 471.5,271.5C 466.198,272.329 460.864,272.829 455.5,273C 454.107,275.683 452.774,275.85 451.5,273.5C 446.109,271.775 441.109,272.442 436.5,275.5C 435.713,274.758 435.047,273.925 434.5,273C 430.798,272.9 427.298,272.067 424,270.5C 421.679,271.487 420.013,273.154 419,275.5C 418.311,274.643 417.478,273.977 416.5,273.5C 415.15,274.95 413.484,275.617 411.5,275.5C 413.154,268.09 411.821,267.757 407.5,274.5C 406.554,274.987 405.554,275.32 404.5,275.5C 402.437,273.691 399.937,272.691 397,272.5C 394.387,273.081 391.887,273.081 389.5,272.5C 388.5,273.167 387.5,273.833 386.5,274.5C 383.701,273.092 380.868,271.759 378,270.5C 373.917,271.729 369.917,273.062 366,274.5C 363.366,273.774 361.199,272.441 359.5,270.5C 362.332,254.451 361.998,238.451 358.5,222.5C 359.648,221.105 360.648,221.272 361.5,223C 365.871,223.172 370.204,223.672 374.5,224.5C 377.261,227.147 379.761,226.813 382,223.5C 383.908,226.332 384.741,225.999 384.5,222.5C 392.993,223.273 401.326,223.273 409.5,222.5C 410.251,223.376 410.751,224.376 411,225.5C 412.04,221.708 413.873,221.042 416.5,223.5C 419.185,220.695 420.852,221.362 421.5,225.5C 426.324,224.079 431.158,222.746 436,221.5C 438.497,222.908 440.997,224.241 443.5,225.5C 444.711,224.726 444.711,223.893 443.5,223C 444.108,222.13 444.941,221.63 446,221.5C 450.791,223.99 455.624,223.99 460.5,221.5C 461.478,221.977 462.311,222.643 463,223.5C 464.851,221.219 466.518,221.219 468,223.5C 470.446,221.076 472.946,221.076 475.5,223.5C 481.67,223.415 487.837,223.415 494,223.5C 496.855,223.554 499.522,222.888 502,221.5C 502.95,222.022 503.784,222.689 504.5,223.5C 505.452,221.955 505.785,220.288 505.5,218.5 Z"/></g>
<g><path style="opacity:1" fill="#758dd5" d="M 17.5,159.5 C 18.0967,159.735 18.4301,160.235 18.5,161C 15.0437,168.866 12.7104,177.033 11.5,185.5C 10.5902,187.019 9.75684,188.685 9,190.5C 8.72184,199.721 7.22184,208.721 4.5,217.5C 3.85186,219.086 3.35186,220.753 3,222.5C 1.71461,237.865 1.54795,253.198 2.5,268.5C 1.9317,288.611 4.9317,307.944 11.5,326.5C 12.4245,330.79 13.0912,335.124 13.5,339.5C 6.15115,319.42 1.48448,298.753 -0.5,277.5C -0.5,262.833 -0.5,248.167 -0.5,233.5C 2.01699,208.096 8.01699,183.429 17.5,159.5 Z"/></g>
<g><path style="opacity:1" fill="#7690d8" d="M 507.5,205.5 C 508.759,214.981 510.093,224.314 511.5,233.5C 511.5,248.167 511.5,262.833 511.5,277.5C 510.527,279.948 510.194,282.615 510.5,285.5C 509.669,269.338 509.169,253.005 509,236.5C 508.783,230.177 507.617,224.177 505.5,218.5C 505.334,214.486 505.501,210.486 506,206.5C 506.383,205.944 506.883,205.611 507.5,205.5 Z"/></g>
<g><path style="opacity:1" fill="#686ec4" d="M 2.5,268.5 C 3.43448,269.568 3.76781,270.901 3.5,272.5C 5.73729,273.449 8.07063,274.116 10.5,274.5C 10.67,273.178 10.3366,272.011 9.5,271C 16.3443,272.092 23.3443,272.759 30.5,273C 31.8333,275 33.1667,275 34.5,273C 44.8333,272.333 55.1667,272.333 65.5,273C 66.0253,273.692 66.6919,274.192 67.5,274.5C 68.6113,273.389 69.9446,272.722 71.5,272.5C 73.1828,274.463 74.8495,274.63 76.5,273C 81.2316,272.887 85.8983,272.72 90.5,272.5C 91.7412,273.037 92.9079,273.704 94,274.5C 95.7207,273.105 97.7207,272.439 100,272.5C 102.866,273.698 105.699,273.698 108.5,272.5C 108.281,273.675 108.614,274.675 109.5,275.5C 110.333,274.5 111.167,273.5 112,272.5C 112.689,273.357 113.522,274.023 114.5,274.5C 118.285,271.886 122.118,271.886 126,274.5C 131.958,273.21 137.958,271.877 144,270.5C 146.847,271.449 149.18,273.115 151,275.5C 151.21,273.942 151.71,272.609 152.5,271.5C 156.268,288.366 163.268,303.699 173.5,317.5C 172.432,318.434 171.099,318.768 169.5,318.5C 169.649,319.552 169.483,320.552 169,321.5C 167.8,319.588 166.133,318.255 164,317.5C 161.515,318.423 159.015,319.423 156.5,320.5C 155.784,319.689 154.95,319.022 154,318.5C 152.144,319.736 150.311,319.736 148.5,318.5C 147.004,322.335 146.004,322.335 145.5,318.5C 143.857,318.48 142.524,319.147 141.5,320.5C 136.926,317.551 132.759,317.884 129,321.5C 128.935,319.117 128.102,318.45 126.5,319.5C 123.947,316.956 121.447,316.956 119,319.5C 116.119,319.93 113.286,319.263 110.5,317.5C 108.786,318.609 108.119,317.942 108.5,315.5C 107.5,315.5 106.5,315.5 105.5,315.5C 105.5,316.5 105.5,317.5 105.5,318.5C 96.0324,319.304 86.5324,318.971 77,317.5C 75.1026,317.896 73.6026,318.896 72.5,320.5C 70.5458,319.32 68.3791,318.654 66,318.5C 63.4605,318.962 61.1271,318.962 59,318.5C 58,322.5 57,322.5 56,318.5C 52.4973,318.664 48.9973,318.664 45.5,318.5C 44.4763,317.147 43.143,316.48 41.5,316.5C 41.719,317.675 41.3857,318.675 40.5,319.5C 37.5804,317.92 34.9137,318.253 32.5,320.5C 30.7148,319.337 28.7148,318.67 26.5,318.5C 21.5049,319.495 16.5049,319.662 11.5,319C 11.2625,321.288 11.2625,323.788 11.5,326.5C 4.9317,307.944 1.9317,288.611 2.5,268.5 Z"/></g>
<g><path style="opacity:1" fill="#686ec4" d="M 507.5,288.5 C 506.674,293.316 506.174,298.316 506,303.5C 503.954,310.062 502.287,316.729 501,323.5C 500.8,325.32 499.966,326.653 498.5,327.5C 499.008,324.824 499.175,322.157 499,319.5C 498.586,319.957 498.086,320.291 497.5,320.5C 496.784,319.689 495.95,319.022 495,318.5C 491.063,318.59 487.063,318.59 483,318.5C 482.05,319.022 481.216,319.689 480.5,320.5C 478.167,317.833 475.833,317.833 473.5,320.5C 471.213,318.344 468.713,318.011 466,319.5C 465,318.5 464,317.5 463,316.5C 457.168,318 451.168,319.333 445,320.5C 440.96,319.042 436.793,318.375 432.5,318.5C 432.5,317.5 432.5,316.5 432.5,315.5C 431.5,315.5 430.5,315.5 429.5,315.5C 429.5,316.5 429.5,317.5 429.5,318.5C 425.955,319.587 422.455,319.587 419,318.5C 414.162,320.652 409.329,320.319 404.5,317.5C 403.252,318.04 402.085,318.707 401,319.5C 397.045,318.225 393.045,318.225 389,319.5C 387.333,318.833 385.667,318.167 384,317.5C 374.359,319.064 364.859,319.398 355.5,318.5C 352.434,318.913 349.434,319.58 346.5,320.5C 345.646,319.478 344.646,318.645 343.5,318C 341.398,318.256 339.398,318.089 337.5,317.5C 348.859,303.779 356.192,288.112 359.5,270.5C 361.199,272.441 363.366,273.774 366,274.5C 369.917,273.062 373.917,271.729 378,270.5C 380.868,271.759 383.701,273.092 386.5,274.5C 387.5,273.833 388.5,273.167 389.5,272.5C 391.887,273.081 394.387,273.081 397,272.5C 399.937,272.691 402.437,273.691 404.5,275.5C 405.554,275.32 406.554,274.987 407.5,274.5C 411.821,267.757 413.154,268.09 411.5,275.5C 413.484,275.617 415.15,274.95 416.5,273.5C 417.478,273.977 418.311,274.643 419,275.5C 420.013,273.154 421.679,271.487 424,270.5C 427.298,272.067 430.798,272.9 434.5,273C 435.047,273.925 435.713,274.758 436.5,275.5C 441.109,272.442 446.109,271.775 451.5,273.5C 452.774,275.85 454.107,275.683 455.5,273C 460.864,272.829 466.198,272.329 471.5,271.5C 474.18,268.557 474.847,268.89 473.5,272.5C 474.438,273.553 475.605,274.22 477,274.5C 480.232,273.094 483.398,271.927 486.5,271C 485.62,272.356 485.286,273.856 485.5,275.5C 487.288,275.785 488.955,275.452 490.5,274.5C 492.553,272.064 494.386,272.398 496,275.5C 496.374,274.584 496.874,273.75 497.5,273C 500.993,271.996 504.159,272.496 507,274.5C 507.499,279.155 507.666,283.821 507.5,288.5 Z"/></g>
<g><path style="opacity:1" fill="#7d94db" d="M 509.5,287.5 C 507.505,307.814 502.838,327.48 495.5,346.5C 494.861,345.903 494.528,345.07 494.5,344C 496.385,338.625 497.719,333.125 498.5,327.5C 499.966,326.653 500.8,325.32 501,323.5C 502.287,316.729 503.954,310.062 506,303.5C 506.174,298.316 506.674,293.316 507.5,288.5C 508.222,288.082 508.722,287.416 509,286.5C 509.399,286.728 509.565,287.062 509.5,287.5 Z"/></g>
<g><path style="opacity:1" fill="#6e70ca" d="M 173.5,317.5 C 185.881,331.191 200.548,341.691 217.5,349C 241.442,356.278 265.942,360.111 291,360.5C 311.857,361.062 331.69,356.896 350.5,348C 346.673,346.254 343.007,344.254 339.5,342C 329.919,334.261 329.252,326.094 337.5,317.5C 339.398,318.089 341.398,318.256 343.5,318C 344.646,318.645 345.646,319.478 346.5,320.5C 349.434,319.58 352.434,318.913 355.5,318.5C 364.859,319.398 374.359,319.064 384,317.5C 385.667,318.167 387.333,318.833 389,319.5C 393.045,318.225 397.045,318.225 401,319.5C 402.085,318.707 403.252,318.04 404.5,317.5C 409.329,320.319 414.162,320.652 419,318.5C 422.455,319.587 425.955,319.587 429.5,318.5C 429.5,317.5 429.5,316.5 429.5,315.5C 430.5,315.5 431.5,315.5 432.5,315.5C 432.5,316.5 432.5,317.5 432.5,318.5C 436.793,318.375 440.96,319.042 445,320.5C 451.168,319.333 457.168,318 463,316.5C 464,317.5 465,318.5 466,319.5C 468.713,318.011 471.213,318.344 473.5,320.5C 475.833,317.833 478.167,317.833 480.5,320.5C 481.216,319.689 482.05,319.022 483,318.5C 487.063,318.59 491.063,318.59 495,318.5C 495.95,319.022 496.784,319.689 497.5,320.5C 498.086,320.291 498.586,319.957 499,319.5C 499.175,322.157 499.008,324.824 498.5,327.5C 497.719,333.125 496.385,338.625 494.5,344C 494.528,345.07 494.861,345.903 495.5,346.5C 495.5,347.167 495.167,347.5 494.5,347.5C 493.503,347.47 492.836,347.97 492.5,349C 487.601,359.808 482.934,370.641 478.5,381.5C 477.265,381.721 476.265,382.388 475.5,383.5C 473.728,386.728 471.728,389.728 469.5,392.5C 467.317,390.766 464.65,389.766 461.5,389.5C 459.866,389.968 458.7,390.968 458,392.5C 455.142,390.822 451.976,389.822 448.5,389.5C 446.884,390.115 445.551,391.115 444.5,392.5C 442.5,388.5 440.5,388.5 438.5,392.5C 435.65,388.886 432.983,388.886 430.5,392.5C 429.106,390.016 427.606,390.016 426,392.5C 423.769,389.949 421.603,389.949 419.5,392.5C 418.481,391.313 417.314,390.313 416,389.5C 414.542,390.747 413.042,390.747 411.5,389.5C 410.335,390.491 409.168,391.491 408,392.5C 406.519,390.852 404.685,389.852 402.5,389.5C 398.582,389.774 394.916,390.774 391.5,392.5C 391.662,390.369 390.329,389.369 387.5,389.5C 387.5,390.5 387.5,391.5 387.5,392.5C 384.657,392.058 381.991,391.058 379.5,389.5C 377.493,390.171 375.66,391.171 374,392.5C 373.05,391.978 372.216,391.311 371.5,390.5C 370.216,391.585 368.716,392.252 367,392.5C 360.755,390.442 354.421,390.109 348,391.5C 345.611,391.037 343.277,390.37 341,389.5C 339.086,390.079 337.419,391.079 336,392.5C 334.864,391.217 333.531,390.217 332,389.5C 324.266,390.099 316.599,390.099 309,389.5C 306.132,389.968 303.466,390.968 301,392.5C 298.811,391.312 296.644,391.312 294.5,392.5C 292.722,391.055 290.722,390.055 288.5,389.5C 287.328,389.919 286.328,390.585 285.5,391.5C 282.348,390.098 279.348,390.432 276.5,392.5C 274.833,391.833 273.167,391.167 271.5,390.5C 268.442,393.147 265.442,393.147 262.5,390.5C 260.817,391.592 258.984,392.259 257,392.5C 252.967,390.95 248.8,389.95 244.5,389.5C 242.945,389.722 241.611,390.389 240.5,391.5C 238.495,388.972 236.829,389.305 235.5,392.5C 233.167,389.833 230.833,389.833 228.5,392.5C 226.745,389.977 224.911,389.977 223,392.5C 220.545,389.962 218.045,389.962 215.5,392.5C 213.896,392.061 212.396,391.394 211,390.5C 209.739,390.759 208.739,391.426 208,392.5C 203.979,389.979 199.813,389.979 195.5,392.5C 193.964,391.751 192.631,390.751 191.5,389.5C 189.866,389.968 188.7,390.968 188,392.5C 186.475,391.28 184.641,390.613 182.5,390.5C 180.285,390.67 178.285,391.337 176.5,392.5C 175.5,391.833 174.5,391.167 173.5,390.5C 172.808,391.025 172.308,391.692 172,392.5C 169.819,388.71 167.819,388.71 166,392.5C 165.326,391.422 164.326,390.755 163,390.5C 160.047,392.851 157.214,392.851 154.5,390.5C 151.52,393.117 148.853,392.784 146.5,389.5C 144.952,392.951 142.952,393.284 140.5,390.5C 137.502,391.783 134.668,391.45 132,389.5C 130.527,391.136 128.693,392.136 126.5,392.5C 124.083,391.596 121.583,390.929 119,390.5C 115.853,391.686 112.686,391.686 109.5,390.5C 107.68,390.649 106.18,391.316 105,392.5C 104.3,390.968 103.134,389.968 101.5,389.5C 98.1642,389.977 94.9976,390.977 92,392.5C 88.4491,388.563 84.9491,388.563 81.5,392.5C 80.4495,391.115 79.1161,390.115 77.5,389.5C 74.3013,390.799 71.1347,390.799 68,389.5C 67.0922,391.439 65.5922,392.439 63.5,392.5C 63.719,391.325 63.3857,390.325 62.5,389.5C 59.283,392.044 56.1164,392.044 53,389.5C 51.6861,390.313 50.5195,391.313 49.5,392.5C 47.0633,390.424 44.3966,390.091 41.5,391.5C 45.1558,399.254 49.8225,406.42 55.5,413C 54.9056,413.464 54.2389,413.631 53.5,413.5C 47.0067,405.182 41.0067,396.515 35.5,387.5C 36.2389,387.631 36.9056,387.464 37.5,387C 33.8989,381.964 31.2322,376.464 29.5,370.5C 23.9198,363.566 20.7531,355.566 20,346.5C 19.0113,343.013 16.8446,340.68 13.5,339.5C 13.0912,335.124 12.4245,330.79 11.5,326.5C 11.2625,323.788 11.2625,321.288 11.5,319C 16.5049,319.662 21.5049,319.495 26.5,318.5C 28.7148,318.67 30.7148,319.337 32.5,320.5C 34.9137,318.253 37.5804,317.92 40.5,319.5C 41.3857,318.675 41.719,317.675 41.5,316.5C 43.143,316.48 44.4763,317.147 45.5,318.5C 48.9973,318.664 52.4973,318.664 56,318.5C 57,322.5 58,322.5 59,318.5C 61.1271,318.962 63.4605,318.962 66,318.5C 68.3791,318.654 70.5458,319.32 72.5,320.5C 73.6026,318.896 75.1026,317.896 77,317.5C 86.5324,318.971 96.0324,319.304 105.5,318.5C 105.5,317.5 105.5,316.5 105.5,315.5C 106.5,315.5 107.5,315.5 108.5,315.5C 108.119,317.942 108.786,318.609 110.5,317.5C 113.286,319.263 116.119,319.93 119,319.5C 121.447,316.956 123.947,316.956 126.5,319.5C 128.102,318.45 128.935,319.117 129,321.5C 132.759,317.884 136.926,317.551 141.5,320.5C 142.524,319.147 143.857,318.48 145.5,318.5C 146.004,322.335 147.004,322.335 148.5,318.5C 150.311,319.736 152.144,319.736 154,318.5C 154.95,319.022 155.784,319.689 156.5,320.5C 159.015,319.423 161.515,318.423 164,317.5C 166.133,318.255 167.8,319.588 169,321.5C 169.483,320.552 169.649,319.552 169.5,318.5C 171.099,318.768 172.432,318.434 173.5,317.5 Z"/></g>
<g><path style="opacity:1" fill="#7f8fdb" d="M 13.5,339.5 C 16.8446,340.68 19.0113,343.013 20,346.5C 20.7531,355.566 23.9198,363.566 29.5,370.5C 31.2322,376.464 33.8989,381.964 37.5,387C 36.9056,387.464 36.2389,387.631 35.5,387.5C 26.0504,372.491 18.717,356.491 13.5,339.5 Z"/></g>
<g><path style="opacity:0.376" fill="#8298dc" d="M 494.5,347.5 C 490.495,359.544 485.162,370.877 478.5,381.5C 482.934,370.641 487.601,359.808 492.5,349C 492.836,347.97 493.503,347.47 494.5,347.5 Z"/></g>
<g><path style="opacity:1" fill="#7471d0" d="M 469.5,392.5 C 466.033,396.167 463.533,400.501 462,405.5C 457.333,410.833 452.667,416.167 448,421.5C 447.26,422.749 447.427,423.749 448.5,424.5C 448.167,425.5 447.5,426.167 446.5,426.5C 446.103,425.475 445.437,425.308 444.5,426C 442.297,428.372 439.963,430.539 437.5,432.5C 435.897,430.706 433.73,429.706 431,429.5C 425.412,430.088 419.746,430.088 414,429.5C 413.05,430.022 412.216,430.689 411.5,431.5C 405.681,430.812 399.847,430.145 394,429.5C 374.779,430.71 355.446,430.71 336,429.5C 332.738,429.751 329.738,430.751 327,432.5C 322.81,431.562 318.644,430.562 314.5,429.5C 307.982,430.641 301.482,430.641 295,429.5C 292.431,429.951 290.098,430.951 288,432.5C 283.16,430.196 278.16,429.863 273,431.5C 269.355,429.424 265.521,429.09 261.5,430.5C 260.833,434.5 260.167,434.5 259.5,430.5C 256.167,430.5 252.833,430.5 249.5,430.5C 248.833,434.5 248.167,434.5 247.5,430.5C 194.046,430.403 141.046,430.403 88.5,430.5C 88.5,431.5 88.5,432.5 88.5,433.5C 87.5,433.5 86.5,433.5 85.5,433.5C 85.5,432.5 85.5,431.5 85.5,430.5C 81.5,430.5 77.5,430.5 73.5,430.5C 73.5,431.5 73.5,432.5 73.5,433.5C 68.2178,428.934 63.8845,423.601 60.5,417.5C 58.472,416.451 56.472,415.451 54.5,414.5C 53.8333,414.5 53.5,414.167 53.5,413.5C 54.2389,413.631 54.9056,413.464 55.5,413C 49.8225,406.42 45.1558,399.254 41.5,391.5C 44.3966,390.091 47.0633,390.424 49.5,392.5C 50.5195,391.313 51.6861,390.313 53,389.5C 56.1164,392.044 59.283,392.044 62.5,389.5C 63.3857,390.325 63.719,391.325 63.5,392.5C 65.5922,392.439 67.0922,391.439 68,389.5C 71.1347,390.799 74.3013,390.799 77.5,389.5C 79.1161,390.115 80.4495,391.115 81.5,392.5C 84.9491,388.563 88.4491,388.563 92,392.5C 94.9976,390.977 98.1642,389.977 101.5,389.5C 103.134,389.968 104.3,390.968 105,392.5C 106.18,391.316 107.68,390.649 109.5,390.5C 112.686,391.686 115.853,391.686 119,390.5C 121.583,390.929 124.083,391.596 126.5,392.5C 128.693,392.136 130.527,391.136 132,389.5C 134.668,391.45 137.502,391.783 140.5,390.5C 142.952,393.284 144.952,392.951 146.5,389.5C 148.853,392.784 151.52,393.117 154.5,390.5C 157.214,392.851 160.047,392.851 163,390.5C 164.326,390.755 165.326,391.422 166,392.5C 167.819,388.71 169.819,388.71 172,392.5C 172.308,391.692 172.808,391.025 173.5,390.5C 174.5,391.167 175.5,391.833 176.5,392.5C 178.285,391.337 180.285,390.67 182.5,390.5C 184.641,390.613 186.475,391.28 188,392.5C 188.7,390.968 189.866,389.968 191.5,389.5C 192.631,390.751 193.964,391.751 195.5,392.5C 199.813,389.979 203.979,389.979 208,392.5C 208.739,391.426 209.739,390.759 211,390.5C 212.396,391.394 213.896,392.061 215.5,392.5C 218.045,389.962 220.545,389.962 223,392.5C 224.911,389.977 226.745,389.977 228.5,392.5C 230.833,389.833 233.167,389.833 235.5,392.5C 236.829,389.305 238.495,388.972 240.5,391.5C 241.611,390.389 242.945,389.722 244.5,389.5C 248.8,389.95 252.967,390.95 257,392.5C 258.984,392.259 260.817,391.592 262.5,390.5C 265.442,393.147 268.442,393.147 271.5,390.5C 273.167,391.167 274.833,391.833 276.5,392.5C 279.348,390.432 282.348,390.098 285.5,391.5C 286.328,390.585 287.328,389.919 288.5,389.5C 290.722,390.055 292.722,391.055 294.5,392.5C 296.644,391.312 298.811,391.312 301,392.5C 303.466,390.968 306.132,389.968 309,389.5C 316.599,390.099 324.266,390.099 332,389.5C 333.531,390.217 334.864,391.217 336,392.5C 337.419,391.079 339.086,390.079 341,389.5C 343.277,390.37 345.611,391.037 348,391.5C 354.421,390.109 360.755,390.442 367,392.5C 368.716,392.252 370.216,391.585 371.5,390.5C 372.216,391.311 373.05,391.978 374,392.5C 375.66,391.171 377.493,390.171 379.5,389.5C 381.991,391.058 384.657,392.058 387.5,392.5C 387.5,391.5 387.5,390.5 387.5,389.5C 390.329,389.369 391.662,390.369 391.5,392.5C 394.916,390.774 398.582,389.774 402.5,389.5C 404.685,389.852 406.519,390.852 408,392.5C 409.168,391.491 410.335,390.491 411.5,389.5C 413.042,390.747 414.542,390.747 416,389.5C 417.314,390.313 418.481,391.313 419.5,392.5C 421.603,389.949 423.769,389.949 426,392.5C 427.606,390.016 429.106,390.016 430.5,392.5C 432.983,388.886 435.65,388.886 438.5,392.5C 440.5,388.5 442.5,388.5 444.5,392.5C 445.551,391.115 446.884,390.115 448.5,389.5C 451.976,389.822 455.142,390.822 458,392.5C 458.7,390.968 459.866,389.968 461.5,389.5C 464.65,389.766 467.317,390.766 469.5,392.5 Z"/></g>
<g><path style="opacity:1" fill="#8090d8" d="M 478.5,381.5 C 470.234,397.027 460.234,411.361 448.5,424.5C 447.427,423.749 447.26,422.749 448,421.5C 452.667,416.167 457.333,410.833 462,405.5C 463.533,400.501 466.033,396.167 469.5,392.5C 471.728,389.728 473.728,386.728 475.5,383.5C 476.265,382.388 477.265,381.721 478.5,381.5 Z"/></g>
<g><path style="opacity:0.929" fill="#8b9ee4" d="M 54.5,414.5 C 56.472,415.451 58.472,416.451 60.5,417.5C 63.8845,423.601 68.2178,428.934 73.5,433.5C 78.1667,438.5 82.8333,443.5 87.5,448.5C 75.1507,438.484 64.1507,427.151 54.5,414.5 Z"/></g>
<g><path style="opacity:1" fill="#8b9be5" d="M 446.5,426.5 C 426.473,449.164 403.139,467.497 376.5,481.5C 376.414,480.504 376.748,479.671 377.5,479C 399.976,466.691 419.976,451.191 437.5,432.5C 439.963,430.539 442.297,428.372 444.5,426C 445.437,425.308 446.103,425.475 446.5,426.5 Z"/></g>
<g><path style="opacity:1" fill="#7973d5" d="M 437.5,432.5 C 419.976,451.191 399.976,466.691 377.5,479C 376.748,479.671 376.414,480.504 376.5,481.5C 371.919,484.622 366.919,486.956 361.5,488.5C 347.387,493.257 333.054,497.757 318.5,502C 317.058,502.377 316.058,503.21 315.5,504.5C 315.5,505.167 315.167,505.5 314.5,505.5C 311.36,504.359 308.027,504.192 304.5,505C 298.67,506.753 292.67,508.087 286.5,509C 257.685,510.494 229.019,509.161 200.5,505C 186.278,500.204 171.945,495.704 157.5,491.5C 157.719,490.325 157.386,489.325 156.5,488.5C 144.967,484.415 134.3,478.915 124.5,472C 122.5,471.667 120.5,471.333 118.5,471C 107.754,463.971 97.4205,456.471 87.5,448.5C 82.8333,443.5 78.1667,438.5 73.5,433.5C 73.5,432.5 73.5,431.5 73.5,430.5C 77.5,430.5 81.5,430.5 85.5,430.5C 85.5,431.5 85.5,432.5 85.5,433.5C 86.5,433.5 87.5,433.5 88.5,433.5C 88.5,432.5 88.5,431.5 88.5,430.5C 141.046,430.403 194.046,430.403 247.5,430.5C 248.167,434.5 248.833,434.5 249.5,430.5C 252.833,430.5 256.167,430.5 259.5,430.5C 260.167,434.5 260.833,434.5 261.5,430.5C 265.521,429.09 269.355,429.424 273,431.5C 278.16,429.863 283.16,430.196 288,432.5C 290.098,430.951 292.431,429.951 295,429.5C 301.482,430.641 307.982,430.641 314.5,429.5C 318.644,430.562 322.81,431.562 327,432.5C 329.738,430.751 332.738,429.751 336,429.5C 355.446,430.71 374.779,430.71 394,429.5C 399.847,430.145 405.681,430.812 411.5,431.5C 412.216,430.689 413.05,430.022 414,429.5C 419.746,430.088 425.412,430.088 431,429.5C 433.73,429.706 435.897,430.706 437.5,432.5 Z"/></g>
<g><path style="opacity:0.976" fill="#8f9fe7" d="M 361.5,488.5 C 347.017,495.996 331.683,501.329 315.5,504.5C 316.058,503.21 317.058,502.377 318.5,502C 333.054,497.757 347.387,493.257 361.5,488.5 Z"/></g>
<g><path style="opacity:1" fill="#8a95e1" d="M 87.5,448.5 C 97.4205,456.471 107.754,463.971 118.5,471C 120.5,471.333 122.5,471.667 124.5,472C 134.3,478.915 144.967,484.415 156.5,488.5C 157.386,489.325 157.719,490.325 157.5,491.5C 171.945,495.704 186.278,500.204 200.5,505C 229.019,509.161 257.685,510.494 286.5,509C 292.67,508.087 298.67,506.753 304.5,505C 308.027,504.192 311.36,504.359 314.5,505.5C 302.089,507.847 289.756,509.847 277.5,511.5C 262.833,511.5 248.167,511.5 233.5,511.5C 186.773,506.646 144.106,490.813 105.5,464C 99.0129,459.342 93.0129,454.176 87.5,448.5 Z"/></g>
</svg>
